<?xml version="1.0" encoding="utf-8"?>
<!-- Generator: Adobe Illustrator 25.2.1, SVG Export Plug-In . SVG Version: 6.00 Build 0)  -->
<svg version="1.1" xmlns="http://www.w3.org/2000/svg" xmlns:xlink="http://www.w3.org/1999/xlink" x="0px" y="0px"
	 viewBox="0 0 453.33 338.67" style="enable-background:new 0 0 453.33 338.67;" xml:space="preserve">
<style type="text/css">
	.st0{fill:url(#SVGID_1_);}
	.st1{fill:url(#SVGID_2_);}
	.st2{fill:#F46D6D;}
	.st3{fill:url(#SVGID_3_);}
	.st4{fill:url(#SVGID_4_);}
	.st5{fill:url(#SVGID_5_);}
	.st6{fill:url(#SVGID_6_);}
	.st7{fill:url(#SVGID_7_);}
	.st8{fill:#E0E7EE;}
	.st9{fill:#FFFFFF;}
	.st10{clip-path:url(#SVGID_9_);}
	.st11{fill:#323BB4;}
	.st12{fill:#F9A101;}
	.st13{fill:url(#SVGID_10_);}
	.st14{fill:url(#SVGID_11_);}
	.st15{fill:#FAB9B5;}
	.st16{fill:url(#SVGID_12_);}
	.st17{fill:url(#SVGID_13_);}
	.st18{fill:#F7ADAB;}
	.st19{fill:#008DA2;}
	.st20{font-family:'SegoeUI-Semibold';}
	.st21{font-size:33.5607px;}
	.st22{font-size:16.0402px;}
	.st23{fill:url(#SVGID_14_);}
	.st24{fill:url(#SVGID_15_);}
	.st25{fill:url(#SVGID_16_);}
	.st26{fill:url(#SVGID_17_);}
</style>
<g id="BACKGROUND">
	<g>
		<linearGradient id="SVGID_1_" gradientUnits="userSpaceOnUse" x1="230.9239" y1="284.6665" x2="230.9239" y2="-25.464">
			<stop  offset="1.963140e-03" style="stop-color:#D6E1F4"/>
			<stop  offset="0.3434" style="stop-color:#E1E8F3"/>
			<stop  offset="0.9968" style="stop-color:#F2F2F2"/>
		</linearGradient>
		<path class="st0" d="M441.79,173.49c-6.11-13.7-17.76-26.17-22.52-40.89c-8.08-25.01,4.84-52.56-0.37-78.38
			c-4.56-22.61-24.3-40.93-45.87-42.58c-17.93-1.37-34.92,7.56-52.71,9.87c-29.84,3.87-59.01-10.94-88.79-16.27
			c-26.81-4.8-54.7-1.75-79.82,8.73c-16.34,6.82-33.07,19.12-35.46,37.73c-1.83,14.27,5.35,29.11,1.84,42.99
			c-2.63,10.43-10.93,18.18-19.97,23c-9.04,4.81-19.01,7.28-28.48,11.06c-20.3,8.09-38.81,23.08-47.94,44.03
			c-9.13,20.95-7.23,48.14,7.69,65.32c7.12,8.21,16.54,13.68,24.44,21.03c10.26,9.55,10.05,25.01,16.11,37.06
			c6.24,12.42,17.49,20.59,28.8,27.16c14.14,8.21,30.55,12.07,46.46,10.06c22.74-2.88,43.31-16.39,66.12-18.65
			c23.12-2.3,45.79,7.12,68.39,13.38c24.98,6.91,51.4,10,76.33,3.7c24.93-6.3,48.22-23.04,58.95-47.8
			c8.01-18.48,8.67-39.98,16.98-58.31c4.98-10.99,12.77-21.09,13.63-33.32C446.07,185.67,444.46,179.47,441.79,173.49z"/>
	</g>
</g>
<g id="OBJECTS">
	<g>
		<g>
			<g>
				<linearGradient id="SVGID_2_" gradientUnits="userSpaceOnUse" x1="296.5462" y1="92.2408" x2="385.0277" y2="92.2408">
					<stop  offset="0" style="stop-color:#FFAE2A"/>
					<stop  offset="0.3827" style="stop-color:#FFCC16"/>
					<stop  offset="0.7627" style="stop-color:#FFE306"/>
					<stop  offset="1" style="stop-color:#FFEC00"/>
				</linearGradient>
				<path class="st1" d="M362.87,89.35c-11.58-4.4-1.14-9.56,6.13-11.61c5.88-1.66,20.6-4.38,14.63-14.41
					c-6.26-10.51-12.25,2.47-17.23,3.94c-11.13,3.28,0.45-10.68,3.22-14.4c3.79-5.1,11.75-15.52,1.92-17.25
					c-7.96-1.4-16.19,9.68-19.49,15.2c-2.35,3.94-8.14,22.38-14.16,18.3c-4.56-3.1,0.16-21.57-10.72-8.36
					c-4.42,5.37-3.71,13.99-5.71,20.13c-2.92,8.99-4.15,12.72-12.14,10.41c-4.14-1.2-4.27-6.39-9.38-2.88
					c-2.63,1.81-3.41,10.12-3.39,13c0.2,26.51,10.8,44.26,15.8,46.55c6.77,3.1,19.35-1.38,25.14-4.7c2.88-1.65,8.13-4.38,7.76-8.58
					c-0.41-4.7-7.68-4.03-7.94-6.79c-0.76-7.83,13.65-0.35,17.64-1.47c5.17-1.45,13.73-10.68,8.31-15.56
					c-0.56-0.5-23.08-2.13-10.2-9.3c7.13-3.97,14.78,7.05,21.66-0.78C384.61,89.53,367.22,91,362.87,89.35z"/>
			</g>
			<path class="st2" d="M360.95,93.52c-4.97-2.1-10.12-4-15.53-4.46c3.81-4.76,7.8-9.48,10.7-14.76c0.82-1.49-1.62-2.52-2.43-1.04
				c-0.35,0.64-0.75,1.27-1.13,1.9c-0.42-1.62,0.08-4.03,0.23-5.32c0.39-3.33,1.64-6.32,2.95-9.37c0.67-1.56-1.76-2.61-2.43-1.04
				c-1.7,3.96-3.04,7.74-3.34,12.07c-0.15,2.13-0.27,4.43,0.96,6.19c-4.1,6.08-9.2,11.68-13.47,17.58
				c-1.83-2.89-3.17-5.91-3.78-9.34c-0.67-3.73-0.22-7.53-0.6-11.29c-0.17-1.69-2.8-1.37-2.62,0.33c0.47,4.52-0.06,8.96,1.07,13.41
				c0.86,3.36,2.39,6.33,4.3,9.2c-4.91,7.1-9.45,14.48-13.17,22.27c-1.24,2.59-2.37,5.23-3.46,7.88c-2.47-3.69-4.51-7.53-5.93-11.77
				c-0.79-2.36-1.67-4.85-1.98-7.32c-0.24-1.87-0.04-3.63-0.78-5.41c-0.65-1.57-3.11-0.59-2.45,0.98c0.9,2.17,0.6,5,1.17,7.32
				c0.55,2.24,1.24,4.47,2.01,6.64c1.59,4.45,3.93,8.48,6.64,12.33c0.04,0.06,0.09,0.08,0.13,0.13c-1.85,4.59-3.65,9.19-5.71,13.68
				c-0.16,0.13-0.31,0.29-0.41,0.53c-0.2,0.5-0.59,1.2-0.72,1.81c-3.67,9.27-7.37,18.53-10.92,27.84c-0.6,1.59,1.82,2.63,2.43,1.04
				c3.54-9.28,7.23-18.51,10.88-27.74c0.02-0.04,0.05-0.06,0.07-0.11c1.17-2.42,2.25-4.88,3.29-7.37
				c4.81,1.22,10.16-0.18,14.64-1.98c1.58-0.63,0.6-3.09-0.98-2.45c-3.9,1.57-8.42,2.78-12.63,1.95c2.31-5.68,4.49-11.42,7.13-16.96
				c1.05-2.2,2.17-4.36,3.34-6.5c0.09,0.06,0.16,0.13,0.27,0.18c6.56,2.66,13.64,3.73,20.66,2.63c1.68-0.26,1.36-2.89-0.33-2.62
				c-6.58,1.03-13.14,0.06-19.29-2.43c-0.01-0.01-0.02,0-0.04-0.01c3.61-6.3,7.68-12.34,11.96-18.21c0.73-1,1.49-1.99,2.25-2.97
				c0.15,0.36,0.46,0.66,0.99,0.7c5.26,0.42,10.19,2.25,15.01,4.29C361.48,96.61,362.52,94.18,360.95,93.52z"/>
		</g>
		<linearGradient id="SVGID_3_" gradientUnits="userSpaceOnUse" x1="291.4167" y1="160.3725" x2="419.7886" y2="160.3725">
			<stop  offset="4.527000e-03" style="stop-color:#008DA2"/>
			<stop  offset="0.4104" style="stop-color:#1BABC0"/>
			<stop  offset="1" style="stop-color:#47DCF2"/>
		</linearGradient>
		<path class="st3" d="M291.84,205.12c6.75-7.24,12.52-14.95,19.67-21.66c-6.18-9.79-8.6-28.16-7.03-30.08
			c3.53-4.31,7.99,2.41,8.87,5.68c1.59,5.92,0.74,18.3-0.3,22.99c0.85-0.76,1.71-1.5,2.61-2.23c1.96-1.59,3.92-3.19,5.88-4.79
			c-1.83-3.47-6.09-10.65-3.72-22.35c0.4-1.96,1.11-4.53,3.2-5.29c2.9-1.05,3.12,2.2,3.19,4.26c0.13,3.53-0.24,15.65-0.1,21.29
			c3.92-3.2,7.86-6.4,11.8-9.58c-2.21-7.26-4.86-16.07-1.61-23.44c2.12-4.82,5.92-0.8,6.77,2.39c1.51,5.71,0.39,12.41-1.64,18.24
			c1.87-1.49,3.73-2.98,5.61-4.46c0.33-0.26,0.68-0.52,1.01-0.78c-1.39-3.47-3.11-6.67-3.24-10.54c-0.13-3.81,1.53-7.28,3.98-10.11
			c1.08-1.25,2.22-2.91,4.03-3.12c2.54-0.3,1.47,2.42,1,4.07c-1.01,3.52-1.85,7.17-2.47,10.76c-0.34,1.99-0.73,3.84-1.23,5.72
			c-0.13,0.49-0.21,1.16-0.29,1.86c2.69-2.06,5.42-4.07,8.2-6.04c-0.17-6.41-0.34-14.16,3.96-19.42c2.82-3.46,5.01,0.68,4.98,3.47
			c-0.05,4.33-1.86,8.82-4.28,12.73c1.23-0.83,2.46-1.65,3.7-2.46c2.11-7.21,4.61-16.17,11.32-20.47c4.27-2.74,5.19,2.61,4.18,5.66
			c-1,3.01-2.81,5.82-5.01,8.35c0.59-0.34,1.17-0.7,1.76-1.03c1.39-0.79,2.79-1.53,4.21-2.22c0.95-6.36,2.13-14.07,7.3-18.53
			c3.38-2.91,4.82,1.54,4.3,4.28c-0.82,4.35-3.5,8.55-6.65,12.03c2.22-0.92,4.47-1.76,6.73-2.56c1.57-5.01,3.5-11.05,8.22-13.99
			c3.1-1.93,3.7,1.85,2.94,4.01c-1.11,3.13-3.45,5.95-6.13,8.26c2.49-0.84,4.99-1.66,7.48-2.53c1.44-1.88,3.1-3.74,4.59-5.33
			c1.75-1.88,3.99-3.7,6.74-3.47c3.63,0.31,4.34,2.88,2.3,5.7c-0.93,1.29-2.17,2.15-3.57,2.76c1.41,0.26,2.72,0.8,3.59,1.62
			c2.39,2.23,0.2,4.39-2.39,4.88c-2.88,0.55-5.85-0.54-8.65-1.08c-2.07-0.4-4.26-0.2-6.34-0.39c-1.65,0.56-3.3,1.11-4.95,1.68
			c4.29-0.27,9.01,0.24,12.55,2.34c1.97,1.16,3.93,4.45,0.31,4.96c-5.8,0.81-11.43-3-15.97-5.91l-0.05-0.28
			c-4.63,1.66-9.19,3.48-13.6,5.83c1.48,0,2.94,0.15,4.32,0.5c2.52,0.64,5.72,3.59,1.94,5.31c-4.86,2.21-10.55,1.14-15.65-0.25
			c-4.59,2.87-9.1,5.9-13.52,9.05c4.81-1.69,10.29-2.61,15.01-1.43c2.7,0.68,6.14,3.85,2.08,5.69c-6.51,2.96-14.41,0.44-20.73-1.39
			l-0.08-0.17c-2.05,1.52-4.08,3.05-6.07,4.62c-0.97,0.76-1.91,1.54-2.87,2.3c6.59-2.47,14.03-3.98,20.34-2.64
			c3.61,0.76,8.08,4.77,2.52,7.4c-8.89,4.21-19.38,1.33-27.79-0.77c-2.74,2.24-5.47,4.5-8.21,6.74c6.53-0.23,20.05-1.51,24.44-1.56
			c2.06-0.02,6.88,0.46,5.72,3.77c-0.64,1.83-4.36,3.39-6.15,3.81c-3.99,0.95-18.66-0.41-28.24-2.57c-1.95,1.58-3.91,3.15-5.89,4.7
			c-0.73,0.57-1.45,1.15-2.15,1.74c9.64-1.19,28.6-2.24,33.17-0.74c2.32,0.76,5.92,2.61,5.35,5.57c-0.6,3.07-5.29,2.89-7.7,3.38
			c-5.55,1.14-23.11-1.84-26.28-2.86c-2.45-0.79-4.83-2.14-7.19-3.04c-1.57,1.41-3.07,2.87-4.53,4.35
			c7.58,1.56,24.92,3.93,30.35,5.13c2.47,0.55,8.1,2.49,5.79,6.12c-1.28,2.01-6.17,2.83-8.43,2.84
			c-4.79,0.02-20.51-5.17-31.39-10.21c-4.5,4.89-8.75,10-13.43,15.02C292.91,208.71,290.42,206.64,291.84,205.12z"/>
	</g>
	<g>
		<g>
			<g>
				<linearGradient id="SVGID_4_" gradientUnits="userSpaceOnUse" x1="147.0935" y1="126.1249" x2="86.427" y2="16.7916">
					<stop  offset="0" style="stop-color:#FFAE2A"/>
					<stop  offset="0.3827" style="stop-color:#FFCC16"/>
					<stop  offset="0.7627" style="stop-color:#FFE306"/>
					<stop  offset="1" style="stop-color:#FFEC00"/>
				</linearGradient>
				<path class="st4" d="M99.35,80.77c11.58-4.4,1.14-9.56-6.13-11.61c-5.88-1.66-20.6-4.38-14.63-14.41
					c6.26-10.51,12.25,2.47,17.23,3.94c11.13,3.28-0.45-10.68-3.22-14.4c-3.79-5.1-11.75-15.52-1.92-17.25
					c7.96-1.4,16.19,9.68,19.49,15.2c2.35,3.94,8.14,22.38,14.16,18.3c4.56-3.1-0.16-21.57,10.72-8.36
					c4.42,5.37,3.71,13.99,5.71,20.13c2.92,8.99,4.15,12.72,12.14,10.41c4.14-1.2,4.27-6.39,9.38-2.88c2.63,1.81,3.41,10.12,3.39,13
					c-0.2,26.51-10.8,44.26-15.8,46.55c-6.77,3.1-19.35-1.38-25.14-4.7c-2.88-1.65-8.13-4.38-7.76-8.58
					c0.42-4.7,7.68-4.03,7.94-6.79c0.76-7.83-13.65-0.35-17.64-1.47c-5.17-1.45-13.73-10.68-8.31-15.56
					c0.56-0.5,23.08-2.13,10.19-9.3c-7.13-3.97-14.78,7.05-21.66-0.78C77.61,80.95,95.01,82.42,99.35,80.77z"/>
			</g>
			<path class="st2" d="M101.27,84.94c4.97-2.1,10.12-4,15.53-4.46c-3.81-4.76-7.8-9.48-10.7-14.76c-0.82-1.49,1.62-2.52,2.43-1.04
				c0.35,0.64,0.75,1.27,1.13,1.9c0.42-1.62-0.08-4.03-0.23-5.32c-0.39-3.33-1.64-6.32-2.95-9.37c-0.67-1.56,1.76-2.61,2.43-1.04
				c1.7,3.96,3.04,7.74,3.34,12.07c0.15,2.13,0.27,4.43-0.96,6.19c4.1,6.08,9.2,11.68,13.47,17.58c1.83-2.89,3.17-5.91,3.78-9.34
				c0.67-3.73,0.22-7.53,0.6-11.29c0.17-1.69,2.8-1.37,2.62,0.33c-0.47,4.52,0.06,8.96-1.07,13.41c-0.86,3.36-2.39,6.33-4.3,9.2
				c4.91,7.1,9.45,14.48,13.17,22.27c1.24,2.59,2.37,5.23,3.46,7.88c2.47-3.69,4.51-7.53,5.93-11.77c0.79-2.36,1.67-4.85,1.98-7.32
				c0.24-1.87,0.04-3.63,0.78-5.41c0.65-1.57,3.11-0.59,2.45,0.98c-0.9,2.17-0.6,5-1.17,7.32c-0.55,2.24-1.24,4.47-2.01,6.64
				c-1.59,4.45-3.93,8.48-6.64,12.33c-0.04,0.06-0.09,0.08-0.13,0.13c1.85,4.59,3.65,9.19,5.71,13.68c0.16,0.13,0.31,0.29,0.41,0.53
				c0.2,0.5,0.59,1.2,0.72,1.81c3.67,9.27,7.37,18.53,10.92,27.84c0.6,1.59-1.82,2.63-2.43,1.04c-3.54-9.28-7.23-18.51-10.88-27.74
				c-0.02-0.04-0.05-0.06-0.07-0.11c-1.17-2.42-2.25-4.88-3.29-7.37c-4.81,1.22-10.16-0.18-14.64-1.98
				c-1.58-0.63-0.6-3.09,0.98-2.45c3.9,1.57,8.42,2.78,12.63,1.95c-2.31-5.68-4.49-11.42-7.13-16.96c-1.05-2.2-2.17-4.36-3.34-6.5
				c-0.09,0.06-0.16,0.13-0.27,0.18c-6.56,2.66-13.64,3.73-20.66,2.63c-1.68-0.26-1.36-2.89,0.33-2.62
				c6.58,1.03,13.14,0.06,19.29-2.43c0.01-0.01,0.02,0,0.04-0.01c-3.61-6.3-7.68-12.34-11.96-18.21c-0.73-1-1.49-1.99-2.25-2.97
				c-0.15,0.36-0.46,0.66-0.99,0.7c-5.26,0.42-10.19,2.25-15.01,4.29C100.74,88.03,99.7,85.6,101.27,84.94z"/>
		</g>
		<linearGradient id="SVGID_5_" gradientUnits="userSpaceOnUse" x1="42.4343" y1="151.7953" x2="170.8062" y2="151.7953">
			<stop  offset="4.527000e-03" style="stop-color:#008DA2"/>
			<stop  offset="0.4104" style="stop-color:#1BABC0"/>
			<stop  offset="1" style="stop-color:#47DCF2"/>
		</linearGradient>
		<path class="st5" d="M170.38,196.54c-6.75-7.24-12.52-14.95-19.67-21.66c6.18-9.79,8.6-28.16,7.03-30.08
			c-3.53-4.31-7.99,2.41-8.87,5.68c-1.59,5.92-0.74,18.3,0.3,22.99c-0.85-0.76-1.71-1.5-2.61-2.23c-1.96-1.59-3.92-3.19-5.88-4.79
			c1.83-3.47,6.09-10.65,3.72-22.35c-0.4-1.96-1.11-4.53-3.2-5.29c-2.9-1.05-3.12,2.2-3.19,4.26c-0.13,3.53,0.24,15.65,0.1,21.29
			c-3.92-3.2-7.86-6.4-11.8-9.58c2.21-7.26,4.86-16.07,1.61-23.44c-2.12-4.82-5.92-0.8-6.77,2.39c-1.51,5.71-0.39,12.41,1.64,18.24
			c-1.87-1.49-3.73-2.98-5.61-4.46c-0.33-0.26-0.68-0.52-1.01-0.78c1.39-3.47,3.11-6.67,3.24-10.54c0.13-3.81-1.53-7.28-3.98-10.11
			c-1.08-1.25-2.22-2.91-4.03-3.12c-2.54-0.3-1.47,2.42-1,4.07c1.01,3.52,1.85,7.17,2.47,10.76c0.34,1.99,0.73,3.84,1.23,5.72
			c0.13,0.49,0.21,1.16,0.29,1.86c-2.69-2.06-5.42-4.07-8.2-6.04c0.17-6.41,0.34-14.16-3.96-19.42c-2.82-3.46-5.01,0.68-4.98,3.47
			c0.04,4.33,1.86,8.82,4.28,12.73c-1.23-0.83-2.46-1.65-3.7-2.46c-2.11-7.21-4.61-16.17-11.32-20.47
			c-4.27-2.74-5.19,2.61-4.18,5.66c1,3.01,2.81,5.82,5.01,8.35c-0.59-0.34-1.17-0.7-1.76-1.03c-1.39-0.79-2.79-1.53-4.21-2.22
			c-0.95-6.36-2.13-14.07-7.3-18.53c-3.38-2.91-4.82,1.54-4.3,4.28c0.82,4.35,3.5,8.55,6.65,12.03c-2.22-0.92-4.47-1.76-6.73-2.56
			c-1.57-5.01-3.5-11.05-8.22-13.99c-3.1-1.93-3.7,1.85-2.94,4.01c1.11,3.13,3.45,5.95,6.13,8.26c-2.49-0.84-4.99-1.66-7.48-2.53
			c-1.44-1.88-3.1-3.74-4.59-5.33c-1.75-1.88-3.99-3.7-6.74-3.47c-3.63,0.31-4.34,2.88-2.3,5.7c0.93,1.29,2.17,2.15,3.57,2.76
			c-1.41,0.26-2.72,0.8-3.59,1.62c-2.39,2.23-0.2,4.39,2.39,4.88c2.88,0.55,5.85-0.54,8.65-1.08c2.07-0.4,4.26-0.2,6.34-0.39
			c1.65,0.56,3.3,1.11,4.95,1.68c-4.29-0.27-9.01,0.24-12.55,2.34c-1.97,1.16-3.93,4.45-0.31,4.96c5.8,0.81,11.43-3,15.97-5.91
			l0.05-0.28c4.63,1.66,9.19,3.48,13.6,5.83c-1.48,0-2.94,0.15-4.32,0.5c-2.52,0.64-5.72,3.59-1.94,5.31
			c4.86,2.21,10.55,1.14,15.65-0.25c4.59,2.87,9.1,5.9,13.52,9.05c-4.81-1.69-10.29-2.61-15.01-1.43c-2.7,0.68-6.14,3.85-2.08,5.69
			c6.51,2.96,14.41,0.44,20.73-1.39l0.08-0.17c2.05,1.52,4.08,3.05,6.07,4.62c0.97,0.76,1.91,1.54,2.87,2.3
			c-6.59-2.47-14.03-3.98-20.34-2.64c-3.61,0.76-8.08,4.77-2.52,7.4c8.89,4.21,19.38,1.33,27.79-0.77c2.74,2.24,5.47,4.5,8.21,6.74
			c-6.53-0.23-20.05-1.51-24.44-1.56c-2.06-0.02-6.88,0.46-5.72,3.77c0.64,1.83,4.36,3.39,6.15,3.81
			c3.99,0.95,18.66-0.41,28.24-2.57c1.95,1.58,3.91,3.15,5.89,4.7c0.73,0.57,1.45,1.15,2.15,1.74c-9.64-1.19-28.6-2.24-33.17-0.74
			c-2.32,0.76-5.92,2.61-5.35,5.57c0.6,3.07,5.29,2.89,7.7,3.38c5.55,1.14,23.11-1.84,26.28-2.86c2.45-0.79,4.83-2.14,7.19-3.04
			c1.57,1.41,3.07,2.87,4.53,4.35c-7.58,1.56-24.92,3.93-30.35,5.13c-2.47,0.55-8.1,2.49-5.79,6.12c1.28,2.01,6.17,2.83,8.43,2.84
			c4.79,0.02,20.51-5.17,31.39-10.21c4.5,4.89,8.75,10,13.43,15.02C169.31,200.13,171.8,198.07,170.38,196.54z"/>
	</g>
	<g>
		<g>
			<linearGradient id="SVGID_6_" gradientUnits="userSpaceOnUse" x1="163.5843" y1="277.9784" x2="262.0843" y2="153.9782">
				<stop  offset="1.943110e-03" style="stop-color:#574DFF"/>
				<stop  offset="0.1796" style="stop-color:#6A6DFF"/>
				<stop  offset="0.4238" style="stop-color:#8093FF"/>
				<stop  offset="0.6499" style="stop-color:#90AFFF"/>
				<stop  offset="0.8491" style="stop-color:#9ABFFF"/>
				<stop  offset="1" style="stop-color:#9DC5FF"/>
			</linearGradient>
			<path class="st6" d="M324.02,196.5c0,18.32-10.46,34.93-27.41,47.06c-1.41,1-2.85,1.99-4.35,2.92c-0.88,0.55-1.75,1.08-2.66,1.59
				c-0.28,0.19-0.56,0.34-0.86,0.52c-1.66,0.95-3.35,1.86-5.1,2.72c-1.31,0.66-2.66,1.28-4.02,1.88c-2,0.91-4.05,1.75-6.14,2.53
				c-3.22,1.24-6.57,2.33-10.02,3.27c-0.34,0.11-0.7,0.2-1.05,0.3c-3.83,1.03-7.79,1.89-11.85,2.55c-3.1,0.53-6.27,0.94-9.47,1.25
				c-2.08,0.19-4.17,0.34-6.29,0.42c-0.3,0.02-0.58,0.03-0.88,0.05c-1.86,0.09-3.74,0.13-5.63,0.13h-1.13
				c-52.33-0.42-94.58-30.33-94.58-67.18c0-37.09,42.86-67.15,95.7-67.15C281.16,129.34,324.02,159.41,324.02,196.5z"/>
			<linearGradient id="SVGID_7_" gradientUnits="userSpaceOnUse" x1="224.2621" y1="202.1883" x2="353.7622" y2="20.1881">
				<stop  offset="1.943110e-03" style="stop-color:#574DFF"/>
				<stop  offset="0.1796" style="stop-color:#6A6DFF"/>
				<stop  offset="0.4238" style="stop-color:#8093FF"/>
				<stop  offset="0.6499" style="stop-color:#90AFFF"/>
				<stop  offset="0.8491" style="stop-color:#9ABFFF"/>
				<stop  offset="1" style="stop-color:#9DC5FF"/>
			</linearGradient>
			<path class="st7" d="M291.42,196.5c0,12.08-6.9,23.03-18.07,31.03c-0.93,0.66-1.88,1.31-2.87,1.93
				c-0.58,0.36-1.15,0.71-1.75,1.05c-0.19,0.12-0.37,0.23-0.57,0.34c-1.09,0.63-2.21,1.23-3.36,1.79c-0.87,0.43-1.75,0.85-2.65,1.24
				c-1.32,0.6-2.67,1.15-4.05,1.67c-2.12,0.81-4.33,1.54-6.61,2.15c-0.23,0.07-0.46,0.13-0.69,0.2c-2.53,0.68-5.13,1.25-7.81,1.68
				c-2.04,0.35-4.13,0.62-6.25,0.82c-1.37,0.12-2.75,0.23-4.14,0.28c-0.2,0.01-0.38,0.02-0.58,0.03c-1.23,0.06-2.46,0.08-3.71,0.08
				h-0.74c-34.51-0.28-62.36-20-62.36-44.3c0-24.45,28.26-44.28,63.11-44.28C263.16,152.22,291.42,172.05,291.42,196.5z"/>
			<polygon class="st8" points="244.63,183.92 271.82,203.04 275.62,202.54 249.12,183.92 			"/>
			<polygon class="st8" points="242.15,206.74 269.34,225.85 273.13,225.36 246.64,206.74 			"/>
			<g>
				<path class="st9" d="M272.56,185.07l-2.82,13.24l-0.52,2.42l-23.91-16.8l3.38-15.04l-4.93-4.12l-16.21,76.04h0.74
					c1.25,0,2.48-0.02,3.71-0.08c0.2-0.01,0.38-0.02,0.58-0.03l1.68-7.51l8.71,6.4c2.68-0.43,5.29-1,7.81-1.68
					c0.23-0.06,0.46-0.12,0.69-0.2l-15.75-11.07l3.3-14.67l24.03,17.64l-0.92,4.28c0.9-0.39,1.78-0.8,2.65-1.24
					c1.15-0.57,2.84-1.51,3.93-2.13l8.76-41.32L272.56,185.07z M264.61,222.37l-24.1-16.95l3.34-14.97l23.84,17.51L264.61,222.37z"
					/>
				<path class="st8" d="M281.44,189.19l-8.09,38.34c-0.93,0.66-1.88,1.31-2.87,1.93c-0.58,0.36-1.15,0.71-1.75,1.05l8.76-41.32
					H281.44z"/>
				<polygon class="st8" points="277.48,189.19 272.56,185.07 276.51,185.07 281.44,189.19 				"/>
				<polygon class="st8" points="248.69,168.88 252.64,168.88 247.72,164.75 243.77,164.75 				"/>
				<polygon class="st8" points="248.69,168.88 252.64,168.88 249.27,183.92 245.32,183.92 				"/>
			</g>
		</g>
		<g>
			<defs>
				<path id="SVGID_8_" d="M293.02,195.04c-2.87,12.14-7.03,23.79-18.42,32.05c-0.95,0.68-1.91,1.35-2.92,1.99
					c-0.59,0.37-1.18,0.73-1.79,1.09c-0.19,0.13-0.38,0.23-0.58,0.35c-1.11,0.65-2.25,1.27-3.43,1.85c-0.88,0.45-1.79,0.87-2.7,1.28
					c-1.35,0.62-2.72,1.19-4.13,1.73c-2.16,0.84-4.41,1.59-6.74,2.23c-0.23,0.07-0.47,0.14-0.7,0.2c-2.57,0.7-5.23,1.29-7.97,1.74
					c-2.08,0.36-4.21,0.64-6.37,0.85c-1.4,0.13-2.81,0.23-4.22,0.29c-0.2,0.01-0.39,0.02-0.59,0.03c-1.25,0.06-2.51,0.09-3.78,0.09
					h-0.76c-35.17-0.29-62.15-20.7-63.57-45.76c-3.16-55.76,34.39-95.88,69.91-95.88C269.8,99.16,306.6,137.53,293.02,195.04z"/>
			</defs>
			<clipPath id="SVGID_9_">
				<use xlink:href="#SVGID_8_"  style="overflow:visible;"/>
			</clipPath>
			<g class="st10">
				<g>
					<path class="st11" d="M248.28,131.77c-1.64-5.32-5-9.6-7.61-14.42c-0.67-1.24-1.49-2.43-2.1-3.71
						c-0.24-0.51-1.51-2.99-2.82-5.54c-1.82-3.54-5.71-5.08-9.18-3.63l0,0c-2.09,0.87-3.73,2.71-4.49,5.03
						c-1.22,3.75-3.67,8.7-5.04,10.29c-2.54,2.95-5.64,5.77-7.53,9.28c-1.09,2.03-1.1,4.3-1.72,6.49c0.63-1.89,2.82-3.37,4.31-4.47
						c0.22,1.65-0.64,4.11-0.81,5.81c-0.28,2.81,0.13,5.42,1.05,8.05c2.06,5.88,6.26,9.9,9.65,14.88c0.8,1.17,1.33,2.44,2.21,3.56
						c0.31,0.39,0.86,1.4,1.32,1.38c0.64-0.02,2.25-2.12,2.69-2.54c4.24-4.1,9.64-6.55,12.74-11.87c2.08-3.57,2.68-7.57,4.07-11.37
						c0.74,2.14,0.43,4.57,1,6.74C247.9,141.15,249.78,136.66,248.28,131.77z"/>
				</g>
				<g>
					<path class="st12" d="M239.79,285.65c0,0-6.66,2.92-4.06,6.11c3.55,2.13,8.04,4.54,9.66,7.22c1.17,1.92,3.49,2.83,5.72,2.5
						c0.25-0.04,0.4-0.07,0.4-0.07c1.02,0.74,2.51,0.07,2.53-1.18c0.04-1.99-1.35-5.37-7.81-10.43L239.79,285.65z"/>
					<linearGradient id="SVGID_10_" gradientUnits="userSpaceOnUse" x1="242.2309" y1="276.6667" x2="242.2309" y2="192.2207">
						<stop  offset="1.302000e-03" style="stop-color:#FF2C6E"/>
						<stop  offset="0.1454" style="stop-color:#F7296B"/>
						<stop  offset="0.365" style="stop-color:#E22261"/>
						<stop  offset="0.6328" style="stop-color:#C01552"/>
						<stop  offset="0.936" style="stop-color:#90043D"/>
						<stop  offset="1" style="stop-color:#850038"/>
					</linearGradient>
					<path class="st13" d="M256.96,211.96L256.96,211.96C256.96,211.96,256.96,211.96,256.96,211.96c-0.84-1.19-1.65-2.22-2.38-3.11
						c-1.7-2.62-2.57-5.26-2.11-7.93l-23.35-0.13L218,199.23c0.14,0.5,0.27,1,0.41,1.5l-0.01,0c0,0-0.87,5.91,4.48,18.95
						c7.04,35.58,6.91,72.27,1.45,111.06l7.67,0.24c9.71-42.03,10.22-79.57,6.99-114.93l0.44-0.1
						c21.32,22.51,13.09,45.07,0.15,70.32l6.06,4.96C277.43,252.18,265.6,224.18,256.96,211.96z"/>
					<path class="st12" d="M224.36,329.97c0,0-4.76,4.44-0.89,5.84l19.05,1.64c1.25,0.11,2.19-1.23,1.56-2.32
						c-0.99-1.73-3.92-3.91-12.07-4.92L224.36,329.97z"/>
				</g>
				<g>
					<linearGradient id="SVGID_11_" gradientUnits="userSpaceOnUse" x1="261.3476" y1="194" x2="261.3476" y2="123.3209">
						<stop  offset="0" style="stop-color:#FFAE2A"/>
						<stop  offset="0.3827" style="stop-color:#FFCC16"/>
						<stop  offset="0.7627" style="stop-color:#FFE306"/>
						<stop  offset="1" style="stop-color:#FFEC00"/>
					</linearGradient>
					<path class="st14" d="M244.07,139.87c-1.5,1.1-1.55,3.06-1.3,4.59c0.17,1.05,0.53,2.04,1,2.99c1.57,3.17,7.4,14.58,11.97,19.1
						c2.01,1.99,5.09,2.36,7.52,0.92c5.37-3.2,14.36-8.8,16.78-11.77c-0.33-0.43-0.21-0.29-0.65-0.85
						c-0.44-0.55-1.36-1.84-1.96-2.49c-3.39,2.72-16.53,5.12-16.53,5.12s-7.71-11.54-9.33-16.11
						C250.6,138.82,247.88,137.07,244.07,139.87z"/>
					<path class="st15" d="M280.04,155.69c4.43-2.37,8.04-5.28,9.05-10.5c0.18-0.92-1.54-1.96-2.92-1.02
						c-1.38,0.94-3.41,3.24-4.15,5.07c-0.19-0.68,0.14-1.89-0.09-2.5c-0.22-0.61-0.37-1.49-1.49-0.52
						c-1.12,0.98-2.54,4.26-2.96,6.08C278.29,153.49,279.2,154.52,280.04,155.69z"/>
				</g>
				<g>
					<linearGradient id="SVGID_12_" gradientUnits="userSpaceOnUse" x1="211.1483" y1="194.0001" x2="211.1483" y2="123.3207">
						<stop  offset="0" style="stop-color:#FFAE2A"/>
						<stop  offset="0.3827" style="stop-color:#FFCC16"/>
						<stop  offset="0.7627" style="stop-color:#FFE306"/>
						<stop  offset="1" style="stop-color:#FFEC00"/>
					</linearGradient>
					<path class="st16" d="M229.27,139.14c1.38,1.24,1.24,3.2,0.84,4.7c-0.27,1.02-0.73,1.98-1.29,2.88
						c-1.88,3-8.8,13.78-13.79,17.83c-2.19,1.78-5.3,1.85-7.57,0.17c-5.03-3.72-13.42-10.17-15.54-13.36
						c0.37-0.39,0.24-0.27,0.73-0.78c0.49-0.51,1.53-1.7,2.19-2.29c3.11,3.04,15.95,6.72,15.95,6.72s8.81-10.73,10.87-15.12
						C222.87,137.45,225.75,135.98,229.27,139.14z"/>
					<path class="st15" d="M191.92,151.35c-4.17-2.8-7.48-6.04-7.98-11.33c-0.09-0.93,1.72-1.8,3-0.73
						c1.28,1.07,3.07,3.56,3.63,5.45c0.26-0.66,0.05-1.89,0.33-2.48c0.28-0.58,0.52-1.45,1.54-0.37c1.02,1.08,2.11,4.49,2.35,6.34
						C193.87,149.33,192.86,150.27,191.92,151.35z"/>
				</g>
				<linearGradient id="SVGID_13_" gradientUnits="userSpaceOnUse" x1="234.2792" y1="194" x2="234.2792" y2="123.3208">
					<stop  offset="0" style="stop-color:#FFAE2A"/>
					<stop  offset="0.3827" style="stop-color:#FFCC16"/>
					<stop  offset="0.7627" style="stop-color:#FFE306"/>
					<stop  offset="1" style="stop-color:#FFEC00"/>
				</linearGradient>
				<path class="st17" d="M253.22,203.09c-2.82,1.92-5.93,3.1-9.25,3.71c-8.99,1.65-19.36-0.89-28.62-4.52c0,0,1.59-5.78,4-11.05
					c2.73-6.03,5.98-11.91,5.65-18.7c-0.16-3.17-1.16-6.46-2.34-9.35c-0.97-2.35-1.31-4.73-0.9-7.25c0.3-1.87,0.88-3.69,1.25-5.54
					c0.58-3.13,4.43-12.56,4.43-12.56l2.11,1.01l2.25,1.06c0.45-0.05,1.43-0.36,1.64-0.79c0.03-0.06,0.05-0.12,0.05-0.19l-0.07-1.32
					l7.01,0.09l0.11,1.1c0.09,0.82-0.04,1.45,0.83,1.49c0.68,0.03,1.52-0.18,2.32-0.45c1.31-0.45,2.51-1.08,2.68-1.07
					c0.04,0,4.93,17.33,4.12,21.73c-0.93,5.11-3.55,8.9-4.08,14.24c-0.17,1.64,0.15,4.28,0.68,5.83
					C250.29,190.25,253.22,203.09,253.22,203.09z"/>
				<path class="st15" d="M236.74,152.16c0,0-7.72,0.24-7.2-13.33l2.25,1.06c0.45-0.05,1.43-0.36,1.64-0.79
					c0.03-0.06,0.05-0.12,0.05-0.19l-0.07-1.32l7.01,0.09l0.11,1.1c0.09,0.82-0.04,1.45,0.83,1.49c0.68,0.03,1.52-0.18,2.32-0.45
					C244.48,145.84,241.62,152,236.74,152.16z"/>
				<path class="st18" d="M233.48,138.91c3.13,0.76,5.32,0.18,6.93-1.24l-0.38-5.3l-7.02,1.62L233.48,138.91z"/>
				<path class="st15" d="M248.43,119.61c-0.47-0.04-1.01,0.13-1.54,0.43c-0.68-3.16-2.34-6.52-4.39-8.84
					c-0.86-1.15-1.85-1.9-2.94-2.36c-0.59-0.29-1.18-0.48-1.77-0.54c-0.41-0.04-0.81-0.05-1.21-0.05c-0.4-0.01-0.8,0-1.21,0.04
					c-0.59,0.05-1.19,0.23-1.78,0.51c-1.09,0.44-2.09,1.18-2.96,2.32c-2.08,2.29-3.78,5.63-4.49,8.78
					c-0.53-0.31-1.06-0.49-1.54-0.45c-1.59,0.13-2.12,2.61-1.69,4.5c0.54,2.39,2.36,3.15,4.05,3.64c0.77,1.59,1.85,3.14,3.11,4.45
					c1.32,1.55,3.02,2.71,4.96,3.19c0.06,0.02,0.11,0.03,0.17,0.04c0.11,0.03,0.22,0.06,0.34,0.08c0.08,0.01,0.16,0.01,0.23,0.02
					c0.07,0.01,0.13,0.01,0.2,0.02c0.15,0.01,0.3,0.02,0.45,0.02c0.15,0,0.3-0.01,0.45-0.02c0.07-0.01,0.13-0.01,0.2-0.02
					c0.08-0.01,0.16-0.01,0.23-0.02c0.12-0.02,0.23-0.05,0.34-0.08c0.06-0.01,0.11-0.02,0.17-0.04c1.95-0.45,3.67-1.59,5-3.12
					c1.27-1.29,2.38-2.83,3.16-4.4c1.69-0.46,3.52-1.2,4.09-3.59C250.52,122.25,250.01,119.76,248.43,119.61z"/>
				<g>
					<g>
						<g>
							<g>
								<path class="st11" d="M231.83,123.37c0.03,0.53,0.49,0.94,1.03,0.9c0.53-0.03,0.94-0.49,0.91-1.02
									c-0.03-0.53-0.49-0.94-1.03-0.9C232.2,122.38,231.79,122.83,231.83,123.37z"/>
							</g>
						</g>
						<g>
							<g>
								<path class="st11" d="M239.68,123.42c0.03,0.53,0.49,0.94,1.03,0.9c0.53-0.03,0.94-0.49,0.91-1.02
									c-0.03-0.53-0.49-0.94-1.03-0.9C240.05,122.43,239.65,122.89,239.68,123.42z"/>
							</g>
						</g>
						<g>
							<g>
								<path class="st11" d="M230.86,121.54c-0.01,0-0.02-0.01-0.03-0.01c-0.14-0.06-0.21-0.23-0.15-0.37
									c0.76-1.7,2.32-1.63,3.05-1.36c0.15,0.06,0.22,0.22,0.17,0.36c-0.06,0.15-0.2,0.22-0.37,0.16
									c-0.05-0.02-1.59-0.57-2.32,1.07C231.15,121.52,231,121.59,230.86,121.54z"/>
							</g>
						</g>
						<g>
							<g>
								<path class="st11" d="M239.17,119.23c-0.01-0.01-0.01-0.02-0.02-0.03c-0.07-0.14-0.01-0.31,0.13-0.38
									c1.68-0.84,2.85,0.2,3.23,0.86c0.08,0.14,0.03,0.31-0.11,0.38c-0.14,0.08-0.3,0.04-0.39-0.1c-0.03-0.05-0.86-1.44-2.48-0.64
									C239.41,119.39,239.25,119.35,239.17,119.23z"/>
							</g>
						</g>
						<g>
							<g>
								<path class="st11" d="M233.35,128.67c-0.01-0.01-0.01-0.02-0.02-0.03c-0.09-0.17-0.02-0.38,0.16-0.47
									c2.07-1.03,3.49,0.24,3.97,1.06c0.1,0.17,0.04,0.38-0.13,0.47c-0.17,0.1-0.37,0.05-0.48-0.13
									c-0.03-0.06-1.06-1.77-3.04-0.78C233.64,128.87,233.45,128.82,233.35,128.67z"/>
							</g>
						</g>
						<g>
							<path class="st11" d="M237.5,127.36c-0.15,0-0.28-0.12-0.28-0.27c0-0.15,0.12-0.27,0.28-0.27c0.01,0,0.53-0.01,0.67-0.29
								c0.06-0.13,0.13-0.53-0.64-1.49c-0.09-0.12-0.07-0.29,0.05-0.39c0.12-0.09,0.29-0.07,0.39,0.05c0.72,0.89,0.95,1.57,0.7,2.07
								C238.38,127.35,237.54,127.36,237.5,127.36L237.5,127.36z"/>
						</g>
					</g>
				</g>
				<g>
					<path class="st11" d="M247.76,113.67c-0.74-3.25-3.25-6.23-6.69-7.4c-3.38-1.15-7.72-0.91-10.8,0.86
						c-3.89,2.24-6.75,7.81-4.75,12.29c0.64,1.43,1.11,3.55,2.25,4.67c0.53-1.64,0.23-3.43,0.9-4.98c1.21-0.19,2.44-0.59,3.56-0.98
						c1.7-0.59,3.46-1.7,4.83-2.86c1.11-0.94,1.84-1.94,2.66-3.09c-0.65,1.4,0.36,4.02,1.33,5.07c0.85,0.91,2.14,1.23,3,2.19
						c0.73,0.82,0.94,1.83,0.98,2.91c0.03,0.89-0.08,1.77-0.33,2.6c0.08-0.28,0.66-0.71,0.84-0.98c0.29-0.41,0.53-0.85,0.75-1.3
						c0.44-0.92,0.77-1.91,0.98-2.91C247.68,117.92,248.15,115.43,247.76,113.67z"/>
				</g>
			</g>
		</g>
	</g>
	<text transform="matrix(1 0 0 1 176.2036 89.2757)" class="st19 st20 st21">OOPS!</text>
	<text transform="matrix(1 0 0 1 137.8006 288.5934)" class="st19 st20 st22">We can´t find the page :(</text>
	<g>
		
			<linearGradient id="SVGID_14_" gradientUnits="userSpaceOnUse" x1="346.9548" y1="284.4969" x2="431.9587" y2="161.9913" gradientTransform="matrix(0.9962 -0.0868 0.0868 0.9962 -18.8833 33.6223)">
			<stop  offset="1.943110e-03" style="stop-color:#574DFF"/>
			<stop  offset="0.1796" style="stop-color:#6A6DFF"/>
			<stop  offset="0.4238" style="stop-color:#8093FF"/>
			<stop  offset="0.6499" style="stop-color:#90AFFF"/>
			<stop  offset="0.8491" style="stop-color:#9ABFFF"/>
			<stop  offset="1" style="stop-color:#9DC5FF"/>
		</linearGradient>
		<path class="st23" d="M424.74,229.26l19.34-60.57l-46.05-3.9l-72.83,56.88l-6.84,17.3l66.65,8.38l-4.67,14.75l-1.88,5.91
			l33.69,3.21l6.65-19.47l15.89,0.82l7.37-21.3l-11.24-1.3L424.74,229.26z M396.06,211.19l-4.64,13.94l-10.98-1.3l-17.89-2.12
			l41.06-33.24L396.06,211.19z"/>
		
			<linearGradient id="SVGID_15_" gradientUnits="userSpaceOnUse" x1="430.3238" y1="175.5468" x2="598.8317" y2="-63.9641" gradientTransform="matrix(0.9962 -0.0868 0.0868 0.9962 -18.8833 33.6223)">
			<stop  offset="1.943110e-03" style="stop-color:#574DFF"/>
			<stop  offset="0.1796" style="stop-color:#6A6DFF"/>
			<stop  offset="0.4238" style="stop-color:#8093FF"/>
			<stop  offset="0.6499" style="stop-color:#90AFFF"/>
			<stop  offset="0.8491" style="stop-color:#9ABFFF"/>
			<stop  offset="1" style="stop-color:#9DC5FF"/>
		</linearGradient>
		<path class="st24" d="M318.36,238.98l1.35,15.51l60.63,7.62l4.67-14.75L318.36,238.98z M362.55,221.72l17.89,2.12l15.62-12.65
			l7.55-22.72L362.55,221.72z M434.68,252.58l-15.89-0.82l-6.65,19.47l-33.69-3.21l1.35,15.51l33.69,3.21l6.65-19.47l15.89,0.82
			l7.37-21.3l-1.35-15.51L434.68,252.58z M424.74,229.26l6.07,0.71l14.61-45.77l-1.35-15.51L424.74,229.26z"/>
	</g>
	<g>
		<linearGradient id="SVGID_16_" gradientUnits="userSpaceOnUse" x1="40.8303" y1="269.562" x2="102.8304" y2="172.062">
			<stop  offset="1.943110e-03" style="stop-color:#574DFF"/>
			<stop  offset="0.1796" style="stop-color:#6A6DFF"/>
			<stop  offset="0.4238" style="stop-color:#8093FF"/>
			<stop  offset="0.6499" style="stop-color:#90AFFF"/>
			<stop  offset="0.8491" style="stop-color:#9ABFFF"/>
			<stop  offset="1" style="stop-color:#9DC5FF"/>
		</linearGradient>
		<path class="st25" d="M108.94,220.94l15.11-61.76l-46.21-0.71L9.12,220.24l-5.63,17.73l67.07,3.76l-3.65,15.04l-1.47,6.03
			l33.83,0.88l5.29-19.88l15.91-0.28l5.89-21.76l-11.3-0.52L108.94,220.94z M79.09,204.89l-3.67,14.23l-11.04-0.54l-17.99-0.88
			l38.67-36L79.09,204.89z"/>
		<linearGradient id="SVGID_17_" gradientUnits="userSpaceOnUse" x1="220.2439" y1="25.1978" x2="388.7439" y2="-214.3019">
			<stop  offset="1.943110e-03" style="stop-color:#574DFF"/>
			<stop  offset="0.1796" style="stop-color:#6A6DFF"/>
			<stop  offset="0.4238" style="stop-color:#8093FF"/>
			<stop  offset="0.6499" style="stop-color:#90AFFF"/>
			<stop  offset="0.8491" style="stop-color:#9ABFFF"/>
			<stop  offset="1" style="stop-color:#9DC5FF"/>
		</linearGradient>
		<path class="st26" d="M3.49,237.97l2.42,15.38l61.01,3.42l3.65-15.04L3.49,237.97z M46.38,217.71l17.99,0.88l14.71-13.69
			l5.97-23.18L46.38,217.71z M120.47,243.51l-15.91,0.28l-5.29,19.88l-33.83-0.88l2.42,15.38l33.83,0.88l5.29-19.88l15.91-0.28
			l5.89-21.76l-2.42-15.38L120.47,243.51z M108.94,220.94l6.11,0.29l11.42-46.67l-2.42-15.38L108.94,220.94z"/>
	</g>
</g>
<g id="DESIGNED_BY_FREEPIK">
</g>
</svg>
