<svg width="129" height="129" viewBox="0 0 129 129" fill="none" xmlns="http://www.w3.org/2000/svg">
<g clip-path="url(#clip0)">
<path d="M9.57335 15.5815C9.36261 15.4305 8.91104 15.6721 8.57988 16.1552C8.24873 16.6081 8.15841 17.1215 8.39925 17.2725C8.54978 17.3631 8.76051 17.3027 9.00135 17.1215C9.69377 17.4839 11.5302 18.5407 12.3731 19.4466L12.8247 18.8427C12.8247 18.8427 10.4163 17.0611 9.63356 16.1854C9.72387 15.8834 9.72387 15.6721 9.57335 15.5815Z" fill="white"/>
<path d="M9.27227 15.7626C9.12174 16.2156 8.91101 16.6383 8.57985 17.0007C8.48954 17.0913 8.64006 17.2423 8.73038 17.1517C9.09164 16.7591 9.33248 16.3062 9.483 15.823C9.51311 15.7023 9.33248 15.6419 9.27227 15.7626Z" fill="#826F58"/>
<path d="M6.80371 21.5906C6.53276 21.651 6.41234 22.1341 6.53276 22.7079C6.65318 23.2514 6.95423 23.6742 7.19507 23.6138C7.3456 23.5836 7.46602 23.3722 7.49612 23.0702C8.24875 22.8287 10.2658 22.2247 11.5001 22.2247L11.3797 21.4698C11.3797 21.4698 8.42938 21.9832 7.25528 21.9228C7.13486 21.6812 6.98434 21.5604 6.80371 21.5906Z" fill="white"/>
<path d="M6.77359 21.8624C6.98433 22.2851 7.10475 22.7381 7.13485 23.2212C7.13485 23.342 7.34559 23.342 7.34559 23.2212C7.31548 22.7079 7.19506 22.2247 6.95422 21.7718C6.89401 21.6208 6.71338 21.7416 6.77359 21.8624Z" fill="#826F58"/>
<path d="M8.73038 27.177C8.54975 27.3581 8.70027 27.8413 9.09164 28.264C9.483 28.6566 9.96468 28.8378 10.1453 28.6566C10.2657 28.5358 10.2356 28.2942 10.1152 28.0527C10.5969 27.4487 11.9817 25.8483 13.0354 25.184L12.5236 24.6103C12.5236 24.6103 10.3259 26.6334 9.30237 27.2374C9.09164 27.0864 8.8508 27.0562 8.73038 27.177Z" fill="white"/>
<path d="M8.94099 27.4487C9.30225 27.6903 9.63341 28.0225 9.90435 28.3848C9.99467 28.5056 10.1452 28.3848 10.085 28.2942C9.81404 27.9017 9.45278 27.5695 9.06141 27.2978C8.94099 27.177 8.82057 27.3582 8.94099 27.4487Z" fill="#826F58"/>
<path d="M15.9856 30.3778C15.9555 30.6496 15.4738 30.8308 14.9319 30.7704C14.3599 30.71 13.9385 30.4684 13.9385 30.1966C13.9385 30.0154 14.1492 29.8947 14.4503 29.8343C14.6008 29.0794 14.962 26.9656 14.8416 25.7577L15.5943 25.7879C15.5943 25.7879 15.4136 28.7774 15.5943 29.9551C15.8351 30.0456 16.0157 30.2268 15.9856 30.3778Z" fill="white"/>
<path d="M14.2393 30.3174C14.6908 30.2268 15.1725 30.2268 15.6241 30.3476C15.7445 30.3778 15.8047 30.1966 15.6843 30.1362C15.2026 30.0155 14.6908 30.0155 14.2092 30.106C14.0586 30.1362 14.1189 30.3476 14.2393 30.3174Z" fill="#826F58"/>
<path d="M21.5554 28.6868C21.7059 28.8982 21.4349 29.3511 20.9533 29.6531C20.4716 29.9551 19.9899 30.0456 19.8394 29.8343C19.7491 29.6833 19.8093 29.4719 20.02 29.2303C19.6587 28.5358 18.6653 26.6636 17.7922 25.7879L18.4244 25.335C18.4244 25.335 20.1404 27.7809 21.0135 28.5962C21.2543 28.5056 21.4651 28.5358 21.5554 28.6868Z" fill="white"/>
<path d="M20.0802 29.6833C20.4415 29.3209 20.863 29.0492 21.3446 28.868C21.4651 28.8378 21.4048 28.6264 21.2844 28.6566C20.7726 28.8378 20.3211 29.1096 19.9297 29.5021C19.8394 29.6531 19.9899 29.8041 20.0802 29.6833Z" fill="#826F58"/>
<path d="M23.7528 24.9122C23.9936 25.033 23.9334 25.5463 23.6324 26.0295C23.3313 26.5126 22.9399 26.8146 22.6991 26.6636C22.5486 26.573 22.5185 26.3315 22.5787 26.0597C21.9465 25.6067 20.2305 24.3687 19.0564 23.9761L19.4177 23.3118C19.4177 23.3118 22.0368 24.7612 23.1507 25.0934C23.4216 24.9122 23.6324 24.8518 23.7528 24.9122Z" fill="white"/>
<path d="M22.8799 26.5428C23.0605 26.0295 23.3013 25.5765 23.6024 25.1236C23.6626 25.0028 23.5121 24.9122 23.4218 25.033C23.1207 25.486 22.8498 25.9691 22.6691 26.5126C22.639 26.6032 22.8197 26.6636 22.8799 26.5428Z" fill="#826F58"/>
<path d="M24.1744 19.507C24.4453 19.4768 24.6862 19.9298 24.7163 20.5035C24.7464 21.0773 24.5657 21.5302 24.2948 21.5604C24.1142 21.5604 23.9636 21.3792 23.8733 21.1075C23.0906 21.0773 20.9832 21.0169 19.779 21.349L19.6887 20.5941C19.6887 20.5941 22.6691 20.3223 23.783 19.96C23.9034 19.7184 24.0238 19.5372 24.1744 19.507Z" fill="white"/>
<path d="M24.024 19.7788C23.9036 20.3525 23.9638 20.8961 24.1746 21.4094C24.2348 21.5302 24.4154 21.4698 24.3853 21.349C24.1745 20.8659 24.1143 20.3525 24.2348 19.809C24.2348 19.6882 24.0541 19.658 24.024 19.7788Z" fill="#826F58"/>
<path d="M20.9531 14.1924C21.1638 14.0414 21.6154 14.283 21.9466 14.736C22.2777 15.1889 22.368 15.7023 22.1573 15.8532C22.0369 15.9438 21.796 15.8834 21.5552 15.7023C20.8929 16.0948 19.0565 17.2121 18.2436 18.118L17.762 17.5141C17.762 17.5141 20.1102 15.6721 20.8628 14.7662C20.8026 14.4944 20.8026 14.283 20.9531 14.1924Z" fill="white"/>
<path d="M20.8929 14.4642C21.1337 14.9473 21.495 15.3701 21.9465 15.6721C22.0669 15.7325 22.1573 15.5815 22.0368 15.4909C21.6154 15.1889 21.2842 14.7964 21.0735 14.3434C21.0133 14.2226 20.8627 14.3434 20.8929 14.4642Z" fill="#826F58"/>
<path d="M14.1194 12.9544C14.1194 12.6826 14.6011 12.4712 15.143 12.5014C15.715 12.5014 16.1665 12.743 16.1665 13.0148C16.1665 13.1959 15.9859 13.3167 15.6848 13.4073C15.5945 14.1924 15.3537 16.3062 15.5945 17.514H14.8419C14.8419 17.514 14.8118 14.5246 14.571 13.3771C14.2699 13.2563 14.1194 13.1355 14.1194 12.9544Z" fill="white"/>
<path d="M14.3604 13.1053C14.9023 13.1959 15.4141 13.1959 15.956 13.1053C16.0764 13.0751 16.0162 12.894 15.8957 12.894C15.4141 12.9846 14.9023 12.9846 14.4206 12.894C14.2701 12.894 14.2099 13.0751 14.3604 13.1053Z" fill="#826F58"/>
<path d="M17.907 26.1476C20.415 25.0324 21.5468 22.0889 20.4349 19.5733C19.323 17.0577 16.3885 15.9225 13.8805 17.0377C11.3725 18.153 10.2407 21.0964 11.3526 23.6121C12.4645 26.1277 15.399 27.2629 17.907 26.1476Z" fill="white"/>
<path d="M14.571 21.0773C13.9087 20.6243 12.3734 21.6208 13.126 22.3455C13.7582 22.9796 15.3538 21.8624 14.571 21.0773C14.5108 20.9867 14.3603 21.1377 14.4506 21.2282C15.0828 21.8624 13.4571 22.7683 13.1862 22.0737C12.9454 21.4698 14.0291 20.9565 14.4807 21.2584C14.571 21.3188 14.6915 21.1678 14.571 21.0773Z" fill="#826F58"/>
<path d="M16.2268 17.7858C15.113 16.9705 12.4336 18.7219 13.7281 19.96C14.8119 21.0471 17.5214 19.1145 16.2268 17.7858C16.1666 17.6952 16.0161 17.8462 16.1064 17.9368C17.3407 19.2051 14.27 20.9263 13.698 19.5372C13.2163 18.3898 15.2635 17.3329 16.1365 17.9368C16.2268 18.0274 16.3172 17.8462 16.2268 17.7858Z" fill="#826F58"/>
<path d="M16.9192 22.4059C17.0396 22.2851 17.16 22.1945 17.2804 22.0738C17.732 21.5906 18.1234 21.0169 18.6652 20.6243C18.9663 20.4129 19.3577 20.262 19.6888 20.3827C19.9297 20.4733 20.1103 20.7149 20.2006 20.9867C20.2909 21.2584 20.2909 21.5302 20.2909 21.802C20.2608 22.3153 20.2006 22.8589 19.8393 23.2212C19.4781 23.5836 18.9362 23.6138 18.4244 23.6742C18.0933 23.7044 17.7621 23.7346 17.461 23.8554C16.6482 24.1875 16.1665 25.0632 15.3838 25.4256C15.2032 25.5162 15.0225 25.5464 14.8118 25.5464C14.4505 25.5162 14.1495 25.2444 13.8785 24.9726C13.4571 24.5801 13.0055 24.0969 13.0356 23.5232C13.0356 23.4326 13.0657 23.342 13.0958 23.2816C13.1861 23.1608 13.3367 23.1306 13.4571 23.1004C13.728 23.0702 13.999 23.0401 14.2699 23.0401C15.0526 23.0401 15.8956 22.8891 16.6181 22.5569C16.7084 22.5569 16.7987 22.4965 16.9192 22.4059Z" fill="#3D3675"/>
<path d="M20.7127 23.493C20.4417 22.9494 20.0203 22.4965 19.5386 22.1643C19.96 22.7985 19.8998 22.9796 20.1106 23.3722L20.7127 23.493Z" fill="#FDFFFF"/>
<path d="M14.4507 26.2711L14.7517 25.7275C14.5711 25.3048 14.4507 25.2444 14.24 24.4895C14.1496 25.1236 14.24 25.7275 14.4507 26.2711Z" fill="#FDFFFF"/>
<path d="M14.0593 23.9761C13.9088 23.2212 14.0292 23.1004 13.9991 22.6475L13.4873 22.2851C13.5475 22.8891 13.7583 23.493 14.0593 23.9761Z" fill="#FDFFFF"/>
<path d="M14.6313 23.644C14.4808 22.8891 14.6012 22.7683 14.5711 22.3153L14.0593 21.953C14.1195 22.5569 14.3002 23.1306 14.6313 23.644Z" fill="#FDFFFF"/>
<path d="M18.3645 19.8996L18.2742 20.5035C18.5752 20.8055 18.7559 20.8357 19.2074 21.4396C19.0569 20.8961 18.7559 20.3525 18.3645 19.8996Z" fill="#FDFFFF"/>
<path d="M17.6418 20.7149C17.9429 21.0169 18.1235 21.0471 18.5751 21.651C18.4246 21.0773 18.1235 20.5337 17.7322 20.111L17.6418 20.7149Z" fill="#FDFFFF"/>
<path d="M20.7126 24.0969C20.3213 23.4024 19.5686 22.9192 18.7859 22.7985C18.0032 22.6475 17.1602 22.7985 16.4377 23.1306C15.8055 23.4024 15.2034 23.8251 14.9325 24.4593C14.6615 25.1236 14.8421 25.8785 15.083 26.573L15.1733 26.6032C15.8657 26.8146 16.6183 26.6334 17.3108 26.3919C18.3644 26.0597 19.388 25.6067 20.3815 25.0632C20.5621 24.9726 20.7728 24.8518 20.833 24.6405C20.8631 24.4593 20.8029 24.2479 20.7126 24.0969Z" fill="#FDCF9A"/>
<path d="M16.3774 23.191C16.6785 23.3722 16.9193 23.644 17.1 23.9459C17.2806 24.2479 17.401 24.5801 17.4913 24.9424" stroke="#E29246" stroke-width="0.2372" stroke-miterlimit="10" stroke-linecap="round"/>
<path d="M119.276 34.2128C119.246 34.0014 118.885 33.8806 118.463 33.9108C118.042 33.941 117.711 34.1524 117.711 34.3336C117.711 34.4543 117.861 34.5751 118.102 34.6053C118.222 35.1791 118.524 36.7795 118.403 37.7156L118.975 37.6854C118.975 37.6854 118.825 35.3904 118.975 34.5147C119.156 34.4543 119.276 34.3336 119.276 34.2128Z" fill="white"/>
<path d="M119.005 34.1222C118.674 34.2732 118.313 34.3336 117.952 34.3336C117.861 34.3336 117.861 34.4846 117.952 34.4846C118.343 34.5147 118.734 34.4242 119.096 34.2732C119.186 34.243 119.096 34.092 119.005 34.1222Z" fill="#826F58"/>
<path d="M114.399 35.5414C114.248 35.4206 113.887 35.6018 113.616 35.934C113.345 36.2661 113.255 36.6587 113.406 36.7795C113.496 36.8701 113.676 36.8097 113.857 36.6889C114.369 37.0211 115.724 37.8968 116.326 38.6215L116.717 38.1685C116.717 38.1685 114.971 36.6889 114.429 35.9642C114.489 35.783 114.489 35.632 114.399 35.5414Z" fill="white"/>
<path d="M114.248 35.632C114.098 35.9642 113.887 36.2662 113.616 36.5077C113.556 36.5681 113.646 36.6889 113.737 36.6285C114.008 36.3567 114.218 36.0548 114.399 35.7226C114.399 35.632 114.278 35.5414 114.248 35.632Z" fill="#826F58"/>
<path d="M112.081 39.4066C111.87 39.3764 111.69 39.7086 111.629 40.1615C111.599 40.5843 111.72 40.9466 111.9 40.9768C112.021 40.9768 112.141 40.856 112.231 40.6447C112.834 40.6447 114.459 40.6447 115.332 40.9466L115.423 40.3729C115.423 40.3729 113.165 40.0709 112.322 39.769C112.292 39.5576 112.201 39.4368 112.081 39.4066Z" fill="white"/>
<path d="M112.021 39.6482C112.051 40.0105 112.021 40.3427 111.961 40.6749C111.931 40.7654 112.081 40.8258 112.111 40.705C112.202 40.3427 112.232 39.9803 112.202 39.618C112.171 39.5576 112.021 39.5576 112.021 39.6482Z" fill="#826F58"/>
<path d="M113.767 45.2346C113.616 45.3553 113.255 45.144 113.014 44.8118C112.773 44.4494 112.713 44.0871 112.864 43.9663C112.954 43.9059 113.135 43.9361 113.315 44.0871C113.827 43.8153 115.242 43 115.874 42.3055L116.235 42.7584C116.235 42.7584 114.399 44.1173 113.797 44.8118C113.887 44.993 113.887 45.1742 113.767 45.2346Z" fill="white"/>
<path d="M112.954 44.1777C113.255 44.389 113.466 44.691 113.646 45.0232C113.676 45.1138 113.827 45.0232 113.767 44.9326C113.586 44.6004 113.375 44.2985 113.074 44.0569C112.984 43.9965 112.864 44.1173 112.954 44.1777Z" fill="#826F58"/>
<path d="M117.5 47.6805C117.44 47.8617 117.048 47.9221 116.657 47.8013C116.235 47.6805 115.964 47.4087 115.994 47.2275C116.025 47.1067 116.205 47.0463 116.416 47.0463C116.657 46.5028 117.229 44.993 117.319 44.0569L117.891 44.2079C117.891 44.2079 117.319 46.4122 117.259 47.3181C117.44 47.4087 117.53 47.5597 117.5 47.6805Z" fill="white"/>
<path d="M116.175 47.2879C116.567 47.3181 116.928 47.4389 117.259 47.6201C117.349 47.6805 117.409 47.5295 117.349 47.4993C116.988 47.2879 116.597 47.1671 116.175 47.1369C116.085 47.1369 116.085 47.2879 116.175 47.2879Z" fill="#826F58"/>
<path d="M120.781 47.1369C120.811 47.3483 120.51 47.5597 120.059 47.6201C119.637 47.6805 119.246 47.5899 119.216 47.3785C119.186 47.2577 119.306 47.1067 119.517 47.0162C119.487 46.4122 119.366 44.8118 119.005 43.9361L119.577 43.8153C119.577 43.8153 120.029 46.0499 120.39 46.8954C120.601 46.9256 120.751 46.986 120.781 47.1369Z" fill="white"/>
<path d="M119.396 47.4087C119.788 47.2577 120.179 47.1671 120.601 47.1369C120.691 47.1369 120.691 46.9859 120.601 46.9859C120.179 47.0161 119.758 47.1067 119.366 47.2577C119.246 47.2879 119.306 47.4389 119.396 47.4087Z" fill="#826F58"/>
<path d="M124.123 44.7212C124.274 44.8722 124.123 45.2345 123.822 45.5365C123.521 45.8385 123.13 45.9593 123.009 45.8083C122.919 45.7177 122.949 45.5365 123.069 45.3251C122.708 44.842 121.685 43.5737 120.932 43.0302L121.353 42.6074C121.353 42.6074 122.979 44.2079 123.732 44.7212C123.882 44.6306 124.063 44.6306 124.123 44.7212Z" fill="white"/>
<path d="M123.912 44.7514C123.521 44.9628 123.22 45.2647 123.039 45.6573C122.979 45.7479 123.13 45.8385 123.16 45.7479C123.34 45.3855 123.611 45.0836 123.972 44.9024C124.063 44.842 124.003 44.7212 123.912 44.7514Z" fill="#826F58"/>
<path d="M125.658 40.1917C125.869 40.2521 125.929 40.6145 125.839 41.0372C125.749 41.46 125.508 41.7619 125.297 41.7015C125.177 41.6713 125.086 41.5204 125.086 41.2788C124.514 41.0674 122.979 40.5541 122.046 40.5239L122.166 39.9501C122.166 39.9501 124.394 40.4333 125.297 40.4333C125.387 40.2823 125.538 40.1615 125.658 40.1917Z" fill="white"/>
<path d="M125.478 40.3125C125.297 40.7051 125.237 41.0976 125.267 41.5204C125.267 41.611 125.417 41.611 125.417 41.5204C125.387 41.1278 125.448 40.7353 125.598 40.3729C125.658 40.2823 125.538 40.2219 125.478 40.3125Z" fill="#826F58"/>
<path d="M123.009 35.5716C123.159 35.4509 123.521 35.6018 123.792 35.9642C124.063 36.2964 124.153 36.6889 124.002 36.8097C123.912 36.9003 123.731 36.8399 123.551 36.7191C123.039 37.0513 121.714 37.9572 121.112 38.6819L120.721 38.2289C120.721 38.2289 122.467 36.7493 123.009 36.0246C122.919 35.8434 122.919 35.6622 123.009 35.5716Z" fill="white"/>
<path d="M123.039 35.8132C123.25 36.1756 123.491 36.4775 123.792 36.7191C123.882 36.7795 123.972 36.6587 123.912 36.5983C123.611 36.3567 123.37 36.0548 123.159 35.7226C123.129 35.632 123.009 35.7226 123.039 35.8132Z" fill="#826F58"/>
<path d="M122.266 42.556C123.187 40.6688 122.408 38.3899 120.527 37.4659C118.645 36.542 116.373 37.3228 115.452 39.21C114.531 41.0972 115.31 43.3761 117.191 44.3001C119.073 45.224 121.345 44.4432 122.266 42.556Z" fill="white"/>
<path d="M118.523 39.8596C118.463 39.2556 117.229 38.8027 117.078 39.5576C116.928 40.2823 118.403 40.7051 118.523 39.8596C118.523 39.769 118.373 39.769 118.373 39.8596C118.283 40.6447 116.807 39.8897 117.349 39.4066C117.65 39.1348 118.343 39.4972 118.373 39.8596C118.373 39.9501 118.523 39.9501 118.523 39.8596Z" fill="#826F58"/>
<path d="M121.233 39.1952C121.142 38.1685 118.975 37.3834 118.734 38.7121C118.523 39.9501 121.082 40.6447 121.233 39.1952C121.233 39.1046 121.082 39.1046 121.082 39.1952C120.932 40.6447 118.252 39.4368 119.035 38.4403C119.547 37.776 121.022 38.4403 121.082 39.1952C121.082 39.2858 121.263 39.316 121.233 39.1952Z" fill="#826F58"/>
<path d="M118.764 41.8223C118.885 41.8525 119.005 41.8525 119.126 41.8827C119.607 41.9129 120.089 41.8525 120.571 41.9733C120.812 42.0337 121.082 42.1847 121.173 42.4263C121.233 42.6074 121.173 42.8188 121.082 43C120.992 43.1812 120.812 43.302 120.661 43.4228C120.36 43.6643 120.029 43.8757 119.668 43.8455C119.306 43.8153 119.005 43.5133 118.764 43.2718C118.584 43.0906 118.433 42.9396 118.192 42.8188C117.62 42.5169 116.928 42.6678 116.356 42.3961C116.236 42.3357 116.115 42.2451 116.025 42.1243C115.874 41.9129 115.874 41.6109 115.904 41.3392C115.935 40.9164 115.995 40.4333 116.326 40.1917C116.386 40.1615 116.416 40.1313 116.507 40.1313C116.597 40.1313 116.687 40.1917 116.777 40.2521C116.928 40.3729 117.048 40.5239 117.169 40.6749C117.53 41.1278 118.012 41.5204 118.524 41.7619C118.584 41.7921 118.674 41.8223 118.764 41.8223Z" fill="#3D3675"/>
<path d="M119.938 44.4494C120.119 44.0569 120.179 43.6039 120.119 43.1812C119.968 43.6945 119.848 43.7549 119.728 44.0569L119.938 44.4494Z" fill="#FDFFFF"/>
<path d="M115.483 42.2451L115.934 42.1545C116.085 41.8827 116.055 41.7619 116.386 41.309C115.995 41.5506 115.694 41.8827 115.483 42.2451Z" fill="#FDFFFF"/>
<path d="M116.567 40.9768C116.928 40.5541 117.048 40.5541 117.259 40.3125L117.229 39.8595C116.928 40.1917 116.687 40.5541 116.567 40.9768Z" fill="#FDFFFF"/>
<path d="M117.018 41.1278C117.38 40.705 117.5 40.705 117.711 40.4635L117.681 40.0105C117.38 40.3427 117.169 40.705 117.018 41.1278Z" fill="#FDFFFF"/>
<path d="M120.842 41.46L120.45 41.7015C120.42 42.0337 120.48 42.1243 120.36 42.6678C120.631 42.3357 120.781 41.9129 120.842 41.46Z" fill="#FDFFFF"/>
<path d="M120.059 41.46C120.029 41.7921 120.089 41.8827 119.969 42.4263C120.209 42.0639 120.39 41.6411 120.42 41.2184L120.059 41.46Z" fill="#FDFFFF"/>
<path d="M119.607 44.7514C119.818 44.2079 119.728 43.5737 119.427 43.0604C119.126 42.5471 118.674 42.1545 118.132 41.9129C117.681 41.7015 117.169 41.5506 116.717 41.7016C116.205 41.8525 115.874 42.3055 115.603 42.7584L115.633 42.849C115.844 43.3322 116.296 43.6643 116.747 43.9361C117.44 44.3589 118.162 44.7212 118.915 45.0232C119.065 45.0836 119.216 45.144 119.366 45.0836C119.487 44.993 119.577 44.8722 119.607 44.7514Z" fill="#FDCF9A"/>
<path d="M118.072 41.8827C118.132 42.1243 118.072 42.3961 118.012 42.6376C117.951 42.8792 117.801 43.0906 117.65 43.302" stroke="#E29246" stroke-width="0.1725" stroke-miterlimit="10" stroke-linecap="round"/>
<path d="M123.069 4.71067C123.039 4.52949 122.738 4.4087 122.347 4.4389C121.956 4.46909 121.655 4.65027 121.685 4.83145C121.685 4.95224 121.835 5.04283 122.016 5.07303C122.106 5.58637 122.377 7.03581 122.287 7.88131L122.799 7.85111C122.799 7.85111 122.678 5.79774 122.799 5.01263C122.979 4.92204 123.1 4.80126 123.069 4.71067Z" fill="#3782AC"/>
<path d="M122.829 4.65027C122.528 4.77106 122.196 4.83145 121.865 4.83145C121.775 4.83145 121.775 4.98243 121.865 4.98243C122.227 4.98243 122.558 4.92204 122.889 4.77106C122.979 4.71066 122.919 4.58988 122.829 4.65027Z" fill="#1A526C"/>
<path d="M118.704 5.88834C118.554 5.76755 118.253 5.91854 118.012 6.2205C117.771 6.52247 117.681 6.85463 117.831 6.97542C117.921 7.03581 118.072 7.00561 118.253 6.88483C118.704 7.1566 119.908 7.97191 120.45 8.63623L120.781 8.24368C120.781 8.24368 119.216 6.91502 118.734 6.28089C118.795 6.12991 118.795 5.97893 118.704 5.88834Z" fill="#3782AC"/>
<path d="M118.554 5.97892C118.433 6.28089 118.223 6.55266 117.982 6.76403C117.922 6.82443 118.012 6.91502 118.072 6.85462C118.313 6.61305 118.524 6.34128 118.644 6.03932C118.704 5.97892 118.584 5.88833 118.554 5.97892Z" fill="#1A526C"/>
<path d="M116.627 9.36095C116.446 9.33076 116.266 9.63272 116.236 10.0253C116.205 10.4178 116.326 10.75 116.476 10.75C116.597 10.75 116.717 10.6594 116.777 10.448C117.319 10.448 118.764 10.448 119.577 10.7198L119.637 10.2065C119.637 10.2065 117.62 9.93469 116.838 9.66292C116.838 9.51194 116.747 9.39115 116.627 9.36095Z" fill="#3782AC"/>
<path d="M116.567 9.57232C116.597 9.87429 116.567 10.2065 116.507 10.5084C116.477 10.599 116.627 10.6292 116.627 10.5386C116.717 10.2065 116.717 9.90448 116.687 9.57232C116.717 9.48173 116.567 9.48173 116.567 9.57232Z" fill="#1A526C"/>
<path d="M118.162 14.6152C118.012 14.7058 117.711 14.5548 117.5 14.2226C117.289 13.8904 117.229 13.5583 117.38 13.4677C117.47 13.4073 117.62 13.4375 117.801 13.5583C118.253 13.2865 119.517 12.5618 120.119 11.9579L120.42 12.3806C120.42 12.3806 118.764 13.5885 118.253 14.2226C118.253 14.3736 118.253 14.5246 118.162 14.6152Z" fill="#3782AC"/>
<path d="M117.41 13.6489C117.681 13.8603 117.861 14.1018 118.012 14.4038C118.042 14.4944 118.162 14.4038 118.132 14.3434C117.982 14.0414 117.771 13.7697 117.5 13.5583C117.44 13.4979 117.35 13.5885 117.41 13.6489Z" fill="#1A526C"/>
<path d="M121.504 16.7893C121.444 16.9705 121.113 17.0007 120.752 16.9101C120.39 16.7893 120.119 16.5779 120.18 16.3968C120.21 16.276 120.36 16.2156 120.571 16.2156C120.782 15.7324 121.324 14.3736 121.384 13.5281L121.896 13.6489C121.896 13.6489 121.384 15.6418 121.324 16.427C121.444 16.5477 121.534 16.6685 121.504 16.7893Z" fill="#3782AC"/>
<path d="M120.3 16.4572C120.661 16.4874 120.962 16.5779 121.263 16.7591C121.354 16.8195 121.414 16.6987 121.324 16.6383C120.993 16.427 120.661 16.3364 120.27 16.3062C120.21 16.3062 120.21 16.427 120.3 16.4572Z" fill="#1A526C"/>
<path d="M124.424 16.276C124.454 16.4572 124.183 16.6383 123.792 16.7289C123.401 16.7893 123.069 16.6987 123.039 16.5176C123.009 16.3968 123.13 16.276 123.31 16.1854C123.28 15.6419 123.16 14.1924 122.859 13.4073L123.37 13.2865C123.37 13.2865 123.762 15.3097 124.093 16.0344C124.274 16.0948 124.394 16.1854 124.424 16.276Z" fill="#3782AC"/>
<path d="M123.19 16.5478C123.551 16.427 123.882 16.3364 124.244 16.3062C124.334 16.3062 124.334 16.1552 124.244 16.1552C123.852 16.1854 123.491 16.276 123.13 16.3968C123.07 16.427 123.1 16.578 123.19 16.5478Z" fill="#1A526C"/>
<path d="M127.435 14.132C127.555 14.2528 127.435 14.585 127.164 14.8567C126.893 15.1285 126.561 15.2493 126.441 15.0983C126.351 15.0077 126.381 14.8567 126.471 14.6756C126.14 14.2528 125.237 13.1053 124.544 12.6222L124.906 12.2598C124.906 12.2598 126.351 13.7093 127.043 14.132C127.224 14.0716 127.374 14.0414 127.435 14.132Z" fill="#3782AC"/>
<path d="M127.224 14.1622C126.893 14.3434 126.622 14.6152 126.441 14.9775C126.411 15.0681 126.531 15.1285 126.561 15.0379C126.712 14.7058 126.983 14.4642 127.284 14.283C127.374 14.2528 127.314 14.132 127.224 14.1622Z" fill="#1A526C"/>
<path d="M128.789 10.0857C128.97 10.1159 129.03 10.4782 128.94 10.8406C128.85 11.2331 128.639 11.5049 128.458 11.4445C128.338 11.4143 128.278 11.2633 128.278 11.0822C127.766 10.901 126.411 10.4178 125.568 10.4178L125.658 9.90449C125.658 9.90449 127.645 10.3272 128.458 10.3272C128.579 10.1461 128.699 10.0555 128.789 10.0857Z" fill="#3782AC"/>
<path d="M128.639 10.1763C128.488 10.5084 128.428 10.901 128.458 11.2633C128.458 11.3539 128.609 11.3539 128.609 11.2633C128.579 10.901 128.639 10.5688 128.759 10.2367C128.819 10.1461 128.699 10.0857 128.639 10.1763Z" fill="#1A526C"/>
<path d="M126.441 5.94873C126.592 5.82795 126.893 5.97893 127.134 6.2809C127.375 6.58286 127.465 6.91502 127.314 7.03581C127.224 7.0962 127.073 7.06601 126.893 6.94522C126.441 7.24719 125.237 8.0323 124.695 8.69662L124.364 8.30407C124.364 8.30407 125.929 6.97542 126.411 6.34129C126.351 6.16011 126.351 6.00913 126.441 5.94873Z" fill="#3782AC"/>
<path d="M126.471 6.12991C126.652 6.43188 126.893 6.70365 127.164 6.94522C127.224 7.00562 127.344 6.91503 127.254 6.85463C126.983 6.64326 126.772 6.37149 126.592 6.06952C126.531 5.97893 126.411 6.06952 126.471 6.12991Z" fill="#1A526C"/>
<path d="M125.761 12.184C126.587 10.4916 125.889 8.4478 124.202 7.61918C122.514 6.79055 120.477 7.49085 119.651 9.18334C118.824 10.8758 119.523 12.9196 121.21 13.7482C122.897 14.5768 124.935 13.8765 125.761 12.184Z" fill="#3782AC"/>
<path d="M122.407 9.78371C122.347 9.24017 121.233 8.84762 121.112 9.51194C120.962 10.1461 122.317 10.5386 122.407 9.78371C122.407 9.69312 122.287 9.69312 122.256 9.78371C122.166 10.4782 120.872 9.81391 121.323 9.39115C121.594 9.14958 122.226 9.48174 122.256 9.78371C122.256 9.8743 122.407 9.8743 122.407 9.78371Z" fill="#1A526C"/>
<path d="M124.846 9.17977C124.755 8.27387 122.799 7.57935 122.618 8.75702C122.407 9.8441 124.695 10.4782 124.846 9.17977C124.846 9.08918 124.725 9.08918 124.695 9.17977C124.545 10.4782 122.136 9.42135 122.859 8.51545C123.31 7.94171 124.635 8.51545 124.695 9.17977C124.725 9.27036 124.846 9.27036 124.846 9.17977Z" fill="#1A526C"/>
<path d="M122.618 11.5351C122.738 11.5653 122.828 11.5653 122.949 11.5955C123.37 11.5955 123.822 11.5653 124.243 11.6861C124.484 11.7465 124.695 11.8673 124.785 12.1089C124.845 12.29 124.785 12.4712 124.695 12.6222C124.605 12.7732 124.454 12.894 124.334 13.0148C124.063 13.2261 123.762 13.4073 123.43 13.3771C123.099 13.3469 122.858 13.1053 122.618 12.8638C122.467 12.7128 122.317 12.5618 122.106 12.4712C121.594 12.1994 120.962 12.3504 120.45 12.0787C120.33 12.0183 120.239 11.9579 120.149 11.8371C119.998 11.6257 120.029 11.3841 120.029 11.1124C120.059 10.75 120.089 10.2971 120.39 10.0857C120.42 10.0555 120.48 10.0253 120.54 10.0253C120.631 10.0253 120.721 10.0857 120.781 10.1461C120.902 10.2669 121.022 10.3876 121.142 10.5084C121.474 10.901 121.895 11.2633 122.347 11.4747C122.467 11.5049 122.557 11.5049 122.618 11.5351Z" fill="#3D3675"/>
<path d="M123.672 13.8904C123.822 13.5281 123.882 13.1355 123.852 12.743C123.702 13.2261 123.611 13.2563 123.491 13.5281L123.672 13.8904Z" fill="#FDFFFF"/>
<path d="M119.667 11.9277L120.059 11.8673C120.179 11.6257 120.179 11.5049 120.45 11.1124C120.119 11.2935 119.848 11.5955 119.667 11.9277Z" fill="#FDFFFF"/>
<path d="M120.661 10.7802C120.962 10.3876 121.082 10.3876 121.293 10.2065L121.263 9.8139C120.962 10.0555 120.781 10.4178 120.661 10.7802Z" fill="#FDFFFF"/>
<path d="M121.052 10.901C121.353 10.5084 121.474 10.5084 121.684 10.3273L121.654 9.9347C121.383 10.2065 121.173 10.5386 121.052 10.901Z" fill="#FDFFFF"/>
<path d="M124.484 11.2331L124.153 11.4445C124.123 11.7465 124.183 11.8371 124.093 12.3202C124.304 11.9881 124.424 11.5955 124.484 11.2331Z" fill="#FDFFFF"/>
<path d="M123.792 11.203C123.762 11.5049 123.822 11.5955 123.732 12.0787C123.942 11.7465 124.093 11.3841 124.153 10.9916L123.792 11.203Z" fill="#FDFFFF"/>
<path d="M123.401 14.1622C123.581 13.6791 123.491 13.1053 123.25 12.6524C122.979 12.1994 122.558 11.8371 122.106 11.6257C121.715 11.4143 121.233 11.2935 120.812 11.4445C120.36 11.5955 120.059 11.9881 119.818 12.4108L119.848 12.4712C120.029 12.894 120.45 13.1959 120.842 13.4375C121.444 13.83 122.106 14.1622 122.768 14.434C122.889 14.4944 123.039 14.5246 123.16 14.4944C123.28 14.3736 123.34 14.2528 123.401 14.1622Z" fill="#FDCF9A"/>
<path d="M122.016 11.5955C122.046 11.8371 122.016 12.0484 121.956 12.29C121.865 12.5014 121.775 12.7128 121.625 12.894" stroke="#E29246" stroke-width="0.1548" stroke-miterlimit="10" stroke-linecap="round"/>
<path d="M0.421518 58.2795C0.270993 58.2493 0.0903628 58.4909 0.0301528 58.7928C-0.0300573 59.0948 0.0301528 59.3968 0.180678 59.427C0.270993 59.4572 0.391413 59.3666 0.451623 59.2156C0.903198 59.276 2.07729 59.3968 2.7095 59.6987L2.82992 59.276C2.82992 59.276 1.17414 58.8834 0.572043 58.5815C0.572043 58.4305 0.511833 58.3097 0.421518 58.2795Z" fill="#3782AC"/>
<path d="M0.301161 58.4607C0.331266 58.7325 0.301161 59.0042 0.210846 59.276C0.180741 59.3364 0.301161 59.3666 0.331266 59.3062C0.421581 59.0344 0.451686 58.7627 0.421581 58.4607C0.421581 58.3701 0.301161 58.3701 0.301161 58.4607Z" fill="#1A526C"/>
<path d="M0.270983 62.0541C0.150562 62.1447 0.180667 62.4164 0.361298 62.6882C0.541928 62.96 0.782768 63.111 0.903188 63.0204C0.993503 62.96 0.993503 62.8392 0.933293 62.658C1.26445 62.3862 2.1977 61.6011 2.86001 61.3294L2.61917 60.967C2.61917 60.967 1.20424 61.8729 0.572033 62.1145C0.481718 62.0239 0.361298 61.9937 0.270983 62.0541Z" fill="#3782AC"/>
<path d="M0.301015 62.1749C0.511751 62.356 0.662276 62.5674 0.782696 62.809C0.812801 62.8694 0.903116 62.809 0.873011 62.7486C0.752591 62.507 0.571961 62.2655 0.361225 62.0843C0.33112 62.0541 0.240805 62.1447 0.301015 62.1749Z" fill="#1A526C"/>
<path d="M2.49884 64.5302C2.43863 64.6812 2.61926 64.8925 2.92031 65.0133C3.22136 65.1341 3.49231 65.1341 3.55252 64.9831C3.58262 64.8925 3.52241 64.7718 3.40199 64.6812C3.52241 64.2584 3.91378 63.1109 4.30514 62.5372L3.91378 62.356C3.91378 62.356 3.22136 63.8961 2.79989 64.4396C2.64937 64.4094 2.52895 64.4698 2.49884 64.5302Z" fill="#3782AC"/>
<path d="M2.64927 64.651C2.89011 64.7114 3.13095 64.802 3.37179 64.9227C3.432 64.9529 3.49221 64.8623 3.432 64.8322C3.19116 64.6812 2.95032 64.5906 2.67938 64.5302C2.61917 64.5 2.58906 64.6208 2.64927 64.651Z" fill="#1A526C"/>
<path d="M6.98456 64.6208C7.04477 64.7718 6.80393 64.9529 6.50288 65.0435C6.20183 65.1341 5.90078 65.1039 5.87067 64.953C5.84057 64.8624 5.93088 64.7416 6.0513 64.651C5.96099 64.2282 5.69004 63.0506 5.35889 62.4164L5.78036 62.2654C5.78036 62.2654 6.32225 63.8659 6.68351 64.4396C6.83403 64.5 6.95445 64.5302 6.98456 64.6208Z" fill="#3782AC"/>
<path d="M6.05121 64.9831C6.26195 64.8322 6.53289 64.7416 6.80384 64.6812C6.86405 64.6812 6.83394 64.5604 6.77373 64.5604C6.50279 64.5906 6.23184 64.7114 5.991 64.8624C5.93079 64.9227 5.991 65.0133 6.05121 64.9831Z" fill="#1A526C"/>
<path d="M9.54337 62.5372C9.66379 62.6278 9.63369 62.8996 9.45306 63.1713C9.27243 63.4431 9.03159 63.5941 8.91117 63.5035C8.82086 63.4431 8.82085 63.3223 8.88106 63.1411C8.54991 62.8694 7.61666 62.0843 6.95435 61.8427L7.19519 61.4803C7.19519 61.4803 8.61012 62.3862 9.24233 62.6278C9.33264 62.507 9.45306 62.4768 9.54337 62.5372Z" fill="#3782AC"/>
<path d="M8.97125 63.3827C9.06157 63.111 9.2422 62.8694 9.45293 62.6882C9.51314 62.6278 9.42283 62.5674 9.36262 62.5976C9.12178 62.809 8.97125 63.0506 8.85083 63.3525C8.85083 63.4129 8.94115 63.4431 8.97125 63.3827Z" fill="#1A526C"/>
<path d="M9.87434 60.0611C10.0249 60.0913 10.1152 60.3631 10.055 60.665C10.0249 60.9972 9.84423 61.2388 9.69371 61.2086C9.60339 61.2086 9.54318 61.0878 9.51308 60.9066C9.09161 60.7858 7.91751 60.5442 7.2251 60.5744L7.2552 60.1517C7.2552 60.1517 8.94108 60.3329 9.60339 60.2725C9.69371 60.1517 9.78402 60.0611 9.87434 60.0611Z" fill="#3782AC"/>
<path d="M9.7538 61.118C9.7538 60.816 9.7538 60.514 9.81401 60.2121C9.84411 60.1517 9.72369 60.1215 9.69359 60.1819C9.63338 60.4838 9.60327 60.816 9.60327 61.118C9.63338 61.2086 9.7538 61.2086 9.7538 61.118Z" fill="#1A526C"/>
<path d="M8.91106 57.1622C9.03148 57.1018 9.27232 57.283 9.42285 57.5548C9.57337 57.8567 9.57337 58.1285 9.42285 58.1889C9.33253 58.2191 9.21211 58.1587 9.09169 58.0379C8.67022 58.1889 7.55634 58.6117 7.01445 59.0646L6.80371 58.672C6.80371 58.672 8.30896 57.8869 8.82075 57.434C8.79064 57.3132 8.82075 57.1924 8.91106 57.1622Z" fill="#3782AC"/>
<path d="M8.88086 57.3434C8.94107 57.6454 9.0916 57.9473 9.33244 58.1587C9.39265 58.2191 9.45286 58.1285 9.42275 58.0681C9.21202 57.8567 9.06149 57.585 9.00128 57.3132C8.97118 57.2226 8.88086 57.2528 8.88086 57.3434Z" fill="#1A526C"/>
<path d="M6.05118 55.0787C6.14149 54.9579 6.41244 54.9881 6.68338 55.1391C6.95433 55.29 7.10485 55.5316 7.04464 55.6826C6.98443 55.7732 6.86401 55.7732 6.71349 55.743C6.44254 56.1053 5.75013 57.0716 5.50928 57.736L5.11792 57.5246C5.11792 57.5246 5.96086 56.0449 6.14149 55.4108C6.05118 55.29 6.02107 55.1692 6.05118 55.0787Z" fill="#3782AC"/>
<path d="M6.08138 55.2296C6.32222 55.441 6.59316 55.592 6.89421 55.6524C6.95442 55.6524 6.98453 55.5618 6.92432 55.5316C6.62327 55.4712 6.38243 55.3504 6.17169 55.139C6.11148 55.0786 6.02117 55.1692 6.08138 55.2296Z" fill="#1A526C"/>
<path d="M2.22783 55.9242C2.16762 55.7732 2.37835 55.5618 2.6794 55.4712C2.98045 55.3504 3.2514 55.3806 3.31161 55.5014C3.34171 55.592 3.2815 55.7128 3.16108 55.8034C3.2815 56.2261 3.61266 57.4038 4.00402 57.9775L3.61266 58.1587C3.61266 58.1587 2.95035 56.5885 2.55898 56.0449C2.37835 56.0449 2.25793 56.0147 2.22783 55.9242Z" fill="#3782AC"/>
<path d="M2.37884 55.9552C2.67989 55.8948 2.95084 55.774 3.19168 55.623C3.25189 55.5928 3.19168 55.472 3.13147 55.5324C2.89063 55.6834 2.61968 55.8042 2.34874 55.8646C2.28853 55.8646 2.31863 55.9854 2.37884 55.9552Z" fill="#1A526C"/>
<path d="M7.06495 61.9912C8.12801 60.8649 8.0795 59.0875 6.9566 58.0212C5.8337 56.9549 4.06163 57.0035 2.99857 58.1298C1.93551 59.2562 1.98402 61.0336 3.10692 62.0999C4.22982 63.1662 6.00189 63.1176 7.06495 61.9912Z" fill="#3782AC"/>
<path d="M4.24485 60.0913C3.82338 60.0007 3.22128 60.816 3.73306 61.0576C4.21474 61.2689 4.81684 60.3329 4.24485 60.0913C4.18464 60.0611 4.15453 60.1819 4.21474 60.2121C4.69642 60.4234 4.00401 61.2387 3.70296 60.9066C3.46212 60.665 3.91369 60.1517 4.21474 60.2121C4.27495 60.2121 4.30506 60.0913 4.24485 60.0913Z" fill="#1A526C"/>
<path d="M4.36517 57.9775C3.61255 57.8265 2.58898 59.1854 3.46202 59.6383C4.27486 60.0913 5.35864 58.4003 4.36517 57.9775C4.30496 57.9473 4.24475 58.0681 4.33507 58.0983C5.26832 58.4909 4.03402 60.0611 3.43192 59.4873C2.92013 59.0042 3.79318 57.9775 4.36517 58.0983C4.42538 58.1285 4.45549 58.0077 4.36517 57.9775Z" fill="#1A526C"/>
<path d="M5.68981 60.3329C5.71992 60.2423 5.78013 60.1819 5.81023 60.0913C5.93065 59.7591 5.99086 59.3968 6.2016 59.0948C6.29191 58.9438 6.47254 58.7627 6.65317 58.7627C6.8037 58.7627 6.92412 58.8533 7.04454 58.9438C7.13485 59.0646 7.19506 59.1854 7.25527 59.3364C7.34559 59.6082 7.4359 59.8799 7.31548 60.1517C7.19506 60.3933 6.95422 60.5442 6.71338 60.665C6.56286 60.7556 6.38223 60.8462 6.26181 60.967C5.93065 61.2992 5.87044 61.8427 5.53929 62.1749C5.47908 62.2654 5.38876 62.3258 5.26834 62.356C5.08771 62.4164 4.87698 62.356 4.66624 62.2654C4.36519 62.1447 4.06414 62.0239 3.94372 61.7219C3.91362 61.6917 3.91362 61.6313 3.94372 61.6011C3.97383 61.5407 4.03404 61.4803 4.09425 61.4501C4.21467 61.3596 4.33509 61.2992 4.48561 61.269C4.87698 61.118 5.26834 60.8764 5.56939 60.5443C5.5995 60.4537 5.65971 60.3933 5.68981 60.3329Z" fill="#3D3675"/>
<path d="M7.79729 60.0611C7.55645 59.8497 7.2554 59.6987 6.95435 59.6384C7.2855 59.8799 7.31561 59.9705 7.49624 60.1215L7.79729 60.0611Z" fill="#FDFFFF"/>
<path d="M5.26855 62.7788L5.29865 62.4466C5.11802 62.2654 5.02771 62.2654 4.78687 61.9333C4.87718 62.2352 5.02771 62.5372 5.26855 62.7788Z" fill="#FDFFFF"/>
<path d="M4.60608 61.6917C4.39535 61.3596 4.39535 61.269 4.30503 61.0576L3.97388 60.9972C4.1244 61.269 4.33514 61.5105 4.60608 61.6917Z" fill="#FDFFFF"/>
<path d="M4.81678 61.4199C4.60604 61.0878 4.60604 60.9972 4.51573 60.7858L4.18457 60.7254C4.3351 60.9972 4.54583 61.2388 4.81678 61.4199Z" fill="#FDFFFF"/>
<path d="M5.90063 58.7627L5.99095 59.0948C6.20168 59.1854 6.292 59.1552 6.65326 59.3666C6.44252 59.125 6.17158 58.9136 5.90063 58.7627Z" fill="#FDFFFF"/>
<path d="M5.68992 59.3364C5.90066 59.427 5.99097 59.3968 6.35223 59.6082C6.1415 59.3666 5.90066 59.1552 5.59961 59.0042L5.68992 59.3364Z" fill="#FDFFFF"/>
<path d="M7.91776 60.3631C7.58661 60.0913 7.10493 60.0309 6.68346 60.1215C6.26199 60.2121 5.87062 60.4537 5.56957 60.7858C5.29863 61.0576 5.08789 61.3898 5.08789 61.7521C5.08789 62.1447 5.32873 62.4768 5.59968 62.7788H5.65989C6.05125 62.7486 6.38241 62.4768 6.68346 62.2353C7.13503 61.8427 7.5565 61.42 7.94787 60.9368C8.00808 60.8462 8.09839 60.7556 8.06829 60.6348C8.09839 60.5141 8.00808 60.4235 7.91776 60.3631Z" fill="#FDCF9A"/>
<path d="M5.56958 60.8462C5.75021 60.8764 5.93084 60.967 6.08137 61.0576C6.23189 61.1784 6.35231 61.2992 6.47273 61.4501" stroke="#E29246" stroke-width="0.128" stroke-miterlimit="10" stroke-linecap="round"/>
<path d="M39.0765 0.754916C39.0163 0.694523 38.8959 0.754916 38.7754 0.905899C38.655 1.02669 38.6249 1.17767 38.6851 1.23806C38.7152 1.26826 38.8056 1.26826 38.8658 1.20787C39.0464 1.32865 39.5582 1.69101 39.799 1.96278L39.9495 1.7816C39.9495 1.7816 39.2872 1.20787 39.0765 0.936096C39.1066 0.845506 39.1066 0.785113 39.0765 0.754916Z" fill="#3782AC"/>
<path d="M38.9564 0.8157C38.8962 0.936487 38.836 1.05727 38.7156 1.14786C38.6855 1.17806 38.7156 1.20826 38.7457 1.17806C38.8661 1.05727 38.9263 0.936487 38.9865 0.8157C39.0467 0.785504 38.9865 0.785504 38.9564 0.8157Z" fill="#1A526C"/>
<path d="M38.1131 2.44592C38.0228 2.44592 37.9927 2.59691 37.9927 2.74789C38.0228 2.89887 38.083 3.04986 38.1733 3.01966C38.2335 3.01966 38.2636 2.95927 38.2636 2.86868C38.4744 2.80828 39.1066 2.6875 39.4377 2.71769V2.50632C39.4377 2.50632 38.5647 2.56671 38.2335 2.53651C38.2034 2.47612 38.1432 2.44592 38.1131 2.44592Z" fill="#3782AC"/>
<path d="M38.0835 2.50648C38.1437 2.62727 38.1437 2.77825 38.1437 2.92923C38.1437 2.95943 38.2039 2.95943 38.2039 2.92923C38.2039 2.77825 38.1738 2.65746 38.1437 2.50648C38.1136 2.44609 38.0835 2.47628 38.0835 2.50648Z" fill="#1A526C"/>
<path d="M38.5345 4.10674C38.4743 4.16713 38.5044 4.28792 38.6248 4.4389C38.7151 4.55969 38.8657 4.62008 38.9259 4.58988C38.956 4.55969 38.956 4.4993 38.9259 4.40871C39.0764 4.25772 39.528 3.80477 39.8591 3.65379L39.7387 3.47261C39.7387 3.47261 39.0463 4.01615 38.7452 4.16713C38.6248 4.10674 38.5646 4.07654 38.5345 4.10674Z" fill="#3782AC"/>
<path d="M38.5646 4.19733C38.6549 4.28792 38.7452 4.37851 38.8356 4.4993C38.8657 4.52949 38.8958 4.4993 38.8958 4.4691C38.8356 4.34831 38.7452 4.25772 38.6248 4.16713C38.5947 4.13694 38.5345 4.16713 38.5646 4.19733Z" fill="#1A526C"/>
<path d="M40.5516 5.22401C40.5516 5.3146 40.401 5.3448 40.2204 5.3146C40.0699 5.28441 39.9495 5.19382 39.9495 5.13342C39.9495 5.07303 40.0097 5.04284 40.1 5.04284C40.1602 4.83146 40.3408 4.22753 40.3107 3.86517L40.5215 3.89536C40.5215 3.89536 40.401 4.77106 40.4311 5.10323C40.5215 5.13342 40.5516 5.19382 40.5516 5.22401Z" fill="#3782AC"/>
<path d="M40.0398 5.16362C40.1903 5.13342 40.3107 5.16362 40.4613 5.19381C40.4914 5.19381 40.5215 5.13342 40.4914 5.13342C40.3409 5.07303 40.2204 5.07303 40.0699 5.10322C40.0097 5.10322 40.0097 5.16362 40.0398 5.16362Z" fill="#1A526C"/>
<path d="M42.2075 4.89186C42.2376 4.95225 42.1473 5.07304 41.9967 5.16363C41.8462 5.25422 41.6957 5.25422 41.6656 5.19382C41.6355 5.16363 41.6656 5.07304 41.7258 5.01264C41.6355 4.80127 41.3946 4.22753 41.1538 3.95576L41.3344 3.83498C41.3344 3.83498 41.786 4.58989 41.9967 4.86166C42.1172 4.83146 42.1774 4.83146 42.2075 4.89186Z" fill="#3782AC"/>
<path d="M41.7558 5.13344C41.8762 5.04285 41.9966 4.98246 42.1471 4.92206C42.1772 4.92206 42.1772 4.86167 42.117 4.86167C41.9665 4.89187 41.816 4.98246 41.6956 5.07305C41.6956 5.13344 41.7257 5.16364 41.7558 5.13344Z" fill="#1A526C"/>
<path d="M42.96 3.83497C43.0202 3.86517 42.9901 4.01615 42.8998 4.16714C42.8094 4.28792 42.689 4.37851 42.5987 4.31812C42.5686 4.28792 42.5686 4.22753 42.5686 4.13694C42.388 3.98596 41.9364 3.5934 41.6052 3.44242L41.7256 3.26124C41.7256 3.26124 42.4482 3.74438 42.7793 3.86517C42.8395 3.83497 42.8998 3.80478 42.96 3.83497Z" fill="#3782AC"/>
<path d="M42.6588 4.28793C42.7191 4.13695 42.8094 4.01616 42.8997 3.89537C42.9298 3.86518 42.8696 3.83498 42.8696 3.86518C42.7793 3.98596 42.6889 4.13695 42.5986 4.28793C42.5986 4.28793 42.6287 4.31813 42.6588 4.28793Z" fill="#1A526C"/>
<path d="M43.2009 2.26475C43.2913 2.26475 43.3515 2.41573 43.3214 2.56671C43.3214 2.74789 43.2611 2.86868 43.1708 2.86868C43.1106 2.86868 43.0805 2.80829 43.0504 2.7177C42.8397 2.6875 42.2075 2.62711 41.8462 2.6875V2.47612C41.8462 2.47612 42.7192 2.47612 43.0504 2.38553C43.1106 2.32514 43.1708 2.26475 43.2009 2.26475Z" fill="#3782AC"/>
<path d="M43.1708 2.35533C43.1407 2.50632 43.1407 2.6875 43.1708 2.83848C43.1708 2.86868 43.231 2.86868 43.231 2.80828C43.1708 2.6573 43.1708 2.50632 43.231 2.35533C43.231 2.32514 43.1708 2.32514 43.1708 2.35533Z" fill="#1A526C"/>
<path d="M42.4181 0.634128C42.4783 0.603932 42.5987 0.664325 42.689 0.815308C42.7794 0.966291 42.7794 1.11727 42.7192 1.14747C42.689 1.17767 42.5987 1.14747 42.5385 1.08708C42.3278 1.17767 41.7859 1.44944 41.5149 1.69101L41.3945 1.50983C41.3945 1.50983 42.1171 1.02668 42.3579 0.785112C42.3579 0.724718 42.3579 0.664325 42.4181 0.634128Z" fill="#3782AC"/>
<path d="M42.3881 0.724718C42.4483 0.875701 42.5386 0.996487 42.659 1.11727C42.6891 1.14747 42.7192 1.08708 42.6891 1.08708C42.5687 0.996487 42.4784 0.875701 42.4182 0.724718C42.4182 0.664325 42.358 0.694521 42.3881 0.724718Z" fill="#1A526C"/>
<path d="M40.4312 0.120787C40.4312 0.0301966 40.5817 0 40.7322 0C40.8827 0 41.0333 0.0905899 41.0031 0.18118C41.0031 0.241573 40.9429 0.27177 40.8526 0.27177C40.7924 0.483146 40.672 1.11728 40.7322 1.44944L40.5215 1.41924C40.5215 1.41924 40.5817 0.543539 40.5516 0.211376C40.4914 0.211376 40.4312 0.150983 40.4312 0.120787Z" fill="#3782AC"/>
<path d="M40.5218 0.151572C40.6724 0.181769 40.8229 0.211965 40.9734 0.181769C41.0035 0.181769 41.0035 0.121376 40.9734 0.121376C40.8229 0.121376 40.6724 0.121376 40.5218 0.0911789C40.4917 0.0911789 40.4917 0.151572 40.5218 0.151572Z" fill="#1A526C"/>
<path d="M41.1968 4.03496C41.9519 3.77568 42.3544 2.95153 42.0959 2.19418C41.8374 1.43682 41.0158 1.03305 40.2607 1.29234C39.5057 1.55162 39.1031 2.37577 39.3616 3.13312C39.6201 3.89048 40.4417 4.29425 41.1968 4.03496Z" fill="#3782AC"/>
<path d="M40.3709 2.47612C40.1902 2.32514 39.7086 2.59691 39.9193 2.80829C40.0999 3.01966 40.5515 2.74789 40.3709 2.47612C40.3709 2.44593 40.3107 2.47612 40.3408 2.50632C40.4311 2.62711 40.2806 2.74789 40.1601 2.77809C40.0698 2.80829 39.8591 2.77809 39.9494 2.59691C40.0096 2.47612 40.2203 2.41573 40.3408 2.50632C40.3709 2.56671 40.401 2.50632 40.3709 2.47612Z" fill="#1A526C"/>
<path d="M40.9429 1.57023C40.6419 1.29846 39.7989 1.75141 40.1602 2.14396C40.4612 2.47613 41.2741 1.99298 40.9429 1.57023C40.9128 1.54003 40.8827 1.57023 40.9128 1.60043C41.2139 1.96278 40.401 2.38554 40.1903 2.05337C39.9796 1.69101 40.672 1.38905 40.9128 1.60043C40.9128 1.63062 40.973 1.60042 40.9429 1.57023Z" fill="#1A526C"/>
<path d="M40.9729 2.95926C41.003 2.92907 41.0331 2.89887 41.0933 2.86867C41.2137 2.74789 41.3642 2.59691 41.5147 2.50632C41.6051 2.44592 41.7255 2.41573 41.8158 2.47612C41.876 2.50632 41.9362 2.56671 41.9362 2.6573C41.9663 2.71769 41.9362 2.80828 41.9362 2.86867C41.9061 3.01966 41.876 3.17064 41.7857 3.26123C41.6653 3.35182 41.5147 3.35182 41.3943 3.35182C41.304 3.35182 41.2137 3.35182 41.1234 3.38202C40.8825 3.44241 40.732 3.68398 40.5213 3.77457C40.4611 3.80477 40.4009 3.80477 40.3708 3.80477C40.2804 3.77457 40.1901 3.71418 40.1299 3.62359C40.0095 3.5028 39.9192 3.35182 39.9192 3.20084C39.9192 3.17064 39.9192 3.14044 39.9493 3.14044C39.9794 3.11025 40.0095 3.11025 40.0396 3.11025C40.0998 3.11025 40.1901 3.11025 40.2503 3.11025C40.4611 3.14044 40.7019 3.11025 40.9126 3.04985C40.9126 2.98946 40.9428 2.95926 40.9729 2.95926Z" fill="#3D3675"/>
<path d="M41.9966 3.35182C41.9364 3.20084 41.8461 3.04986 41.6956 2.95927C41.7859 3.14045 41.7859 3.20084 41.816 3.29143L41.9966 3.35182Z" fill="#FDFFFF"/>
<path d="M40.1903 3.95575L40.2806 3.80477C40.2505 3.68398 40.2204 3.65378 40.1602 3.44241C40.1602 3.62359 40.1602 3.80477 40.1903 3.95575Z" fill="#FDFFFF"/>
<path d="M40.1602 3.32162C40.1301 3.11024 40.1602 3.08004 40.1602 2.95926L40.0398 2.83847C40.0398 3.01965 40.0699 3.17063 40.1602 3.32162Z" fill="#FDFFFF"/>
<path d="M40.3106 3.23103C40.2805 3.01966 40.3106 2.98946 40.3106 2.86867L40.1902 2.74789C40.1902 2.92907 40.2504 3.08005 40.3106 3.23103Z" fill="#FDFFFF"/>
<path d="M41.4547 2.29494L41.4246 2.47612C41.5149 2.56671 41.545 2.56671 41.6654 2.74789C41.6052 2.56671 41.545 2.41572 41.4547 2.29494Z" fill="#FDFFFF"/>
<path d="M41.2139 2.50631C41.3042 2.5969 41.3343 2.5969 41.4547 2.77808C41.4246 2.62709 41.3644 2.44591 41.244 2.32513L41.2139 2.50631Z" fill="#FDFFFF"/>
<path d="M41.9967 3.50281C41.9063 3.29143 41.6956 3.14045 41.4849 3.08005C41.2741 3.01966 41.0333 3.04986 40.8225 3.11025C40.6419 3.17064 40.4613 3.26123 40.371 3.44241C40.2807 3.62359 40.3108 3.83497 40.371 4.01615H40.4011C40.5817 4.07654 40.7924 4.04635 41.0032 4.01615C41.3042 3.95576 41.6053 3.83497 41.8762 3.71418C41.9364 3.68399 41.9967 3.65379 41.9967 3.62359C42.0268 3.62359 42.0268 3.5632 41.9967 3.50281Z" fill="#FDCF9A"/>
<path d="M40.8225 3.17065C40.9128 3.23104 40.973 3.32163 41.0031 3.38202C41.0332 3.47261 41.0633 3.5632 41.0935 3.65379" stroke="#E29246" stroke-width="0.066023" stroke-miterlimit="10" stroke-linecap="round"/>
<path d="M120.059 72.9249C119.998 72.8343 119.818 72.8645 119.607 72.9852C119.426 73.106 119.306 73.257 119.366 73.3476C119.396 73.408 119.487 73.408 119.607 73.3778C119.788 73.6194 120.3 74.2837 120.45 74.7366L120.721 74.5857C120.721 74.5857 120.149 73.5892 119.998 73.1362C120.059 73.0456 120.089 72.9551 120.059 72.9249Z" fill="#3782AC"/>
<path d="M119.909 72.9251C119.788 73.0761 119.638 73.1969 119.457 73.2573C119.397 73.2875 119.457 73.3479 119.487 73.3177C119.668 73.2271 119.818 73.1063 119.969 72.9553C119.999 72.9553 119.939 72.8949 119.909 72.9251Z" fill="#1A526C"/>
<path d="M118.132 74.6461C118.042 74.6159 117.921 74.797 117.861 75.0084C117.801 75.2198 117.861 75.4312 117.951 75.4312C118.012 75.4312 118.102 75.3708 118.132 75.2802C118.433 75.3104 119.246 75.401 119.698 75.6124L119.758 75.3104C119.758 75.3104 118.614 75.0386 118.222 74.8272C118.222 74.7367 118.192 74.6461 118.132 74.6461Z" fill="#3782AC"/>
<path d="M118.072 74.7367C118.072 74.9178 118.042 75.099 117.982 75.2802C117.952 75.3406 118.042 75.3406 118.072 75.3104C118.132 75.1292 118.162 74.948 118.162 74.7367C118.162 74.6763 118.072 74.6763 118.072 74.7367Z" fill="#1A526C"/>
<path d="M117.952 76.941C117.861 76.9712 117.831 77.1826 117.921 77.394C118.012 77.6053 118.132 77.7261 118.253 77.6959C118.313 77.6657 118.343 77.5751 118.343 77.4544C118.614 77.3034 119.367 76.941 119.848 76.8806L119.758 76.6088C119.758 76.6088 118.644 77.0014 118.192 77.0618C118.072 76.9712 118.012 76.9108 117.952 76.941Z" fill="#3782AC"/>
<path d="M117.982 77.0618C118.072 77.2128 118.132 77.3638 118.192 77.545C118.192 77.6054 118.283 77.5752 118.283 77.5148C118.253 77.3336 118.162 77.1524 118.072 77.0014C118.012 76.9712 117.952 77.0316 117.982 77.0618Z" fill="#1A526C"/>
<path d="M120.059 79.236C119.999 79.3265 119.818 79.3265 119.607 79.2058C119.397 79.085 119.306 78.934 119.336 78.8434C119.367 78.783 119.457 78.783 119.577 78.783C119.758 78.5414 120.209 77.8469 120.36 77.3638L120.631 77.4845C120.631 77.4845 120.089 78.5414 119.999 78.9642C120.059 79.085 120.089 79.1756 120.059 79.236Z" fill="#3782AC"/>
<path d="M119.427 78.934C119.607 78.9642 119.788 79.0548 119.939 79.1756C119.969 79.2058 120.029 79.1454 119.969 79.1152C119.818 78.9944 119.637 78.934 119.457 78.8736C119.397 78.8434 119.397 78.9038 119.427 78.934Z" fill="#1A526C"/>
<path d="M122.317 79.4775C122.347 79.5681 122.166 79.6889 121.955 79.7191C121.745 79.7493 121.534 79.7191 121.534 79.5983C121.534 79.5379 121.594 79.4775 121.685 79.4171C121.654 79.1152 121.594 78.2697 121.414 77.8469L121.715 77.7865C121.715 77.7865 121.955 78.934 122.136 79.3567C122.226 79.3869 122.317 79.4171 122.317 79.4775Z" fill="#3782AC"/>
<path d="M121.624 79.6285C121.805 79.5379 122.016 79.5077 122.196 79.5379C122.257 79.5379 122.257 79.4473 122.196 79.4473C121.986 79.4171 121.775 79.4473 121.594 79.5379C121.564 79.5681 121.564 79.6285 121.624 79.6285Z" fill="#1A526C"/>
<path d="M123.672 78.481C123.732 78.5716 123.641 78.7528 123.461 78.8736C123.28 78.9944 123.1 79.0548 123.039 78.9642C123.009 78.9038 123.039 78.8132 123.1 78.7226C122.949 78.4508 122.528 77.7563 122.166 77.4242L122.407 77.243C122.407 77.243 123.13 78.1791 123.461 78.481C123.551 78.4206 123.641 78.4206 123.672 78.481Z" fill="#3782AC"/>
<path d="M123.13 78.934C123.28 78.783 123.431 78.6622 123.611 78.5414C123.641 78.5112 123.611 78.4508 123.581 78.481C123.401 78.6018 123.22 78.7226 123.069 78.9038C123.039 78.9038 123.069 78.9642 123.13 78.934Z" fill="#1A526C"/>
<path d="M124.665 76.6088C124.755 76.639 124.785 76.8504 124.695 77.0618C124.635 77.2732 124.484 77.4242 124.394 77.3638C124.334 77.3336 124.304 77.243 124.304 77.1524C124.033 77.0316 123.28 76.6692 122.798 76.6088L122.889 76.3371C122.889 76.3371 124.003 76.6994 124.454 76.7598C124.544 76.639 124.605 76.5786 124.665 76.6088Z" fill="#3782AC"/>
<path d="M124.574 76.6692C124.454 76.8504 124.394 77.0618 124.394 77.2732C124.394 77.3336 124.484 77.3336 124.484 77.2732C124.484 77.0618 124.544 76.8806 124.665 76.6994C124.665 76.6692 124.605 76.639 124.574 76.6692Z" fill="#1A526C"/>
<path d="M124.334 74.1931C124.424 74.1629 124.544 74.3139 124.605 74.5555C124.665 74.7668 124.605 74.9782 124.514 74.9782C124.454 74.9782 124.364 74.948 124.334 74.8272C124.033 74.8574 123.22 74.9782 122.768 75.1896L122.678 74.8876C122.678 74.8876 123.792 74.5857 124.213 74.3743C124.243 74.2837 124.274 74.1931 124.334 74.1931Z" fill="#3782AC"/>
<path d="M124.273 74.2837C124.273 74.4951 124.334 74.7065 124.454 74.8876C124.484 74.9178 124.544 74.8876 124.514 74.8574C124.394 74.6763 124.364 74.4951 124.334 74.2837C124.364 74.2233 124.273 74.2233 124.273 74.2837Z" fill="#1A526C"/>
<path d="M122.076 72.6833C122.106 72.5927 122.317 72.5927 122.528 72.6833C122.738 72.7739 122.859 72.9249 122.829 73.0154C122.799 73.0758 122.708 73.106 122.588 73.0758C122.437 73.3476 122.016 74.0723 121.925 74.5253L121.655 74.4045C121.655 74.4045 122.106 73.3174 122.196 72.8645C122.106 72.8041 122.046 72.7437 122.076 72.6833Z" fill="#3782AC"/>
<path d="M122.136 72.7739C122.317 72.8946 122.497 72.955 122.708 73.0154C122.768 73.0154 122.768 72.955 122.738 72.9248C122.558 72.8645 122.377 72.8041 122.196 72.6833C122.136 72.6833 122.106 72.7437 122.136 72.7739Z" fill="#1A526C"/>
<path d="M121.403 77.9998C122.467 77.9911 123.323 77.1188 123.314 76.0515C123.306 74.9841 122.436 74.1259 121.372 74.1346C120.308 74.1432 119.452 75.0155 119.461 76.0829C119.469 77.1502 120.339 78.0084 121.403 77.9998Z" fill="#3782AC"/>
<path d="M120.992 75.6727C120.811 75.401 120.119 75.5217 120.27 75.8841C120.39 76.2163 121.143 76.0653 120.992 75.6727C120.992 75.6425 120.902 75.6425 120.932 75.7029C121.052 76.0351 120.36 76.0955 120.36 75.7935C120.36 75.5519 120.842 75.5217 120.932 75.7029C120.962 75.7633 121.022 75.7029 120.992 75.6727Z" fill="#1A526C"/>
<path d="M122.106 74.7367C121.835 74.2837 120.661 74.4347 120.842 75.099C121.022 75.7029 122.347 75.4312 122.106 74.7367C122.106 74.7065 122.016 74.7065 122.046 74.7669C122.317 75.4916 120.811 75.5218 120.932 74.8876C121.022 74.4649 121.835 74.4347 122.046 74.7669C122.046 74.8272 122.106 74.7971 122.106 74.7367Z" fill="#1A526C"/>
<path d="M121.564 76.5182C121.624 76.488 121.685 76.488 121.745 76.4578C121.955 76.3673 122.196 76.2163 122.437 76.1861C122.558 76.1559 122.708 76.1559 122.829 76.2465C122.889 76.3069 122.919 76.4277 122.919 76.5182C122.919 76.6088 122.859 76.6994 122.829 76.8202C122.738 77.0014 122.648 77.1826 122.467 77.243C122.287 77.3034 122.106 77.243 121.925 77.1826C121.805 77.1524 121.685 77.092 121.564 77.092C121.233 77.092 120.932 77.3034 120.631 77.3034C120.571 77.3034 120.48 77.3034 120.42 77.243C120.3 77.1826 120.239 77.0316 120.179 76.9108C120.089 76.6994 119.999 76.488 120.119 76.3069C120.119 76.2767 120.149 76.2465 120.179 76.2465C120.209 76.2163 120.27 76.2163 120.33 76.2465C120.42 76.2767 120.51 76.3069 120.601 76.3371C120.872 76.4579 121.173 76.5182 121.474 76.5182C121.474 76.5182 121.504 76.5182 121.564 76.5182Z" fill="#3D3675"/>
<path d="M122.708 77.4543C122.678 77.243 122.618 77.0014 122.497 76.8202C122.558 77.092 122.497 77.1524 122.497 77.3034L122.708 77.4543Z" fill="#FDFFFF"/>
<path d="M120.149 77.4543L120.33 77.3034C120.33 77.1524 120.3 77.092 120.33 76.8202C120.239 77.0316 120.149 77.243 120.149 77.4543Z" fill="#FDFFFF"/>
<path d="M120.36 76.6391C120.42 76.3673 120.48 76.3371 120.541 76.1861L120.42 76.0049C120.33 76.1861 120.33 76.3975 120.36 76.6391Z" fill="#FDFFFF"/>
<path d="M120.601 76.6088C120.661 76.3371 120.721 76.3069 120.782 76.1559L120.661 75.9747C120.601 76.1559 120.571 76.3673 120.601 76.6088Z" fill="#FDFFFF"/>
<path d="M122.437 75.8841L122.317 76.0955C122.377 76.2465 122.437 76.2767 122.497 76.5484C122.528 76.3069 122.497 76.0955 122.437 75.8841Z" fill="#FDFFFF"/>
<path d="M122.076 76.0351C122.136 76.1861 122.197 76.2163 122.257 76.4881C122.287 76.2767 122.257 76.0351 122.197 75.8237L122.076 76.0351Z" fill="#FDFFFF"/>
<path d="M122.618 77.6657C122.588 77.3638 122.407 77.092 122.136 76.941C121.895 76.79 121.594 76.6994 121.293 76.6994C121.052 76.6994 120.781 76.7598 120.601 76.941C120.42 77.1222 120.36 77.4242 120.33 77.6959L120.36 77.7261C120.571 77.9073 120.842 77.9375 121.113 77.9677C121.534 77.9979 121.955 77.9979 122.347 77.9677C122.437 77.9677 122.497 77.9375 122.558 77.8771C122.618 77.7865 122.618 77.7261 122.618 77.6657Z" fill="#FDCF9A"/>
<path d="M121.263 76.6994C121.353 76.79 121.384 76.941 121.414 77.0618C121.444 77.1826 121.414 77.3336 121.414 77.4543" stroke="#E29246" stroke-width="0.088283" stroke-miterlimit="10" stroke-linecap="round"/>
<path d="M90.0744 1.20788C90.0744 1.08709 89.8636 1.0267 89.5927 1.0267C89.3519 1.05689 89.1411 1.17768 89.1411 1.26827C89.1411 1.32866 89.2314 1.38905 89.3518 1.41925C89.4121 1.75141 89.5927 2.68751 89.5325 3.26125L89.8636 3.23105C89.8636 3.23105 89.7733 1.9024 89.8636 1.35886C89.9841 1.35886 90.0744 1.29846 90.0744 1.20788Z" fill="white"/>
<path d="M89.8937 1.17768C89.6829 1.26827 89.4722 1.29846 89.2615 1.29846C89.2013 1.29846 89.2013 1.38905 89.2615 1.38905C89.5023 1.38905 89.713 1.35886 89.9238 1.26827C90.0141 1.23807 89.9539 1.14748 89.8937 1.17768Z" fill="#826F58"/>
<path d="M87.2143 1.99298C87.124 1.93259 86.9132 2.02318 86.7627 2.23456C86.6122 2.44593 86.552 2.65731 86.6423 2.7177C86.7025 2.7781 86.7928 2.7479 86.9132 2.65731C87.2143 2.83849 87.997 3.38203 88.3582 3.80478L88.569 3.53301C88.569 3.53301 87.5454 2.65731 87.2143 2.23456C87.2745 2.14397 87.2745 2.05338 87.2143 1.99298Z" fill="white"/>
<path d="M87.0946 2.05373C87.0042 2.2651 86.8838 2.41609 86.7333 2.56707C86.7032 2.59727 86.7634 2.65766 86.7935 2.62746C86.944 2.47648 87.0946 2.2953 87.1849 2.08392C87.215 2.05373 87.1247 1.99333 87.0946 2.05373Z" fill="#826F58"/>
<path d="M85.8596 4.25774C85.7391 4.25774 85.6187 4.43892 85.5886 4.68049C85.5585 4.92206 85.6488 5.16364 85.7692 5.16364C85.8294 5.16364 85.9198 5.10324 85.98 4.98246C86.3412 4.98246 87.2745 4.98246 87.8164 5.16364L87.8766 4.83147C87.8766 4.83147 86.552 4.65029 86.0402 4.46911C85.98 4.34833 85.9198 4.28793 85.8596 4.25774Z" fill="white"/>
<path d="M85.7994 4.40871C85.8295 4.62009 85.7994 4.80127 85.7693 5.01265C85.7693 5.07304 85.8295 5.10324 85.8596 5.04284C85.9198 4.83147 85.9198 4.62009 85.9198 4.40871C85.8897 4.34832 85.7994 4.34832 85.7994 4.40871Z" fill="#826F58"/>
<path d="M86.8529 7.70015C86.7626 7.76054 86.5519 7.63976 86.4014 7.45858C86.2508 7.2472 86.2207 7.03582 86.3111 6.94523C86.3713 6.91504 86.4616 6.94523 86.582 7.00563C86.8831 6.82445 87.726 6.3715 88.0873 5.94875L88.298 6.22052C88.298 6.22052 87.2142 7.00563 86.8831 7.42838C86.9132 7.54917 86.9132 7.63976 86.8529 7.70015Z" fill="white"/>
<path d="M86.3412 7.06602C86.5218 7.18681 86.6423 7.36799 86.7326 7.54917C86.7627 7.60956 86.8229 7.54917 86.8229 7.48877C86.7326 7.2774 86.5821 7.12642 86.4014 6.97543C86.3713 6.97543 86.3111 7.03583 86.3412 7.06602Z" fill="#826F58"/>
<path d="M89.0207 9.1194C88.9906 9.24018 88.7497 9.27038 88.5089 9.20998C88.2681 9.14959 88.0874 8.99861 88.1175 8.87782C88.1476 8.81743 88.238 8.75704 88.3584 8.75704C88.4788 8.42487 88.8401 7.54917 88.9003 7.00563L89.2314 7.09622C89.2314 7.09622 88.9003 8.39468 88.8702 8.93822C88.9906 8.96841 89.0508 9.059 89.0207 9.1194Z" fill="white"/>
<path d="M88.2378 8.90802C88.4786 8.90802 88.6894 8.99861 88.87 9.1194C88.9302 9.14959 88.9603 9.059 88.9302 9.02881C88.7195 8.90802 88.4786 8.81743 88.2378 8.81743C88.1776 8.81743 88.1776 8.90802 88.2378 8.90802Z" fill="#826F58"/>
<path d="M90.9472 8.78724C90.9773 8.90802 90.7665 9.02881 90.5257 9.0892C90.2848 9.1194 90.044 9.05901 90.044 8.96842C90.044 8.90802 90.1042 8.81743 90.2246 8.75704C90.1945 8.39468 90.1343 7.45859 89.9236 6.94524L90.2547 6.88485C90.2547 6.88485 90.5257 8.2135 90.7364 8.69665C90.8568 8.66645 90.9472 8.72684 90.9472 8.78724Z" fill="white"/>
<path d="M90.1342 8.96841C90.3751 8.87782 90.5858 8.84763 90.8267 8.81743C90.8869 8.81743 90.8869 8.72684 90.8267 8.72684C90.5858 8.75703 90.345 8.81743 90.1041 8.87782C90.0439 8.90802 90.074 8.96841 90.1342 8.96841Z" fill="#826F58"/>
<path d="M92.9042 7.39818C92.9945 7.48877 92.9042 7.70015 92.7235 7.88133C92.5429 8.06251 92.3322 8.1229 92.2419 8.03231C92.1817 7.97192 92.2118 7.88133 92.272 7.76054C92.0612 7.48877 91.4591 6.73385 91.0076 6.43189L91.2484 6.19032C91.2484 6.19032 92.1817 7.12641 92.6332 7.42838C92.7537 7.33779 92.8741 7.33779 92.9042 7.39818Z" fill="white"/>
<path d="M92.7837 7.39819C92.573 7.51897 92.3923 7.70015 92.2719 7.94173C92.2418 8.00212 92.3321 8.03232 92.3622 8.00212C92.4827 7.79074 92.6332 7.60956 92.8439 7.51897C92.874 7.45858 92.8439 7.36799 92.7837 7.39819Z" fill="#826F58"/>
<path d="M93.8071 4.74089C93.9275 4.77108 93.9576 4.98246 93.8974 5.25423C93.8372 5.4958 93.6867 5.67698 93.5663 5.64679C93.5061 5.61659 93.4459 5.526 93.4459 5.40521C93.1147 5.28443 92.2116 4.98246 91.6697 4.95226L91.7299 4.6201C91.7299 4.6201 93.0244 4.89187 93.5663 4.89187C93.6566 4.77108 93.7469 4.71069 93.8071 4.74089Z" fill="white"/>
<path d="M93.7169 4.80129C93.6266 5.04286 93.5664 5.25424 93.5965 5.52601C93.5965 5.5864 93.6868 5.5864 93.6868 5.52601C93.6567 5.28443 93.6868 5.07306 93.8072 4.86168C93.8072 4.77109 93.747 4.74089 93.7169 4.80129Z" fill="#826F58"/>
<path d="M92.2717 2.02318C92.362 1.96279 92.5727 2.05338 92.7233 2.23456C92.8738 2.44593 92.934 2.65731 92.8437 2.7177C92.7835 2.7781 92.6932 2.7479 92.5727 2.65731C92.2717 2.83849 91.489 3.38203 91.1277 3.80478L90.917 3.53301C90.917 3.53301 91.9405 2.65731 92.2416 2.23456C92.2115 2.17416 92.2115 2.08357 92.2717 2.02318Z" fill="white"/>
<path d="M92.2717 2.14397C92.3921 2.35535 92.5426 2.53653 92.7232 2.68751C92.7534 2.71771 92.8437 2.65732 92.7835 2.62712C92.6028 2.47614 92.4523 2.29496 92.362 2.11378C92.3319 2.05338 92.2416 2.11378 92.2717 2.14397Z" fill="#826F58"/>
<path d="M91.8119 6.12919C92.3529 5.02084 91.8957 3.68244 90.7907 3.1398C89.6857 2.59716 88.3514 3.05577 87.8104 4.16413C87.2694 5.27248 87.7266 6.61087 88.8316 7.15351C89.9366 7.69614 91.2709 7.23754 91.8119 6.12919Z" fill="white"/>
<path d="M89.6227 4.52949C89.5926 4.19733 88.8701 3.92556 88.7797 4.34832C88.6894 4.77107 89.5625 5.04284 89.6227 4.52949C89.6227 4.4691 89.5323 4.4691 89.5323 4.52949C89.4721 4.98244 88.6292 4.52949 88.9303 4.25773C89.1109 4.10674 89.5323 4.31812 89.5323 4.52949C89.5323 4.58989 89.6227 4.58989 89.6227 4.52949Z" fill="#826F58"/>
<path d="M91.2183 4.13695C91.1581 3.53301 89.8937 3.08006 89.7432 3.86518C89.6228 4.5899 91.128 4.98245 91.2183 4.13695C91.2183 4.07655 91.128 4.07655 91.128 4.13695C91.0377 4.98245 89.4722 4.28793 89.9238 3.68399C90.2249 3.29144 91.0979 3.68399 91.128 4.13695C91.128 4.19734 91.2183 4.19734 91.2183 4.13695Z" fill="#826F58"/>
<path d="M89.7733 5.67698C89.8335 5.67698 89.9238 5.70717 89.984 5.70717C90.255 5.70717 90.556 5.67698 90.827 5.76757C90.9775 5.79776 91.128 5.88835 91.1882 6.03934C91.2183 6.16012 91.1882 6.28091 91.128 6.3715C91.0678 6.46209 90.9775 6.55268 90.8872 6.61307C90.7065 6.73386 90.5259 6.88484 90.3152 6.85465C90.1044 6.82445 89.9238 6.67347 89.7733 6.52248C89.683 6.43189 89.5625 6.31111 89.4421 6.25071C89.111 6.06953 88.6895 6.16012 88.3583 6.00914C88.2981 5.97894 88.2078 5.91855 88.1777 5.85816C88.0874 5.73737 88.0874 5.55619 88.0874 5.40521C88.0874 5.16363 88.1175 4.89187 88.3282 4.74088C88.3583 4.71069 88.3885 4.71069 88.4186 4.71069C88.4788 4.71069 88.539 4.74088 88.5691 4.77108C88.6594 4.83147 88.7196 4.92206 88.8099 5.01265C89.0207 5.28442 89.2916 5.4958 89.5926 5.64678C89.6529 5.64678 89.7131 5.67698 89.7733 5.67698Z" fill="#3D3675"/>
<path d="M90.4656 7.24721C90.5559 7.00564 90.6162 6.76406 90.586 6.49229C90.4957 6.79426 90.4355 6.82446 90.3452 7.00564L90.4656 7.24721Z" fill="#FDFFFF"/>
<path d="M87.8164 5.94875L88.0874 5.88836C88.1777 5.70718 88.1476 5.64678 88.3583 5.37502C88.1476 5.526 87.9669 5.70718 87.8164 5.94875Z" fill="#FDFFFF"/>
<path d="M88.4788 5.19384C88.6895 4.95226 88.7497 4.95226 88.9002 4.80128L88.8701 4.52951C88.6895 4.71069 88.539 4.95226 88.4788 5.19384Z" fill="#FDFFFF"/>
<path d="M88.7498 5.28443C88.9605 5.04285 89.0207 5.04285 89.1713 4.89187L89.1411 4.6201C88.9605 4.80128 88.81 5.04285 88.7498 5.28443Z" fill="#FDFFFF"/>
<path d="M90.9775 5.4958L90.7668 5.64679C90.7366 5.82797 90.7968 5.88836 90.7065 6.22052C90.8571 5.97895 90.9474 5.73738 90.9775 5.4958Z" fill="#FDFFFF"/>
<path d="M90.5258 5.46561C90.4957 5.64679 90.5559 5.70719 90.4656 6.03935C90.6161 5.82797 90.7064 5.5864 90.7365 5.34483L90.5258 5.46561Z" fill="#FDFFFF"/>
<path d="M90.2549 7.39819C90.3753 7.06603 90.3151 6.70367 90.1646 6.4017C89.984 6.09974 89.713 5.88836 89.412 5.70718C89.141 5.58639 88.84 5.4958 88.569 5.58639C88.268 5.67698 88.0874 5.94875 87.9067 6.22052L87.9368 6.25072C88.0573 6.52249 88.3282 6.73386 88.5991 6.88485C88.9905 7.12642 89.4421 7.3378 89.8636 7.51898C89.9539 7.54917 90.0442 7.57937 90.1345 7.54917C90.1947 7.54917 90.2248 7.45858 90.2549 7.39819Z" fill="#FDCF9A"/>
<path d="M89.3519 5.73737C89.382 5.88836 89.3519 6.03934 89.3218 6.19032C89.2616 6.34131 89.2014 6.46209 89.1111 6.58288" stroke="#E29246" stroke-width="0.1013" stroke-miterlimit="10" stroke-linecap="round"/>
<path d="M10.1454 125.407C10.0852 123.867 10.2056 122.296 10.4163 120.756C10.5066 119.971 10.6873 119.216 10.8077 118.461C10.9883 117.706 11.169 116.952 11.3797 116.197C11.8012 114.687 12.3732 113.237 12.9451 111.788C13.5774 110.338 14.2397 108.919 14.9923 107.56C15.7148 106.171 16.5879 104.873 17.3706 103.454C18.1533 102.065 18.7554 100.555 19.1468 98.9845C19.9295 95.8441 19.8392 92.5829 19.4177 89.4424C18.9963 86.2718 18.2436 83.1615 17.6114 80.0513C16.9792 76.941 16.4072 73.8006 16.3169 70.6299C16.2567 69.0597 16.3169 67.4593 16.5276 65.889L16.8588 63.5337L17.2803 61.1784C17.9125 58.0681 18.8156 54.9881 20.1402 52.1194L20.6821 50.9417C20.8929 50.5492 21.1036 50.1868 21.3143 49.7942L21.6154 49.2205C21.7358 49.0393 21.8562 48.8581 21.9465 48.677L22.639 47.5899L23.3916 46.533C23.512 46.3518 23.6324 46.1706 23.783 46.0197L24.2044 45.5063C24.4754 45.1742 24.7463 44.842 25.0173 44.5098L25.8903 43.5435C27.0644 42.2753 28.2987 41.0674 29.6233 39.9501C30.2555 39.3764 30.9479 38.8329 31.6103 38.2893C31.9414 38.0176 32.2726 37.7156 32.6037 37.4136L33.0553 36.9305C33.2058 36.7795 33.3262 36.5983 33.4768 36.4171C34.0187 35.7226 34.4401 34.9073 34.7412 34.0618C35.0422 33.2163 35.1928 32.3406 35.2831 31.4649C35.4637 29.7135 35.3734 27.9621 35.4336 26.2409C35.4637 25.3652 35.5239 24.5197 35.6443 23.6742C35.7647 22.8287 35.9755 21.9831 36.2163 21.1678C36.4873 20.3525 36.8485 19.5674 37.2399 18.8125C37.6614 18.0878 38.143 17.3631 38.715 16.6987C39.8289 15.3701 41.1234 14.2226 42.5083 13.2261C43.8931 12.1994 45.3984 11.3237 46.9337 10.5386C50.0345 8.9986 53.3762 8.00211 56.7781 7.48877C60.1799 6.97542 63.6721 6.88483 67.1041 7.24719C70.536 7.57936 73.9379 8.30408 77.2194 9.36096C79.9589 10.2669 82.6082 11.3841 85.1069 12.7732C87.6056 14.132 90.0441 15.6419 92.3321 17.3329C96.908 20.7149 100.882 24.9122 103.561 29.8947C103.742 30.1966 103.892 30.4986 104.043 30.8308L104.525 31.7669C104.796 32.401 105.127 33.0351 105.368 33.6994L105.759 34.6657L106.12 35.6622C106.361 36.3265 106.572 36.9909 106.782 37.6552C107.595 40.3427 108.137 43.1208 108.529 45.8989C108.92 48.677 109.101 51.4852 109.161 54.2935C109.221 57.1018 109.191 59.9101 109.04 62.7184C108.739 68.335 108.258 73.9515 108.438 79.5681C108.529 82.3764 108.8 85.2149 109.341 87.9628C109.492 88.6573 109.612 89.3518 109.793 90.0463C109.974 90.7409 110.154 91.4052 110.365 92.0997C110.786 93.4586 111.389 94.7268 112.111 95.9649C113.556 98.4108 115.423 100.555 117.199 102.759C117.65 103.303 118.102 103.876 118.523 104.42C118.975 104.963 119.366 105.567 119.788 106.141L120.39 107.017L120.691 107.47L120.962 107.923L121.504 108.829L122.016 109.765L122.287 110.248L122.527 110.731L123.009 111.697C123.31 112.362 123.611 112.996 123.882 113.66C124.454 114.989 124.906 116.348 125.357 117.706C126.2 120.454 126.802 123.293 127.103 126.161C127.133 126.494 127.164 126.796 127.194 127.037C127.224 127.309 127.224 127.551 127.254 127.732C127.284 128.124 127.314 128.396 127.344 128.547C127.374 128.789 127.374 128.456 127.314 127.43C126.983 122.84 125.899 118.039 123.972 113.388C123.009 111.063 121.775 108.768 120.36 106.594C118.945 104.39 117.199 102.367 115.543 100.313C113.887 98.2296 112.231 96.0555 111.178 93.5491C110.907 92.915 110.696 92.2809 110.485 91.6468C110.305 90.9824 110.124 90.3181 109.944 89.6538C109.793 88.9895 109.673 88.2949 109.522 87.6306C109.402 86.9361 109.311 86.2718 109.191 85.5772C108.408 80.0815 108.589 74.4045 108.92 68.7577C109.07 65.9192 109.281 63.0808 109.402 60.2423C109.492 57.4038 109.462 54.5653 109.311 51.7268C108.98 46.0801 108.137 40.4333 106.21 35.1791C105.277 32.552 104.043 30.0758 102.598 27.7809C101.153 25.4558 99.4068 23.3722 97.5704 21.4698C93.8072 17.6952 89.4721 14.7964 85.1069 12.441C82.0663 10.7802 78.845 9.48174 75.5034 8.51545C72.1617 7.54916 68.7297 6.97542 65.2677 6.76405C61.8056 6.58287 58.3134 6.76405 54.8814 7.48877C51.4796 8.18329 48.168 9.39115 45.1274 11.1124C43.6222 11.9579 42.1771 12.9544 40.8224 14.0716C39.4978 15.1889 38.2635 16.4874 37.3302 17.967L36.969 18.5105L36.6679 19.0843C36.5475 19.2655 36.4572 19.4768 36.397 19.6882C36.3066 19.8996 36.2163 20.0808 36.126 20.2921C35.7949 21.1074 35.5841 21.953 35.4035 22.8287C35.0723 24.5499 35.0422 26.3013 35.0422 28.0527C35.0121 29.8041 35.0422 31.5555 34.5907 33.2163C34.1692 34.8771 33.2058 36.4171 31.8812 37.5042C29.1718 39.6784 26.5225 42.0035 24.2947 44.691L23.4819 45.7177C23.211 46.0801 22.9701 46.4122 22.6992 46.7746L22.3078 47.3181L21.9465 47.8617L21.2541 48.9789L20.6219 50.1264C20.5316 50.3076 20.4112 50.519 20.3209 50.7001L20.0499 51.3041L19.4779 52.4817L18.9963 53.6896C17.7017 56.9508 16.919 60.3631 16.3771 63.8055C16.2567 64.6812 16.1363 65.5267 16.046 66.4024C15.9556 67.2781 15.8954 68.1538 15.8954 69.0295C15.8653 70.7809 15.9858 72.5323 16.2266 74.2535C16.6782 77.7261 17.4609 81.1081 18.1834 84.5204C18.8758 87.9326 19.4779 91.375 19.3575 94.8476C19.2973 96.5688 19.0264 98.29 18.5146 99.9508C18.364 100.374 18.2436 100.766 18.0931 101.159L17.8523 101.763C17.7619 101.974 17.6716 102.155 17.5813 102.336L17.3104 102.91L16.9792 103.484C16.7685 103.846 16.5577 104.239 16.3169 104.601C15.8653 105.356 15.4138 106.081 15.0224 106.866L14.3902 108.013L13.8182 109.191C13.4268 109.976 13.0957 110.761 12.7344 111.546C12.5538 111.939 12.4033 112.362 12.2527 112.754C12.1022 113.147 11.9216 113.57 11.8012 113.962C11.1991 115.593 10.7776 117.284 10.4464 118.975C10.1153 120.666 9.93465 122.387 9.90454 124.138C9.90454 126.584 10.2357 128.185 10.326 128.547C10.3862 128.728 10.3561 128.577 10.2959 128.064C10.2658 127.943 10.2658 127.792 10.2357 127.611C10.2056 127.43 10.2056 127.249 10.1755 127.007C10.2056 126.614 10.2056 126.071 10.1454 125.407Z" fill="white"/>
<g opacity="0.5">
<path opacity="0.5" d="M111.539 129C115.543 128.154 117.169 126.856 113.315 126.403C108.197 125.829 104.494 124.712 99.3464 124.289C99.3765 124.289 99.3765 124.259 99.4066 124.259C102.236 122.387 100.611 118.673 96.9681 118.673C86.04 118.643 75.1119 120.817 65.4782 124.984C62.4075 124.621 59.1863 125.225 56.5973 126.584C55.6339 127.098 54.7308 127.702 53.647 127.973C52.0815 128.366 50.2752 128.004 48.8904 128.728L49.2817 129H111.539Z" fill="#0A0A0A"/>
</g>
<path d="M60.1196 114.113L58.4036 126.131L53.5266 125.588L55.6641 113.57L60.1196 114.113Z" fill="#E6A19A"/>
<path d="M58.6745 129V125.165L53.5567 124.893C53.3158 125.678 52.6836 126.282 51.9009 126.494C49.8236 127.067 48.8603 128.004 48.499 129.03H58.6745V129Z" fill="#2B2727"/>
<path d="M52.3826 126.161C51.901 126.01 51.4193 125.799 51.0279 125.467C50.8172 125.316 50.6365 125.135 50.486 124.923C50.4258 124.833 50.3656 124.742 50.3355 124.652C50.3054 124.561 50.3355 124.501 50.3656 124.47C50.4258 124.38 50.7871 124.41 51.058 124.44C51.329 124.47 51.5999 124.561 51.8709 124.682C52.1117 124.803 52.3525 124.954 52.5633 125.165C52.774 125.346 52.9847 125.588 52.9847 125.769L53.1654 125.618C53.0148 125.588 52.8643 125.407 52.8041 125.195C52.7439 124.984 52.7138 124.712 52.6837 124.47C52.6536 124.229 52.6235 123.987 52.6235 123.746C52.6235 123.504 52.5934 123.263 52.6837 123.051C52.7138 122.961 52.774 122.81 52.8643 122.87C52.9546 122.961 53.0148 123.051 53.0751 123.142C53.1955 123.353 53.2858 123.565 53.346 123.806C53.4363 124.289 53.3761 124.772 53.2858 125.256C53.2557 125.376 53.346 125.407 53.3761 125.316C53.5266 124.954 53.6772 124.501 53.647 123.987C53.647 123.746 53.5868 123.474 53.4664 123.232C53.4062 123.112 53.346 122.991 53.2557 122.87C53.2256 122.81 53.1654 122.749 53.1353 122.719C53.1052 122.689 53.1052 122.659 53.0449 122.629C52.9847 122.598 52.8643 122.538 52.7439 122.568C52.5332 122.659 52.5332 122.779 52.473 122.84C52.4428 122.9 52.4127 122.991 52.4127 123.051C52.3826 123.202 52.3826 123.323 52.3826 123.474C52.3826 123.716 52.4127 123.987 52.4127 124.229C52.4429 124.47 52.473 124.712 52.5031 124.954C52.5332 125.195 52.5934 125.437 52.7439 125.648C52.8342 125.769 52.9546 125.86 53.1353 125.89L53.2858 125.92V125.799C53.2858 125.618 53.1955 125.467 53.1052 125.346C53.0148 125.225 52.9245 125.105 52.8041 125.014C52.5934 124.803 52.3525 124.621 52.0816 124.501C51.8106 124.35 51.5397 124.259 51.2688 124.199C51.1182 124.169 50.9677 124.138 50.8172 124.138C50.6667 124.138 50.5161 124.108 50.3656 124.169C50.185 124.199 50.0645 124.38 50.0344 124.561C50.0043 124.742 50.0646 124.893 50.1549 125.014C50.3355 125.256 50.5161 125.467 50.757 125.648C51.2085 126.011 51.7504 126.252 52.3224 126.312C52.5332 126.373 52.5934 126.222 52.3826 126.161Z" fill="#3B2D26"/>
<path d="M55.0016 60.4235L50.3955 121.843L61.9257 122.145L66.9533 60.1215L55.0016 60.4235Z" fill="#3E437E"/>
<g opacity="0.51">
<g opacity="0.51">
<path opacity="0.51" d="M54.4298 114.264C55.2426 112.724 55.905 111.063 56.5372 109.433C57.2296 107.621 57.8919 105.809 58.4338 103.937C59.3068 100.827 59.8186 97.8371 60.0594 94.606C60.0895 94.4249 59.9992 94.3645 59.9691 94.5155C59.7283 95.7837 59.5477 97.2935 59.2767 98.8336C59.0359 100.374 58.7047 101.944 58.3435 103.272C57.2898 106.987 55.7243 110.55 54.2793 114.113C54.189 114.415 54.2492 114.566 54.4298 114.264Z" fill="#3B2D26"/>
</g>
<g opacity="0.51">
<path opacity="0.51" d="M53.0148 104.752C53.647 103.907 54.0986 102.91 54.52 101.944C54.9716 100.857 55.3931 99.7697 55.7242 98.6524C56.2661 96.7802 56.5973 94.9986 57.0187 93.1264C57.0488 93.0056 56.9585 92.9754 56.9284 93.066C56.5973 93.7907 56.3865 94.6966 56.2059 95.6025C55.9952 96.5084 55.8145 97.4747 55.5737 98.2598C54.9114 100.464 53.9179 102.608 52.8944 104.662C52.804 104.812 52.8944 104.933 53.0148 104.752Z" fill="#3B2D26"/>
</g>
</g>
<path d="M74.0278 114.113L76.075 126.131L80.952 125.588L78.4834 113.57L74.0278 114.113Z" fill="#E6A19A"/>
<path d="M75.8042 129V125.165L80.9221 124.893C81.1629 125.678 81.7951 126.282 82.5778 126.494C84.6551 127.067 85.6185 128.004 85.9797 129.03H75.8042V129Z" fill="#2B2727"/>
<path d="M82.1262 126.463C82.6982 126.433 83.2702 126.222 83.7519 125.86C83.9927 125.678 84.2034 125.467 84.3841 125.225C84.4744 125.105 84.5647 124.954 84.5948 124.742C84.6249 124.561 84.5948 124.32 84.4142 124.169C84.2034 123.987 83.9927 123.987 83.8422 123.987C83.6917 123.987 83.511 124.018 83.3605 124.048C83.0594 124.108 82.7283 124.199 82.4573 124.35C82.1864 124.501 81.9154 124.682 81.6746 124.923C81.5542 125.044 81.4639 125.165 81.3736 125.286C81.2832 125.407 81.1929 125.588 81.1929 125.799V126.011L81.3736 125.98H81.4037C81.7348 125.89 81.8854 125.558 81.9456 125.316C81.9757 125.044 82.0058 124.803 82.0058 124.561C82.0058 124.32 82.0058 124.078 82.0058 123.806C82.0058 123.565 82.0058 123.323 81.9155 123.051C81.8853 122.991 81.8552 122.93 81.8251 122.87C81.795 122.84 81.7649 122.81 81.7348 122.81C81.6746 122.81 81.6445 122.84 81.6144 122.84C81.5241 122.93 81.4639 123.021 81.4037 123.142C81.2832 123.353 81.1929 123.595 81.1327 123.836C81.0424 124.32 81.0725 124.833 81.1026 125.346C81.1026 125.467 81.1929 125.467 81.1929 125.376C81.223 124.954 81.223 124.531 81.3134 124.108C81.3435 123.897 81.4037 123.685 81.494 123.504C81.5241 123.414 81.5843 123.323 81.6445 123.232C81.6746 123.202 81.7047 123.142 81.7348 123.112C81.7649 123.081 81.7649 123.081 81.7649 123.081C81.7649 123.081 81.7047 123.112 81.6445 123.112C81.5542 123.081 81.6144 123.081 81.6144 123.112C81.6445 123.142 81.6445 123.202 81.6746 123.232C81.7047 123.323 81.7047 123.444 81.7348 123.565C81.7649 123.806 81.7649 124.048 81.7649 124.289C81.7649 124.531 81.7649 124.772 81.7348 124.984C81.7348 125.195 81.7047 125.407 81.5843 125.558C81.5241 125.648 81.4338 125.709 81.3435 125.739L81.4639 125.86C81.4639 125.648 81.6746 125.407 81.8552 125.225C82.066 125.044 82.2767 124.863 82.5176 124.742C82.7584 124.621 83.0293 124.501 83.3003 124.44C83.4207 124.41 83.5712 124.38 83.7218 124.38C83.8723 124.38 83.9927 124.35 84.1131 124.41C84.354 124.47 84.3841 124.772 84.2335 124.984C84.083 125.195 83.9024 125.407 83.6917 125.588C83.2702 125.95 82.7584 126.192 82.2165 126.312C81.9456 126.312 81.8853 126.463 82.1262 126.463Z" fill="#3B2D26"/>
<path d="M74.058 59.5477L82.9691 121.994L72.2517 122.115L60.6914 59.8497L74.058 59.5477Z" fill="#3E437E"/>
<path d="M70.656 62.2957C70.656 63.1412 70.8667 64.0169 71.1377 64.8322C71.4086 65.7381 71.8 66.6138 72.2817 67.4291C72.673 68.0934 73.1246 68.7275 73.6364 69.2711C74.1482 69.8448 74.66 70.3883 75.232 70.9017C75.2922 70.9621 75.3524 70.9017 75.3223 70.8413C74.961 70.3279 74.4793 69.7844 73.9676 69.2409C73.4859 68.6973 72.9741 68.0934 72.6429 67.5197C71.6796 65.9494 71.1979 64.1075 70.8366 62.2957C70.8065 62.1447 70.656 62.1145 70.656 62.2957Z" fill="#3B2D26"/>
<path d="M65.5685 83.9164C65.5384 83.1011 65.3277 82.2556 65.147 81.4403C64.9664 80.5344 64.7858 79.6587 64.5449 78.7528C64.1837 77.2732 63.702 75.9143 63.4913 74.4045C63.4913 74.3139 63.4009 74.3139 63.4009 74.3743C63.2805 75.6426 63.9428 77.243 64.2439 78.5112C64.6352 80.2928 64.9363 82.1046 65.3879 83.8862C65.418 84.0674 65.5685 84.0976 65.5685 83.9164Z" fill="#3B2D26"/>
<path d="M69.5424 17.9674C69.5424 17.9674 66.2007 15.2195 63.2203 20.0208C60.2399 24.8523 61.685 24.3691 56.3564 22.6177C51.0579 20.8663 45.2778 20.4436 42.6887 26.6037L48.0474 33.7603C48.0474 33.7603 51.3891 29.5327 56.1457 32.19C60.9022 34.8474 67.7662 33.2771 68.1576 27.9625C68.579 22.6177 69.5424 17.9674 69.5424 17.9674Z" fill="#0E1841"/>
<path d="M72.1615 22.4965C71.9207 20.3223 70.2047 18.5407 68.0371 18.3294C67.3748 18.269 66.6824 18.3294 66.0201 18.6615C64.4245 19.4164 63.8525 21.8322 63.6418 23.644L63.7622 25.9389L63.4612 35.3904C64.8159 41.2788 69.422 41.1278 69.5123 33.8806L69.4822 29.1397C72.3121 28.415 72.4325 24.9424 72.1615 22.4965Z" fill="#E6A19A"/>
<path d="M69.5115 29.2001C69.5115 29.2001 68.217 29.6531 66.4106 28.4452C66.4106 28.4452 67.4342 30.559 69.5416 31.3139L69.5115 29.2001Z" fill="#BA7B77"/>
<path d="M69.5123 29.2001C69.2714 29.3209 68.9704 29.3511 68.6994 29.3511C68.4285 29.3511 68.1274 29.2907 67.8565 29.2303C67.5855 29.1397 67.3146 29.0492 67.0738 28.8982C66.9533 28.8378 66.8329 28.7472 66.7125 28.6868C66.5921 28.5962 66.5018 28.5358 66.3813 28.4452C66.6222 28.566 66.8931 28.6868 67.134 28.7774C67.3748 28.868 67.6458 28.9888 67.8866 29.0492C68.1575 29.1397 68.3984 29.2001 68.6693 29.2303C68.9704 29.2303 69.2413 29.2303 69.5123 29.2001Z" fill="black"/>
<path d="M67.8567 24.9424C68.0072 25.2142 68.218 25.4256 68.4287 25.6067C68.6394 25.7879 68.9104 25.9087 69.1813 25.9389C69.4523 25.9691 69.7232 25.9087 70.0242 25.8181L70.4156 25.6369C70.536 25.5765 70.6865 25.4859 70.807 25.4256C70.6865 25.5463 70.5962 25.6369 70.4758 25.7275C70.3554 25.8181 70.2049 25.9087 70.0845 25.9691C69.8135 26.0899 69.4824 26.1805 69.1512 26.1805C68.82 26.1503 68.519 25.9993 68.2782 25.7577C68.0674 25.5161 67.9169 25.2444 67.8567 24.9424Z" fill="black"/>
<path d="M70.0242 21.5604C70.1145 21.8322 70.235 22.1341 70.3554 22.4059C70.4758 22.6777 70.5962 22.9494 70.7467 23.191C70.807 23.3118 70.8973 23.4326 70.9876 23.5534L71.0177 23.5836L71.0478 23.6138C71.0779 23.644 71.0478 23.7043 71.0478 23.7043C71.0177 23.7647 70.9876 23.7647 70.9876 23.7949C70.9575 23.8251 70.9274 23.8553 70.8973 23.8553L70.7166 23.9761C70.4758 24.1271 70.2049 24.3083 69.9339 24.4291H69.9038V24.3989L70.6263 23.8553L70.807 23.7043C70.8371 23.6742 70.8672 23.644 70.8973 23.644C70.8973 23.644 70.9274 23.6138 70.8973 23.644C70.8973 23.644 70.8672 23.7043 70.8973 23.7345C70.8973 23.7647 70.8973 23.7647 70.8973 23.7345L70.8672 23.7043C70.7467 23.5836 70.6564 23.4628 70.5661 23.342C70.3855 23.0702 70.2952 22.7985 70.2049 22.4965C70.1145 22.1945 70.0543 21.9227 69.9941 21.6208C69.9941 21.5906 69.9941 21.5906 70.0242 21.5906C69.9941 21.5302 69.9941 21.5604 70.0242 21.5604Z" fill="black"/>
<path d="M68.7599 22.1945C68.8201 22.4361 68.8201 22.6777 68.79 22.9494C68.79 23.0702 68.7599 23.2212 68.6997 23.342C68.6395 23.4628 68.519 23.5836 68.3685 23.644C68.218 23.7044 68.0374 23.644 67.9169 23.5836C67.7965 23.493 67.7062 23.4024 67.6159 23.3118C67.4654 23.1004 67.345 22.889 67.2546 22.6475C67.2546 22.6173 67.2546 22.5569 67.3149 22.5569C67.345 22.5569 67.4052 22.5569 67.4052 22.5871C67.5256 22.7985 67.646 22.9796 67.7965 23.1608C67.947 23.342 68.1277 23.4628 68.2782 23.4326C68.4287 23.4024 68.519 23.1608 68.5792 22.9494C68.6094 22.7381 68.6395 22.4965 68.6093 22.2549C68.6093 22.2247 68.6395 22.1945 68.6696 22.1945C68.7298 22.1341 68.7599 22.1643 68.7599 22.1945Z" fill="black"/>
<path d="M72.0111 21.953C72.0713 22.1945 72.0713 22.4059 72.0713 22.6475C72.0713 22.7683 72.0412 22.889 72.0111 23.0098C71.981 23.1306 71.8907 23.2816 71.71 23.342C71.5294 23.3722 71.3789 23.2816 71.2886 23.191C71.1983 23.1004 71.138 23.0098 71.0778 22.889C70.9574 22.6777 70.8671 22.4663 70.8069 22.2549C70.8069 22.2247 70.8069 22.1643 70.8671 22.1643C70.8972 22.1643 70.9273 22.1643 70.9574 22.1945C71.0477 22.4059 71.1681 22.5871 71.2886 22.7683C71.3488 22.8588 71.409 22.9494 71.4692 23.0098C71.5294 23.0702 71.6197 23.1004 71.6498 23.1004C71.71 23.1004 71.7401 23.04 71.8004 22.9494C71.8305 22.8588 71.8606 22.7381 71.8606 22.6475C71.8907 22.4361 71.8907 22.1945 71.8907 21.9832C71.8907 21.953 71.9208 21.9228 71.9509 21.9228C71.981 21.8926 72.0111 21.9228 72.0111 21.953Z" fill="black"/>
<path d="M63.3882 23.8847C63.7373 23.8776 64.0126 23.4934 64.0032 23.0265C63.9937 22.5597 63.7031 22.1869 63.354 22.194C63.0049 22.2012 62.7296 22.5854 62.739 23.0522C62.7485 23.5191 63.0391 23.8918 63.3882 23.8847Z" fill="#E6A19A"/>
<path d="M63.5213 22.8286C63.431 22.8286 63.3407 22.8286 63.2805 22.8588C63.2203 22.889 63.1601 22.9494 63.1601 23.04C63.13 23.1306 63.1601 23.191 63.2203 23.2514C63.2805 23.2816 63.3708 23.3118 63.4611 23.3118C63.4611 23.3118 63.4912 23.3118 63.4912 23.342C63.4912 23.342 63.4912 23.3722 63.4611 23.3722C63.3708 23.4024 63.2504 23.4024 63.1601 23.342C63.0397 23.2816 63.0096 23.1306 63.0397 23.04C63.0397 22.9192 63.13 22.8286 63.2504 22.7682C63.3407 22.7381 63.4611 22.7381 63.5514 22.7381C63.5816 22.7381 63.5816 22.7682 63.5816 22.7984C63.5816 22.8286 63.5514 22.8286 63.5213 22.8286Z" fill="black"/>
<path d="M63.5513 21.3188L63.8222 22.4361C63.8222 22.4361 65.6586 22.4663 65.8995 19.2956C65.8995 19.2956 68.1573 21.6208 71.7398 20.9565C71.7398 20.9565 71.6796 17.0611 66.8929 17.1819C66.8929 17.1819 64.2437 18.3596 63.5513 21.3188Z" fill="#0E1841"/>
<path d="M88.3581 30.3174C88.3581 30.3174 86.5819 34.243 85.3777 38.3799C86.9431 38.8027 88.5387 39.1952 90.1343 39.5576C90.4353 37.7458 90.7364 35.5112 90.9471 32.7935L91.2181 31.1931C91.2181 31.1931 92.9641 26.6636 92.9641 26.3013C92.934 25.9389 92.0309 27.5393 92.0309 27.5393C92.0309 27.5393 92.6029 25.8483 92.5427 25.3048C92.4825 24.8518 91.3084 26.9354 91.3084 26.9354C91.8503 24.3385 91.9105 24.4593 91.8503 24.3385C91.6696 24.0063 90.5858 26.875 90.5858 26.875C90.5858 26.875 91.0976 24.9424 90.7966 24.7009C90.5256 24.4593 89.1709 28.0527 89.1709 28.0527C89.1709 28.0527 88.8699 27.2072 88.1172 26.9052C87.9366 26.8146 87.6958 26.9656 87.6055 27.1166C88.3882 27.7507 88.3581 30.3174 88.3581 30.3174Z" fill="#E6A19A"/>
<path d="M86.5819 32.703L81.163 45.7177C81.163 45.7177 78.7546 40.7957 76.1355 37.2928C73.5164 33.79 69.6328 33.6089 69.6328 33.6089V33.6994C68.7899 34.5751 69.0608 34.4544 67.3749 34.6959C67.0137 34.7563 66.6825 34.7865 66.2912 34.7563C65.7794 34.6959 65.2375 34.6657 64.7558 34.4846C64.244 34.2732 63.7623 34.0618 63.3409 33.6994H61.8958C52.9245 36.2662 42.448 69.0597 42.448 69.0597L47.325 71.1433L54.5502 60.5442L54.5201 61.3897L75.0818 61.7823L75.2625 54.8673C77.4601 56.9206 79.7782 58.4607 81.6146 58.1587C86.5217 57.3736 88.3882 50.2472 88.3882 50.2472L91.9707 34.9677L86.5819 32.703Z" fill="#ECE4DE"/>
<path d="M91.7899 36.9305C91.3383 36.5983 90.8265 36.4171 90.2846 36.236C89.7126 36.0246 89.1708 35.8132 88.5988 35.6018C87.6354 35.2697 86.7323 35.0281 85.8291 34.545C85.7689 34.5148 85.7388 34.5752 85.7689 34.6355C86.3409 35.3301 87.515 35.5112 88.2977 35.783C89.4116 36.2058 90.5255 36.7191 91.6695 37.0815C91.7899 37.1117 91.8802 36.9909 91.7899 36.9305Z" fill="#3B2D26"/>
<path d="M86.7321 33.8806C86.7321 33.8806 86.7321 33.9108 86.702 33.9108C86.6719 33.9108 86.6719 33.9108 86.702 33.9108C86.7321 33.9108 86.7321 33.9108 86.7622 33.9108C86.7622 33.9108 86.7622 33.9108 86.7622 33.8806C86.7321 33.8806 86.7923 33.8504 86.7321 33.8806C86.7622 33.8806 86.7321 33.8806 86.7321 33.8806C86.702 33.8806 86.7622 33.8806 86.7321 33.8806C86.7622 33.8806 86.7622 33.941 86.7622 33.941C86.7622 33.941 86.7622 33.941 86.7622 33.9108L86.7321 33.8504C86.7321 33.8504 86.6719 33.8202 86.702 33.8504V33.8806C86.702 33.9108 86.702 33.9108 86.702 33.9108C86.702 33.9108 86.6719 33.9108 86.6719 33.8806C86.6418 33.8202 86.702 33.7598 86.7622 33.7598C86.7923 33.79 86.8224 33.8504 86.8224 33.8806C86.8224 33.941 86.7622 33.9712 86.7321 33.9712C86.7321 33.9712 86.7321 34.0618 86.7622 34.0618C86.973 34.2128 87.3041 33.79 86.9429 33.5183L86.9128 33.4881H86.8526C86.7321 33.4579 86.6117 33.5183 86.5515 33.6089C86.4913 33.6693 86.4612 33.7598 86.4612 33.8202C86.4612 33.8806 86.4612 33.9712 86.5214 34.0316C86.5816 34.092 86.6418 34.1524 86.702 34.1524C86.8224 34.1826 86.9128 34.092 86.973 34.0316C87.0332 33.9712 87.0633 33.8202 86.973 33.7296L86.9429 33.6994H86.9128C86.8224 33.6693 86.7321 33.6693 86.6418 33.7296C86.6117 33.7598 86.5816 33.79 86.5515 33.8504C86.5515 33.9108 86.5515 33.9712 86.5816 34.0014C86.6117 34.0316 86.6418 34.0618 86.702 34.092C86.7622 34.092 86.8224 34.092 86.8526 34.0316C86.8827 33.9712 86.8827 33.9108 86.8526 33.8806C86.8224 33.8504 86.7923 33.8202 86.7622 33.8202C86.7321 33.79 86.7321 33.8504 86.7321 33.8806C86.7622 33.9108 86.7321 33.8806 86.7321 33.8806Z" fill="#3B2D26"/>
<path d="M69.7831 33.8806C69.2111 35.632 68.7595 37.4438 68.3381 39.2556C67.9467 40.8862 67.5553 42.4867 67.1339 44.1173L67.465 44.0871C67.3145 43.7549 67.164 43.3926 67.0134 43.0604C65.6587 39.9501 64.304 37.0513 63.0998 33.8806C63.0396 33.6994 62.9493 33.6692 62.9794 33.8202C63.6417 36.4775 65.3878 39.9199 66.5318 42.5773C66.7726 43.1208 66.9833 43.6341 67.2242 44.1777L67.3446 44.4796L67.4349 44.1777C68.2778 40.7956 69.181 37.3834 69.9637 34.0014C69.9938 33.6692 69.9035 33.5183 69.7831 33.8806Z" fill="#3B2D26"/>
<path d="M67.0738 61.3596C67.2243 59.9403 67.2243 58.4607 67.2544 56.981C67.2544 55.3806 67.2845 53.7802 67.2845 52.1798C67.2845 49.5225 67.1942 47.0162 67.3748 44.3287C67.3748 44.1777 67.3146 44.1475 67.2845 44.2381C66.8329 46.3518 67.0437 49.3715 67.0437 51.6664C67.0136 54.8673 66.8931 58.0983 66.9232 61.269C66.8931 61.5407 67.0437 61.6615 67.0738 61.3596Z" fill="#3B2D26"/>
<path d="M69.4821 33.639C69.1811 34.0014 68.7295 34.2732 68.2177 34.4242C67.6457 34.5751 67.0436 34.6053 66.4114 34.6053C65.8996 34.6053 65.3878 34.5751 64.9061 34.4544C64.4245 34.3336 63.9127 34.1524 63.5815 33.79C63.5514 33.7598 63.4912 33.79 63.4912 33.8504C63.6718 34.3034 64.1836 34.5751 64.6954 34.6959C65.2072 34.8167 65.7491 34.8469 66.2007 34.8469C66.8329 34.8771 67.4651 34.9073 68.0973 34.7563C68.3983 34.6959 68.7295 34.5751 69.0004 34.4242C69.2714 34.2732 69.5122 34.0316 69.6326 33.7296C69.6627 33.639 69.5423 33.5787 69.4821 33.639Z" fill="#3B2D26"/>
<path d="M74.8709 59.5779C73.185 59.427 71.469 59.4572 69.753 59.4572C67.8865 59.4572 66.02 59.4572 64.1535 59.4572C61.0527 59.4873 58.1325 59.5779 55.0016 59.427C54.8209 59.427 54.7607 59.4874 54.9112 59.5176C57.3799 59.9705 60.9021 59.7289 63.5514 59.7289C67.2844 59.7289 71.0475 59.8195 74.7505 59.7591C75.1418 59.7591 75.2321 59.6081 74.8709 59.5779Z" fill="#3B2D26"/>
<path d="M75.1119 49.0393C74.9613 50.0962 74.9613 51.1833 74.9613 52.2704C74.9613 53.448 74.9312 54.6257 74.9613 55.8336C74.9914 57.7964 75.0818 59.6686 74.9011 61.6313C74.9011 61.7521 74.9613 61.7823 74.9914 61.6917C75.4431 60.1517 75.2022 57.8869 75.2022 56.2261C75.2022 53.8708 75.3226 51.4853 75.2624 49.1299C75.2925 48.8884 75.142 48.828 75.1119 49.0393Z" fill="#3B2D26"/>
<path d="M54.9113 61.2992C55.092 60.3027 55.1221 59.276 55.1522 58.2191C55.1823 57.1018 55.2425 55.9544 55.2726 54.8371C55.3328 52.9649 55.2726 51.2135 55.5134 49.3413C55.5134 49.2507 55.4532 49.1903 55.4231 49.2809C54.9113 50.7303 55.092 52.8743 55.0318 54.4747C54.9414 56.7093 54.7608 58.974 54.7307 61.2086C54.7307 61.4501 54.8511 61.5105 54.9113 61.2992Z" fill="#3B2D26"/>
<path d="M66.4113 45.5365C66.4113 45.5365 66.4113 45.5667 66.3812 45.5667C66.3511 45.5667 66.3511 45.5667 66.3812 45.5667C66.4113 45.5667 66.4113 45.5667 66.4414 45.5667C66.4414 45.5667 66.4414 45.5667 66.4414 45.5365C66.4113 45.5667 66.4414 45.5063 66.4113 45.5365C66.4113 45.5365 66.3812 45.5365 66.4113 45.5365C66.3511 45.5365 66.4113 45.5365 66.4113 45.5365C66.4414 45.5365 66.4414 45.5969 66.4414 45.5969C66.4414 45.5969 66.4414 45.5969 66.4414 45.5667L66.4113 45.5063C66.4113 45.5063 66.3511 45.4761 66.3812 45.5063V45.5365C66.3812 45.5667 66.3812 45.5667 66.3812 45.5667C66.3812 45.5667 66.3511 45.5667 66.3511 45.5365C66.321 45.4761 66.3812 45.4157 66.4414 45.4157C66.4715 45.4459 66.5016 45.5063 66.5016 45.5365C66.5016 45.5969 66.4414 45.6271 66.4113 45.6271C66.4113 45.6271 66.4113 45.7177 66.4414 45.7177C66.6522 45.8687 66.9833 45.4459 66.6221 45.1741L66.5919 45.1439H66.5317C66.4113 45.1138 66.2909 45.1741 66.2307 45.2647C66.1705 45.3251 66.1404 45.4157 66.1404 45.4761C66.1404 45.5365 66.1404 45.6271 66.2006 45.6875C66.2608 45.7479 66.321 45.8083 66.3812 45.8083C66.5016 45.8385 66.5919 45.7479 66.6522 45.6875C66.7124 45.6271 66.7425 45.4761 66.6522 45.3855L66.6221 45.3553H66.5919C66.5016 45.3251 66.4113 45.3251 66.321 45.3855C66.2909 45.4157 66.2608 45.4459 66.2307 45.5063C66.2307 45.5667 66.2307 45.6271 66.2608 45.6573C66.2909 45.6875 66.321 45.7177 66.3812 45.7479C66.4414 45.7479 66.5016 45.7479 66.5317 45.6875C66.5618 45.6271 66.5618 45.5667 66.5317 45.5365C66.5016 45.5063 66.4715 45.4761 66.4414 45.4761C66.3812 45.4761 66.3812 45.5063 66.4113 45.5365C66.4113 45.5667 66.4113 45.5365 66.4113 45.5365Z" fill="#3B2D26"/>
<path d="M66.2006 49.2809C66.2006 49.2809 66.2006 49.3111 66.1705 49.3111C66.1404 49.3111 66.1404 49.3111 66.1705 49.3111C66.2006 49.3111 66.2006 49.3111 66.2307 49.3111C66.2307 49.3111 66.2307 49.3111 66.2307 49.2809C66.2006 49.2809 66.2608 49.2507 66.2006 49.2809C66.2307 49.2507 66.2006 49.2809 66.2006 49.2809C66.1705 49.2507 66.2307 49.2809 66.2006 49.2809C66.2307 49.2809 66.2307 49.2809 66.2006 49.2809C66.2307 49.2809 66.2307 49.3413 66.2307 49.3413C66.2307 49.3413 66.2307 49.3413 66.2307 49.3111L66.2006 49.2507C66.2006 49.2507 66.1404 49.2205 66.1705 49.2507V49.2809C66.1705 49.3111 66.1705 49.3111 66.1705 49.3111C66.1705 49.3111 66.1404 49.3111 66.1404 49.2809C66.1103 49.2205 66.1705 49.1601 66.2307 49.1601C66.2608 49.1903 66.2909 49.2507 66.2909 49.2809C66.2909 49.3413 66.2307 49.3715 66.2006 49.3715C66.2006 49.3715 66.2006 49.4621 66.2307 49.4621C66.4415 49.6131 66.7726 49.1903 66.4114 48.9185L66.3813 48.8883H66.321C66.2006 48.8581 66.0802 48.9185 66.02 49.0091C65.9598 49.0695 65.9297 49.1601 65.9297 49.2205C65.9297 49.2809 65.9297 49.3715 65.9899 49.4319C66.0501 49.4923 66.1103 49.5527 66.1705 49.5527C66.2909 49.5829 66.3812 49.4923 66.4415 49.4319C66.5017 49.3715 66.5318 49.2205 66.4415 49.1299L66.4114 49.0997H66.3813C66.2909 49.0695 66.2006 49.0695 66.1103 49.1299C66.0802 49.1601 66.0501 49.1903 66.02 49.2507C66.02 49.3111 66.02 49.3715 66.0501 49.4017C66.0802 49.4319 66.1103 49.4621 66.1705 49.4923C66.2307 49.4923 66.2909 49.4923 66.321 49.4319C66.3511 49.3715 66.3511 49.3111 66.321 49.2809C66.2909 49.2507 66.2608 49.2205 66.2307 49.2205C66.2006 49.1903 66.2006 49.2507 66.2006 49.2809C66.2307 49.3111 66.2006 49.2809 66.2006 49.2809Z" fill="#3B2D26"/>
<path d="M66.02 52.9951C66.02 52.9951 66.02 53.0253 65.9899 53.0253C65.9598 53.0253 65.9598 53.0253 65.9899 53.0253C66.02 53.0253 66.02 53.0253 66.0501 53.0253C66.0501 53.0253 66.0501 53.0253 66.0501 52.9951C66.02 53.0253 66.0501 52.9649 66.02 52.9951C65.9899 52.9951 66.02 52.9951 66.02 52.9951C66.0501 52.9951 66.0501 53.0555 66.0501 53.0555C66.0501 53.0555 66.0501 53.0555 66.0501 53.0253L66.02 52.9649C66.02 52.9649 65.9598 52.9347 65.9899 52.9649V52.9951C65.9899 53.0253 65.9899 53.0253 65.9899 53.0253C65.9899 53.0253 65.9598 53.0253 65.9598 52.9951C65.9297 52.9347 65.9899 52.8743 66.0501 52.8743C66.0802 52.9045 66.1103 52.9649 66.1103 52.9951C66.1103 53.0555 66.0501 53.0857 66.02 53.0857C66.02 53.0857 66.02 53.1763 66.0501 53.1763C66.2608 53.3273 66.592 52.9045 66.2307 52.6327L66.2006 52.6025H66.1404C66.02 52.5723 65.8995 52.6327 65.8393 52.7233C65.7791 52.7837 65.749 52.8743 65.749 52.9347C65.749 52.9951 65.749 53.0857 65.8092 53.1461C65.8694 53.2065 65.9297 53.2669 65.9899 53.2669C66.1103 53.2971 66.2006 53.2065 66.2608 53.1461C66.321 53.0857 66.3511 52.9347 66.2608 52.8441L66.2307 52.8139H66.2006C66.1103 52.7837 66.02 52.7837 65.9297 52.8441C65.8995 52.8743 65.8694 52.9045 65.8393 52.9649C65.8393 53.0253 65.8393 53.0857 65.8694 53.1159C65.8995 53.1461 65.9297 53.1763 65.9899 53.2065C66.0501 53.2065 66.1103 53.2065 66.1404 53.1461C66.1705 53.0857 66.1705 53.0253 66.1404 52.9951C66.1103 52.9649 66.0802 52.9347 66.0501 52.9347C65.9899 52.9347 65.9899 52.9649 66.02 52.9951C66.02 53.0253 66.02 52.9951 66.02 52.9951Z" fill="#3B2D26"/>
<path d="M65.8393 56.7395C65.8393 56.7395 65.8393 56.7697 65.8092 56.7697C65.7791 56.7697 65.7791 56.7697 65.8092 56.7697C65.8393 56.7697 65.8393 56.7697 65.8694 56.7697C65.8694 56.7697 65.8694 56.7697 65.8694 56.7395C65.8393 56.7395 65.8694 56.7093 65.8393 56.7395C65.8393 56.7093 65.8393 56.7395 65.8393 56.7395C65.7791 56.7093 65.8393 56.7395 65.8393 56.7395C65.8694 56.7395 65.8694 56.7999 65.8694 56.7999C65.8694 56.7999 65.8694 56.7999 65.8694 56.7697L65.8393 56.7093C65.8393 56.7093 65.7791 56.6791 65.8092 56.7093V56.7395C65.8092 56.7697 65.8092 56.7697 65.8092 56.7697C65.8092 56.7697 65.7791 56.7697 65.7791 56.7395C65.749 56.6791 65.8092 56.6187 65.8694 56.6187C65.8995 56.6489 65.9296 56.7093 65.9296 56.7395C65.9296 56.7999 65.8694 56.83 65.8393 56.83C65.8393 56.83 65.8393 56.9206 65.8694 56.9206C66.0801 57.0716 66.4113 56.6489 66.05 56.3771L66.0199 56.3469H65.9597C65.8393 56.3167 65.7189 56.3771 65.6587 56.4677C65.5985 56.5281 65.5684 56.6187 65.5684 56.6791C65.5684 56.7395 65.5684 56.83 65.6286 56.8904C65.6888 56.9508 65.749 57.0112 65.8092 57.0112C65.9296 57.0414 66.0199 56.9508 66.0801 56.8904C66.1403 56.83 66.1704 56.6791 66.0801 56.5885L66.05 56.5583H66.0199C65.9296 56.5281 65.8393 56.5281 65.749 56.5885C65.7189 56.6187 65.6888 56.6489 65.6587 56.7093C65.6587 56.7697 65.6587 56.83 65.6888 56.8602C65.7189 56.8904 65.749 56.9206 65.8092 56.9508C65.8694 56.9508 65.9296 56.9508 65.9597 56.8904C65.9898 56.83 65.9898 56.7697 65.9597 56.7395C65.9296 56.7093 65.8995 56.6791 65.8694 56.6791C65.8092 56.6489 65.8092 56.7093 65.8393 56.7395C65.8393 56.7697 65.8393 56.7395 65.8393 56.7395Z" fill="#3B2D26"/>
<path d="M65.6286 60.4537C65.6286 60.4537 65.6286 60.4839 65.5985 60.4839C65.5684 60.4839 65.5684 60.4839 65.5985 60.4839C65.6286 60.4839 65.6286 60.4839 65.6587 60.4839C65.6587 60.4839 65.6587 60.4839 65.6587 60.4537C65.6286 60.4839 65.6888 60.4235 65.6286 60.4537C65.6587 60.4537 65.6286 60.4537 65.6286 60.4537C65.5985 60.4537 65.6587 60.4537 65.6286 60.4537C65.6587 60.4537 65.6587 60.4537 65.6286 60.4537C65.6587 60.4537 65.6587 60.514 65.6587 60.514C65.6587 60.514 65.6587 60.514 65.6587 60.4839L65.6286 60.4235C65.6286 60.4235 65.5684 60.3933 65.5985 60.4235V60.4537C65.5985 60.4839 65.5985 60.4839 65.5985 60.4839C65.5985 60.4839 65.5684 60.4839 65.5684 60.4537C65.5383 60.3933 65.5985 60.3329 65.6587 60.3329C65.6888 60.3631 65.7189 60.4235 65.7189 60.4537C65.7189 60.514 65.6587 60.5442 65.6286 60.5442C65.6286 60.5442 65.6286 60.6348 65.6587 60.6348C65.8695 60.7858 66.2006 60.3631 65.8394 60.0913L65.8092 60.0611H65.749C65.6286 60.0309 65.5082 60.0913 65.448 60.1819C65.3878 60.2423 65.3577 60.3329 65.3577 60.3933C65.3577 60.4537 65.3577 60.5442 65.4179 60.6046C65.4781 60.665 65.5383 60.7254 65.5985 60.7254C65.7189 60.7556 65.8092 60.665 65.8695 60.6046C65.9297 60.5442 65.9598 60.3933 65.8695 60.3027L65.8394 60.2725H65.8092C65.7189 60.2423 65.6286 60.2423 65.5383 60.3027C65.5082 60.3329 65.4781 60.3631 65.448 60.4235C65.448 60.4839 65.448 60.5442 65.4781 60.5744C65.5082 60.6046 65.5383 60.6348 65.5985 60.665C65.6587 60.665 65.7189 60.665 65.749 60.6046C65.7791 60.5442 65.7791 60.4839 65.749 60.4537C65.7189 60.4235 65.6888 60.3933 65.6587 60.3933C65.6286 60.3933 65.6286 60.4235 65.6286 60.4537C65.6587 60.4839 65.6286 60.4537 65.6286 60.4537Z" fill="#3B2D26"/>
<path d="M81.5242 54.4143C81.464 53.6896 81.3135 52.9951 81.193 52.2704C81.0726 51.4853 81.0124 50.7002 80.9522 49.8849C80.892 48.5562 80.8619 47.2879 81.2231 45.9895C81.2532 45.9291 81.1629 45.8687 81.1328 45.9291C80.8318 46.4122 80.7114 47.0464 80.6511 47.7107C80.621 48.375 80.6511 49.0393 80.6812 49.6131C80.7114 51.2135 80.8619 52.8743 81.3436 54.3842C81.4038 54.5653 81.5543 54.5653 81.5242 54.4143Z" fill="#3B2D26"/>
<path d="M78.6643 50.519C78.8148 50.066 78.8449 49.6131 78.9352 49.1601C79.0256 48.677 79.1761 48.1938 79.3567 47.7107C79.6578 46.9256 80.019 46.1707 80.7115 45.6271C80.7416 45.5969 80.7115 45.5365 80.6512 45.5365C80.2599 45.6271 79.9588 45.9593 79.718 46.3216C79.4771 46.684 79.3266 47.1068 79.1761 47.4389C78.7546 48.375 78.4235 49.4319 78.4536 50.4586C78.4837 50.5794 78.6342 50.6398 78.6643 50.519Z" fill="#3B2D26"/>
<path d="M85.9497 48.3448C86.4013 47.5597 86.6722 46.684 86.8829 45.8083C87.1238 44.842 87.3345 43.8757 87.4549 42.8792C87.6657 41.2486 87.6657 39.6784 87.756 38.0477C87.756 37.9572 87.6958 37.927 87.6657 38.0176C87.4549 38.6819 87.4248 39.4368 87.3947 40.2521C87.3646 41.0372 87.3345 41.8525 87.2442 42.547C86.9733 44.4796 86.4013 46.4122 85.7992 48.2542C85.739 48.4052 85.8594 48.4958 85.9497 48.3448Z" fill="#3B2D26"/>
<path d="M61.5345 67.4593C61.083 64.1074 60.0895 60.6952 59.2164 57.0112C53.5567 56.6187 51.5698 56.4677 47.2949 54.4143C47.0841 54.3237 46.8433 54.2029 46.6024 54.2029C46.2713 54.2029 45.9702 54.3237 45.7294 54.5351C41.5749 58.1587 34.4099 60.1517 34.4099 60.1517C34.6508 63.7753 35.012 67.3989 35.4937 71.0225C35.7044 72.5927 35.9453 74.1931 36.4571 75.7029C37.5107 78.7528 39.7385 81.2893 42.2974 83.2521C44.8564 85.2149 47.7765 86.6341 50.6967 88.0534C54.1287 85.6074 57.1693 82.6482 59.6981 79.2662C60.4207 78.3301 61.083 77.3336 61.5044 76.2465C62.5581 73.4382 61.956 70.3581 61.5345 67.4593Z" fill="white"/>
<path d="M46.2713 54.2325C46.0606 54.2929 45.8799 54.3835 45.7294 54.5043C41.5749 58.1279 34.4099 60.1209 34.4099 60.1209C34.6508 63.7445 35.012 67.368 35.4937 70.9916C35.7044 72.5619 35.9453 74.1623 36.4571 75.6721C37.5107 78.722 39.7385 81.2585 42.2974 83.2213C44.8564 85.1841 47.7766 86.6033 50.6967 88.0225C50.7268 87.9923 50.7268 87.9923 50.757 87.9621L46.2713 54.2325Z" fill="#F8F6F6"/>
<path d="M50.3355 85.9698C48.0475 84.8224 45.6391 83.7353 43.592 82.1651C42.4781 81.3195 41.4846 80.2929 40.6417 79.1454C39.7987 77.9979 39.1063 76.7598 38.5644 75.4614C37.6312 73.2872 37.0592 71.0225 36.6979 68.7577C36.3367 66.4628 36.1861 64.1678 36.1259 61.7823C36.1259 61.5105 36.0356 61.4501 36.0356 61.6615C35.9453 63.5639 36.0356 65.8589 36.3367 68.184C36.6678 70.5091 37.2398 72.8343 37.9924 74.7367C39.016 77.394 40.5213 79.9607 42.7189 81.8329C43.8027 82.769 45.037 83.5541 46.2713 84.2486C47.5357 84.9431 48.8302 85.5169 50.1549 86.0604C50.6064 86.2718 50.8473 86.2114 50.3355 85.9698Z" fill="#3B2D26"/>
<path d="M58.5241 58.4305C57.5306 58.5815 56.4769 58.6117 55.4534 58.4909C54.3395 58.3399 53.2256 58.0077 52.1418 57.6454C50.3054 57.0414 48.6195 56.4073 46.6928 55.9846C46.5724 55.9544 46.5423 56.045 46.6326 56.0752C47.3551 56.3771 48.2282 56.6489 49.1313 56.9207C50.0345 57.1924 50.9376 57.4944 51.7203 57.7662C52.8041 58.1587 53.918 58.5513 55.062 58.7626C56.206 58.974 57.4102 59.0042 58.5241 58.6419C58.7047 58.5513 58.7348 58.4003 58.5241 58.4305Z" fill="#3B2D26"/>
<path d="M46.6628 63.1412L48.6799 62.9298L49.3723 68.8483L54.3697 68.3048L54.5503 70.2072L49.7335 70.7507L50.456 77.5752L48.5895 77.8167L47.8068 70.9017L43.2911 71.3848L43.0803 69.6334L47.4757 69.1201L46.6628 63.1412Z" fill="#4B75B4"/>
</g>
<defs>
<clipPath id="clip0">
<rect width="129" height="129" fill="white"/>
</clipPath>
</defs>
</svg>
