<svg width="97" height="97" viewBox="0 0 97 97" fill="none" xmlns="http://www.w3.org/2000/svg">
<g clip-path="url(#clip0)">
<path d="M84.7161 82.353C82.7811 84.3928 80.9503 85.7064 79.5017 86.7454C62.4931 98.9529 42.365 95.3946 38.0885 94.5258C31.7729 93.2401 19.5619 90.759 10.7346 80.3758C-2.61935 64.6655 -0.538451 39.9169 9.82091 23.5811C11.7142 20.5926 21.7262 4.00663 42.0662 1.34481C54.378 -0.264091 68.7289 2.98152 79.123 11.6898C100.936 29.9715 99.3831 66.9068 84.7161 82.353Z" fill="url(#paint0_linear)"/>
<path d="M28.4865 59.5643C28.4865 59.5643 28.3962 46.481 22.2716 43.1659C16.1435 39.8508 4.63083 38.0126 3.63033 19.2547C3.04323 8.27387 2.62288 3.47495 2.3797 1.38651C2.27895 0.56989 2.98764 -0.111202 3.79708 0.0138965C9.53259 0.913911 28.1878 4.76764 32.4573 17.2949C37.5188 32.1468 28.4865 59.5643 28.4865 59.5643Z" fill="#BDD0FB"/>
<path d="M8.36547 5.10471C14.7958 10.4944 22.3343 20.1548 26.4926 29.9159C27.038 31.5283 28.5909 34.9477 29.4073 41.081C30.1264 46.1961 30.0117 51.6275 29.442 55.238C29.4073 55.4673 29.1919 55.6202 28.9626 55.5855C28.57 55.5229 28.6083 55.1024 28.6117 55.1163C29.2023 48.9587 28.6465 41.3381 26.6524 34.5029C24.1164 26.1143 18.7874 18.0733 13.3228 11.2797L12.76 10.6125C8.53222 5.50781 7.67415 5.49391 8.04239 5.11861C8.13272 5.03174 8.27167 5.02479 8.36547 5.10471Z" fill="url(#paint1_linear)"/>
<path d="M38.9293 84.4033C39.7561 84.7786 30.9044 74.3155 27.7188 57.5557C26.218 49.6572 25.8984 39.7153 21.2607 36.0214C17.4011 32.9461 4.66556 35.3508 0.500279 36.2473C-0.0208152 36.3585 -0.177143 37.0257 0.243206 37.3558C2.30327 38.9821 6.72215 42.8289 7.96235 46.8077C9.59859 52.0479 14.7262 55.2588 19.2527 56.0302C23.7793 56.8017 26.3083 57.6079 28.7193 64.7385C31.1267 71.8621 36.5809 83.3365 38.9293 84.4033Z" fill="#91B3FA"/>
<path d="M6.45802 38.2975C11.8079 38.3566 17.6199 40.6223 20.67 45.105L20.9584 45.5324C21.6254 46.5366 25.4432 53.702 27.6249 59.6685C27.6527 59.7415 27.6145 59.8249 27.538 59.8527C27.413 59.8979 27.3435 59.7589 27.3574 59.7728C25.8601 56.409 23.7306 52.1522 22.0422 48.9691C20.2288 45.4976 18.9608 43.1486 14.997 40.9802C10.5886 38.652 6.44065 38.5234 6.45455 38.5269C6.39202 38.5234 6.34338 38.4678 6.34685 38.4052C6.34338 38.3427 6.39549 38.2975 6.45802 38.2975Z" fill="url(#paint2_linear)"/>
<path d="M79.6788 28.3974C77.6396 44.7644 72.5433 59.1855 70.174 75.417C70.042 76.317 69.917 77.2275 69.8023 78.1414C58.2271 78.0545 46.4052 77.9677 34.3366 77.8773C32.7317 77.8669 31.1267 77.853 29.5113 77.8426C28.7053 77.8356 27.8959 77.8287 27.0899 77.8252C26.5689 77.8217 26.02 77.8148 25.5023 77.8113C25.485 77.2518 25.5475 76.6993 25.4224 76.1364C24.9048 58.5843 24.3664 40.9906 23.8209 23.3552C23.6368 18.1949 27.889 14.2578 33.357 14.3655C33.5341 12.3014 34.1421 10.3762 35.0835 8.65265C38.085 3.18654 44.5501 -0.257142 51.9774 0.305801C60.11 1.15022 67.8569 7.16884 69.5036 12.0129C70.108 13.7956 69.8927 15.4184 68.5656 16.5686C69.6807 16.7146 70.8897 17.1489 72.0847 17.7953C75.4267 19.5953 78.6714 23.0181 79.5086 26.2359V26.2394C79.7031 26.9796 79.7691 27.7059 79.6788 28.3974Z" fill="#7D97F4"/>
<path d="M37.3345 76.2441L29.5911 80.4592L16.2337 87.1277L12.051 82.784L12.2734 78.1901C12.3324 76.9912 13.6734 76.0321 15.3027 76.046L37.3345 76.2441Z" fill="url(#paint3_linear)"/>
<path d="M24.4635 87.1207L19.6799 89.5219L12.058 94.7135L6.71851 89.5532L6.94084 84.9419C6.9999 83.7396 8.37906 82.77 10.0222 82.7735L20.3156 82.8048L24.4635 87.1207Z" fill="#7D97F4"/>
<path d="M80.0468 30.5067C78.1014 46.1231 76.156 61.7778 74.2071 77.4603C74.0056 79.0692 73.8041 80.6781 73.6061 82.2905L29.6431 82.1237C29.0942 64.0886 28.5419 46.0084 27.986 27.8865C27.8019 22.7471 32.0124 18.8065 37.4422 18.8968C37.727 15.5331 39.1444 12.5307 41.3504 10.1642C44.7618 6.50859 50.0388 4.39582 55.9202 4.81629C65.4632 5.50086 72.5084 12.5828 72.3902 20.954C77.3024 21.5795 80.6652 25.7182 80.0468 30.5067Z" fill="#91B3FA"/>
<g opacity="0.71">
<path opacity="0.71" d="M50.473 33.0608L48.4894 33.0017C48.1177 32.9913 47.8606 32.8349 47.7112 32.5395L46.2522 29.5684C46.1827 29.4399 46.1028 29.346 46.0125 29.2835C45.9221 29.2209 45.7901 29.1862 45.6164 29.1792L45.0398 29.1549L44.8591 32.894L42.5732 32.8245L43.0665 22.6289L46.2591 22.8444C46.9574 22.8896 47.548 23.0042 48.0308 23.1884C48.5102 23.3691 48.8959 23.6019 49.1911 23.8869C49.483 24.1718 49.6914 24.495 49.813 24.8633C49.9346 25.2317 49.9832 25.6244 49.9624 26.0483C49.9485 26.3715 49.8894 26.6738 49.7956 26.9553C49.6983 27.2367 49.5663 27.4974 49.3926 27.7337C49.2189 27.9699 49.0105 28.1784 48.7638 28.3591C48.5172 28.5398 48.2358 28.6858 47.9197 28.7935C48.0586 28.8769 48.1906 28.9812 48.3122 29.1028C48.4338 29.2244 48.538 29.3669 48.6318 29.5337L50.473 33.0608ZM46.0298 27.5842C46.3355 27.5981 46.5961 27.5703 46.8149 27.5008C47.0338 27.4313 47.2145 27.3271 47.3569 27.1916C47.4993 27.056 47.607 26.8962 47.6765 26.7085C47.746 26.5209 47.7877 26.3193 47.7981 26.0969C47.8189 25.6556 47.6973 25.3047 47.4368 25.0406C47.1728 24.7765 46.7524 24.627 46.1723 24.5923L45.2656 24.5367L45.1197 27.5356L46.0298 27.5842Z" fill="white"/>
<path opacity="0.71" d="M55.9167 33.2241L53.801 33.1615L54.2735 23.383L56.3857 23.5255L55.9167 33.2241Z" fill="white"/>
<path opacity="0.71" d="M63.556 24.005C64.1535 24.0467 64.6607 24.1579 65.0776 24.3421C65.4945 24.5263 65.8315 24.7626 66.092 25.0545C66.3491 25.3464 66.5367 25.68 66.6478 26.0587C66.759 26.4375 66.8042 26.8406 66.7833 27.2715C66.7625 27.7371 66.6756 28.1576 66.5228 28.5398C66.3699 28.9221 66.1511 29.2453 65.8627 29.5094C65.5744 29.7735 65.2131 29.975 64.7823 30.114C64.3481 30.253 63.8409 30.3086 63.2538 30.2843L62.222 30.2391L62.0692 33.4048L60.0647 33.3457L60.5267 23.8L63.556 24.005ZM63.3337 28.6337C63.8478 28.658 64.2195 28.5398 64.4558 28.2827C64.692 28.0221 64.8205 27.6503 64.8449 27.1672C64.8553 26.9518 64.8344 26.7572 64.7858 26.5765C64.7372 26.3958 64.6573 26.2394 64.5461 26.1074C64.4349 25.9753 64.289 25.8676 64.1153 25.7877C63.9382 25.7078 63.7262 25.6591 63.4761 25.6452L62.4444 25.5827L62.2985 28.585L63.3337 28.6337Z" fill="white"/>
</g>
<path d="M29.5911 80.4592L16.2059 87.1277L12.058 82.8222L12.051 82.6971L12.2699 78.1901C12.3289 76.9912 13.6699 76.0321 15.2992 76.046L25.4883 76.1364L29.5911 80.4592Z" fill="#7D97F4"/>
<path d="M85.4942 82.784L85.2857 87.0929L16.3936 87.1381L16.6159 82.5616C16.6749 81.3696 17.9395 80.4036 19.5583 80.4106L83.052 80.7407C84.4937 80.7476 85.5498 81.6581 85.4942 82.784Z" fill="#91B3FA"/>
<path d="M89.253 89.7721L89.1419 92.0517C89.0689 93.5459 87.8773 94.7691 86.4426 94.7795L13.8089 95.3181C12.1797 95.3285 10.8978 94.0428 10.9777 92.4408L11.0958 90.0258C11.1722 88.4238 12.5896 87.1277 14.2189 87.1277L86.8039 87.0894C88.2247 87.0894 89.326 88.2848 89.253 89.7721Z" fill="#7D97F4"/>
<path opacity="0.3" d="M37.4423 18.8968L33.3743 14.3655C33.5514 12.3014 34.1524 10.3762 35.0939 8.65265C35.4969 12.4786 37.4423 18.8968 37.4423 18.8968Z" fill="#D8DEE8"/>
<path d="M54.5514 85.9218H10.5989V96.1695H54.5514V85.9218Z" fill="url(#paint4_linear)"/>
<path d="M55.1456 95.5127H9.9528C9.80342 95.5127 9.6853 95.3911 9.6853 95.2451V91.5791H55.3262V95.3355C55.3228 95.4328 55.2429 95.5127 55.1456 95.5127Z" fill="url(#paint5_linear)"/>
<path d="M55.0588 91.0474H10.0154C9.83126 91.0474 9.68188 90.898 9.68188 90.7138V87.1103H55.3228V90.7798C55.3228 90.9257 55.2047 91.0474 55.0588 91.0474Z" fill="url(#paint6_linear)"/>
<path d="M55.3228 87.1103H9.68188V85.9079C9.68188 85.755 9.80347 85.6334 9.95633 85.6334H55.0449C55.1978 85.6334 55.3228 85.7585 55.3228 85.9114V87.1103Z" fill="url(#paint7_linear)"/>
<path d="M95.4364 90.5122C96.9163 91.2316 97.4374 93.2088 96.6001 94.9254C95.7629 96.6421 93.887 97.4552 92.4105 96.7359C90.9306 96.0166 90.4095 94.0393 91.2468 92.3227C92.084 90.6026 93.9599 89.7929 95.4364 90.5122Z" fill="url(#paint8_linear)"/>
<path d="M93.0464 91.2628L91.5248 94.3938C91.4727 94.5015 91.3407 94.5467 91.233 94.4945L89.3223 93.5667C89.2147 93.5146 89.1695 93.3826 89.2216 93.2748L90.7432 90.1439C90.7953 90.0362 90.9273 89.991 91.035 90.0431L92.9457 90.9709C93.0568 91.0265 93.102 91.1551 93.0464 91.2628Z" fill="url(#paint9_linear)"/>
<path d="M91.1045 89.7686C90.8335 91.1621 90.2151 92.4096 89.2737 93.5181C88.7665 94.1158 87.9501 94.3834 87.1372 94.22C79.3798 92.6633 63.1182 82.6102 47.3256 73.8255C46.2799 73.2452 45.5573 72.5849 46.0506 71.5703L47.138 69.3289C47.6278 68.3212 48.802 68.8876 49.9033 69.3393C66.6061 76.2024 84.3233 82.1863 90.4062 87.7253C90.9863 88.257 91.2469 89.0319 91.1045 89.7686Z" fill="url(#paint10_linear)"/>
<path d="M49.674 67.0319L45.9708 74.6525C45.9221 74.7568 45.7971 74.7985 45.6928 74.7498L43.73 73.7942C43.6258 73.7456 43.5841 73.6205 43.6328 73.5162L47.336 65.8956C47.3847 65.7914 47.5097 65.7497 47.6139 65.7983L49.5767 66.7539C49.6809 66.8061 49.7226 66.9312 49.674 67.0319Z" fill="url(#paint11_linear)"/>
<path d="M33.2387 59.4426L29.5354 67.0632C29.4868 67.1675 29.3617 67.2092 29.2575 67.1605L27.2947 66.2049C27.1905 66.1563 27.1488 66.0312 27.1975 65.9269L30.9007 58.3063C30.9493 58.2021 31.0744 58.1604 31.1786 58.209L33.1414 59.1647C33.2456 59.2133 33.2908 59.3384 33.2387 59.4426Z" fill="url(#paint12_linear)"/>
<path d="M51.2929 59.6129L39.61 83.6457L23.3345 75.7263L35.0174 51.697L51.2929 59.6129Z" fill="url(#paint13_linear)"/>
<path d="M40.2247 82.3774L38.7552 85.4006L22.4797 77.4811L23.9492 74.4614L40.2247 82.3774Z" fill="url(#paint14_linear)"/>
<path d="M39.4189 84.0349L38.6894 85.5361C38.467 85.9948 37.9425 86.2242 37.4526 86.0817C32.3806 84.5736 27.4685 82.2245 22.7439 78.9198C22.3305 78.6314 22.188 78.0823 22.4104 77.6271L23.1434 76.119L39.4189 84.0349Z" fill="url(#paint15_linear)"/>
<path d="M41.0655 81.7623L40.4506 83.0307C40.3985 83.1384 40.2699 83.1836 40.1588 83.1314L23.1051 74.8367C22.9974 74.7846 22.9522 74.656 23.0043 74.5448L23.6192 73.2765C23.6713 73.1687 23.7999 73.1236 23.911 73.1757L40.9647 81.4704C41.0759 81.526 41.1176 81.6546 41.0655 81.7623Z" fill="url(#paint16_linear)"/>
<path d="M40.9823 81.936L40.5342 82.8569C40.4959 82.9403 40.3952 82.9716 40.3118 82.9334L23.1643 74.5935C23.081 74.5552 23.0497 74.4545 23.0879 74.3711L23.5361 73.4502C23.5743 73.3668 23.675 73.3355 23.7584 73.3738L40.9059 81.7136C40.9892 81.7553 41.024 81.8526 40.9823 81.936Z" fill="url(#paint17_linear)"/>
<path d="M51.3866 59.4183L52.8561 56.3951L36.5806 48.4791L35.1111 51.5024L51.3866 59.4183Z" fill="url(#paint18_linear)"/>
<path d="M52.1925 57.7608L52.922 56.2596C53.1444 55.8009 53.0019 55.2484 52.5885 54.953C48.2704 51.8916 43.3895 49.4799 37.8728 47.805C37.3899 47.6591 36.8723 47.8849 36.65 48.3401L35.917 49.8483L52.1925 57.7608Z" fill="url(#paint19_linear)"/>
<path d="M51.4215 60.4608L52.0364 59.1925C52.0885 59.0847 52.0434 58.9562 51.9357 58.9006L34.882 50.6058C34.7743 50.5537 34.6457 50.5989 34.5902 50.7066L33.9753 51.975C33.9232 52.0827 33.9683 52.2113 34.076 52.2669L51.1297 60.5616C51.2409 60.6137 51.3694 60.5685 51.4215 60.4608Z" fill="url(#paint20_linear)"/>
<path d="M51.5083 60.2871L51.9564 59.3662C51.9946 59.2828 51.9634 59.1855 51.88 59.1438L34.7325 50.8039C34.6491 50.7657 34.5519 50.7969 34.5102 50.8803L34.062 51.8012C34.0238 51.8846 34.0551 51.9819 34.1385 52.0236L51.286 60.3635C51.3693 60.4017 51.4666 60.3705 51.5083 60.2871Z" fill="url(#paint21_linear)"/>
</g>
<defs>
<linearGradient id="paint0_linear" x1="107.898" y1="123.636" x2="23.6013" y2="18.9747" gradientUnits="userSpaceOnUse">
<stop stop-color="#DAE3FE"/>
<stop offset="1" stop-color="#E9EFFD"/>
</linearGradient>
<linearGradient id="paint1_linear" x1="7.96691" y1="30.3199" x2="29.9095" y2="30.3199" gradientUnits="userSpaceOnUse">
<stop stop-color="#DAE3FE"/>
<stop offset="1" stop-color="#E9EFFD"/>
</linearGradient>
<linearGradient id="paint2_linear" x1="8.63921" y1="40.7616" x2="77.0669" y2="90.6553" gradientUnits="userSpaceOnUse">
<stop stop-color="#DAE3FE"/>
<stop offset="1" stop-color="#E9EFFD"/>
</linearGradient>
<linearGradient id="paint3_linear" x1="59.4646" y1="-23.5931" x2="2.10951" y2="142.958" gradientUnits="userSpaceOnUse">
<stop stop-color="#53D8FF"/>
<stop offset="0.7054" stop-color="#406DF9"/>
<stop offset="1" stop-color="#3840F7"/>
</linearGradient>
<linearGradient id="paint4_linear" x1="62.8758" y1="63.7512" x2="51.1607" y2="74.2976" gradientUnits="userSpaceOnUse">
<stop stop-color="#09005D"/>
<stop offset="1" stop-color="#1A0F91"/>
</linearGradient>
<linearGradient id="paint5_linear" x1="57.8975" y1="58.7023" x2="18.7307" y2="112.32" gradientUnits="userSpaceOnUse">
<stop stop-color="#4F52FF"/>
<stop offset="1" stop-color="#4042E2"/>
</linearGradient>
<linearGradient id="paint6_linear" x1="55.1424" y1="57.9797" x2="15.9437" y2="111.641" gradientUnits="userSpaceOnUse">
<stop stop-color="#4F52FF"/>
<stop offset="1" stop-color="#4042E2"/>
</linearGradient>
<linearGradient id="paint7_linear" x1="36.3208" y1="37.5763" x2="32.2022" y2="90.3309" gradientUnits="userSpaceOnUse">
<stop stop-color="#09005D"/>
<stop offset="1" stop-color="#1A0F91"/>
</linearGradient>
<linearGradient id="paint8_linear" x1="54.2975" y1="103.692" x2="113.695" y2="88.6117" gradientUnits="userSpaceOnUse">
<stop stop-color="#4F52FF"/>
<stop offset="1" stop-color="#4042E2"/>
</linearGradient>
<linearGradient id="paint9_linear" x1="91.326" y1="90.3799" x2="89.3709" y2="109.909" gradientUnits="userSpaceOnUse">
<stop stop-color="#09005D"/>
<stop offset="1" stop-color="#1A0F91"/>
</linearGradient>
<linearGradient id="paint10_linear" x1="47.1192" y1="60.7622" x2="84.5359" y2="95.3714" gradientUnits="userSpaceOnUse">
<stop stop-color="#4F52FF"/>
<stop offset="1" stop-color="#4042E2"/>
</linearGradient>
<linearGradient id="paint11_linear" x1="46.5767" y1="70.6317" x2="41.1477" y2="96.5195" gradientUnits="userSpaceOnUse">
<stop stop-color="#09005D"/>
<stop offset="1" stop-color="#1A0F91"/>
</linearGradient>
<linearGradient id="paint12_linear" x1="30.2296" y1="60.1491" x2="30.1707" y2="72.4008" gradientUnits="userSpaceOnUse">
<stop stop-color="#09005D"/>
<stop offset="1" stop-color="#1A0F91"/>
</linearGradient>
<linearGradient id="paint13_linear" x1="72.1099" y1="35.0847" x2="0.142761" y2="102.439" gradientUnits="userSpaceOnUse">
<stop stop-color="#4F52FF"/>
<stop offset="1" stop-color="#4042E2"/>
</linearGradient>
<linearGradient id="paint14_linear" x1="22.4801" y1="79.9297" x2="40.2255" y2="79.9297" gradientUnits="userSpaceOnUse">
<stop stop-color="#09005D"/>
<stop offset="1" stop-color="#1A0F91"/>
</linearGradient>
<linearGradient id="paint15_linear" x1="32.0062" y1="60.0607" x2="30.8327" y2="81.5928" gradientUnits="userSpaceOnUse">
<stop stop-color="#4F52FF"/>
<stop offset="1" stop-color="#4042E2"/>
</linearGradient>
<linearGradient id="paint16_linear" x1="52.4123" y1="71.7035" x2="20.0106" y2="81.9526" gradientUnits="userSpaceOnUse">
<stop stop-color="#09005D"/>
<stop offset="1" stop-color="#1A0F91"/>
</linearGradient>
<linearGradient id="paint17_linear" x1="33.0339" y1="59.8373" x2="31.8423" y2="81.7021" gradientUnits="userSpaceOnUse">
<stop stop-color="#4F52FF"/>
<stop offset="1" stop-color="#4042E2"/>
</linearGradient>
<linearGradient id="paint18_linear" x1="35.1106" y1="53.9485" x2="52.8561" y2="53.9485" gradientUnits="userSpaceOnUse">
<stop stop-color="#09005D"/>
<stop offset="1" stop-color="#1A0F91"/>
</linearGradient>
<linearGradient id="paint19_linear" x1="34.4773" y1="39.8465" x2="47.6459" y2="56.6972" gradientUnits="userSpaceOnUse">
<stop stop-color="#4F52FF"/>
<stop offset="1" stop-color="#4042E2"/>
</linearGradient>
<linearGradient id="paint20_linear" x1="46.3204" y1="43.9499" x2="40.9526" y2="62.7914" gradientUnits="userSpaceOnUse">
<stop stop-color="#09005D"/>
<stop offset="1" stop-color="#1A0F91"/>
</linearGradient>
<linearGradient id="paint21_linear" x1="32.054" y1="41.5588" x2="45.3295" y2="58.5461" gradientUnits="userSpaceOnUse">
<stop stop-color="#4F52FF"/>
<stop offset="1" stop-color="#4042E2"/>
</linearGradient>
<clipPath id="clip0">
<rect width="97" height="97" fill="white"/>
</clipPath>
</defs>
</svg>
